<svg width="1363" height="167" viewBox="0 0 1363 167" fill="none" xmlns="http://www.w3.org/2000/svg">
<rect width="1363" height="167" rx="15" fill="#F0F0F0"/>
<path d="M0 15C0 6.71573 6.71573 0 15 0H37V167H15C6.71573 167 0 160.284 0 152V15Z" fill="#424241"/>
<path d="M100.906 50.9219L93.3945 48.2383V45.0859L103.602 49.375V51.6367L100.906 50.9219ZM93.3945 53.1719L100.918 50.4297L103.602 49.7852V52.0352L93.3945 56.3242V53.1719ZM118.543 51.918H114.195V49.1758H118.543C119.215 49.1758 119.762 49.0664 120.184 48.8477C120.605 48.6211 120.914 48.3086 121.109 47.9102C121.305 47.5117 121.402 47.0625 121.402 46.5625C121.402 46.0547 121.305 45.582 121.109 45.1445C120.914 44.707 120.605 44.3555 120.184 44.0898C119.762 43.8242 119.215 43.6914 118.543 43.6914H115.414V58H111.898V40.9375H118.543C119.879 40.9375 121.023 41.1797 121.977 41.6641C122.938 42.1406 123.672 42.8008 124.18 43.6445C124.688 44.4883 124.941 45.4531 124.941 46.5391C124.941 47.6406 124.688 48.5938 124.18 49.3984C123.672 50.2031 122.938 50.8242 121.977 51.2617C121.023 51.6992 119.879 51.918 118.543 51.918ZM130.449 40V58H127.074V40H130.449ZM129.969 51.2148H129.043C129.051 50.332 129.168 49.5195 129.395 48.7773C129.621 48.0273 129.945 47.3789 130.367 46.832C130.789 46.2773 131.293 45.8477 131.879 45.543C132.473 45.2383 133.129 45.0859 133.848 45.0859C134.473 45.0859 135.039 45.1758 135.547 45.3555C136.062 45.5273 136.504 45.8086 136.871 46.1992C137.246 46.582 137.535 47.0859 137.738 47.7109C137.941 48.3359 138.043 49.0938 138.043 49.9844V58H134.645V49.9609C134.645 49.3984 134.562 48.957 134.398 48.6367C134.242 48.3086 134.012 48.0781 133.707 47.9453C133.41 47.8047 133.043 47.7344 132.605 47.7344C132.121 47.7344 131.707 47.8242 131.363 48.0039C131.027 48.1836 130.758 48.4336 130.555 48.7539C130.352 49.0664 130.203 49.4336 130.109 49.8555C130.016 50.2773 129.969 50.7305 129.969 51.2148ZM147.453 55.1406V49.4922C147.453 49.0859 147.387 48.7383 147.254 48.4492C147.121 48.1523 146.914 47.9219 146.633 47.7578C146.359 47.5938 146.004 47.5117 145.566 47.5117C145.191 47.5117 144.867 47.5781 144.594 47.7109C144.32 47.8359 144.109 48.0195 143.961 48.2617C143.812 48.4961 143.738 48.7734 143.738 49.0938H140.363C140.363 48.5547 140.488 48.043 140.738 47.5586C140.988 47.0742 141.352 46.6484 141.828 46.2812C142.305 45.9062 142.871 45.6133 143.527 45.4023C144.191 45.1914 144.934 45.0859 145.754 45.0859C146.738 45.0859 147.613 45.25 148.379 45.5781C149.145 45.9062 149.746 46.3984 150.184 47.0547C150.629 47.7109 150.852 48.5312 150.852 49.5156V54.9414C150.852 55.6367 150.895 56.207 150.98 56.6523C151.066 57.0898 151.191 57.4727 151.355 57.8008V58H147.945C147.781 57.6562 147.656 57.2266 147.57 56.7109C147.492 56.1875 147.453 55.6641 147.453 55.1406ZM147.898 50.2773L147.922 52.1875H146.035C145.59 52.1875 145.203 52.2383 144.875 52.3398C144.547 52.4414 144.277 52.5859 144.066 52.7734C143.855 52.9531 143.699 53.1641 143.598 53.4062C143.504 53.6484 143.457 53.9141 143.457 54.2031C143.457 54.4922 143.523 54.7539 143.656 54.9883C143.789 55.2148 143.98 55.3945 144.23 55.5273C144.48 55.6523 144.773 55.7148 145.109 55.7148C145.617 55.7148 146.059 55.6133 146.434 55.4102C146.809 55.207 147.098 54.957 147.301 54.6602C147.512 54.3633 147.621 54.082 147.629 53.8164L148.52 55.2461C148.395 55.5664 148.223 55.8984 148.004 56.2422C147.793 56.5859 147.523 56.9102 147.195 57.2148C146.867 57.5117 146.473 57.7578 146.012 57.9531C145.551 58.1406 145.004 58.2344 144.371 58.2344C143.566 58.2344 142.836 58.0742 142.18 57.7539C141.531 57.4258 141.016 56.9766 140.633 56.4062C140.258 55.8281 140.07 55.1719 140.07 54.4375C140.07 53.7734 140.195 53.1836 140.445 52.668C140.695 52.1523 141.062 51.7188 141.547 51.3672C142.039 51.0078 142.652 50.7383 143.387 50.5586C144.121 50.3711 144.973 50.2773 145.941 50.2773H147.898ZM156.828 48.0859V58H153.453V45.3203H156.629L156.828 48.0859ZM160.648 45.2383L160.59 48.3672C160.426 48.3438 160.227 48.3242 159.992 48.3086C159.766 48.2852 159.559 48.2734 159.371 48.2734C158.895 48.2734 158.48 48.3359 158.129 48.4609C157.785 48.5781 157.496 48.7539 157.262 48.9883C157.035 49.2227 156.863 49.5078 156.746 49.8438C156.637 50.1797 156.574 50.5625 156.559 50.9922L155.879 50.7812C155.879 49.9609 155.961 49.207 156.125 48.5195C156.289 47.8242 156.527 47.2188 156.84 46.7031C157.16 46.1875 157.551 45.7891 158.012 45.5078C158.473 45.2266 159 45.0859 159.594 45.0859C159.781 45.0859 159.973 45.1016 160.168 45.1328C160.363 45.1562 160.523 45.1914 160.648 45.2383ZM165.617 47.9453V58H162.23V45.3203H165.406L165.617 47.9453ZM165.148 51.2148H164.211C164.211 50.332 164.316 49.5195 164.527 48.7773C164.746 48.0273 165.062 47.3789 165.477 46.832C165.898 46.2773 166.418 45.8477 167.035 45.543C167.652 45.2383 168.367 45.0859 169.18 45.0859C169.742 45.0859 170.258 45.1719 170.727 45.3438C171.195 45.5078 171.598 45.7695 171.934 46.1289C172.277 46.4805 172.543 46.9414 172.73 47.5117C172.918 48.0742 173.012 48.75 173.012 49.5391V58H169.637V49.9141C169.637 49.3359 169.559 48.8906 169.402 48.5781C169.246 48.2656 169.023 48.0469 168.734 47.9219C168.453 47.7969 168.113 47.7344 167.715 47.7344C167.277 47.7344 166.895 47.8242 166.566 48.0039C166.246 48.1836 165.98 48.4336 165.77 48.7539C165.559 49.0664 165.402 49.4336 165.301 49.8555C165.199 50.2773 165.148 50.7305 165.148 51.2148ZM172.695 50.8281L171.488 50.9805C171.488 50.1523 171.59 49.3828 171.793 48.6719C172.004 47.9609 172.312 47.3359 172.719 46.7969C173.133 46.2578 173.645 45.8398 174.254 45.543C174.863 45.2383 175.566 45.0859 176.363 45.0859C176.973 45.0859 177.527 45.1758 178.027 45.3555C178.527 45.5273 178.953 45.8047 179.305 46.1875C179.664 46.5625 179.938 47.0547 180.125 47.6641C180.32 48.2734 180.418 49.0195 180.418 49.9023V58H177.031V49.9023C177.031 49.3164 176.953 48.8711 176.797 48.5664C176.648 48.2539 176.43 48.0391 176.141 47.9219C175.859 47.7969 175.523 47.7344 175.133 47.7344C174.727 47.7344 174.371 47.8164 174.066 47.9805C173.762 48.1367 173.508 48.3555 173.305 48.6367C173.102 48.918 172.949 49.2461 172.848 49.6211C172.746 49.9883 172.695 50.3906 172.695 50.8281ZM189.875 55.1406V49.4922C189.875 49.0859 189.809 48.7383 189.676 48.4492C189.543 48.1523 189.336 47.9219 189.055 47.7578C188.781 47.5938 188.426 47.5117 187.988 47.5117C187.613 47.5117 187.289 47.5781 187.016 47.7109C186.742 47.8359 186.531 48.0195 186.383 48.2617C186.234 48.4961 186.16 48.7734 186.16 49.0938H182.785C182.785 48.5547 182.91 48.043 183.16 47.5586C183.41 47.0742 183.773 46.6484 184.25 46.2812C184.727 45.9062 185.293 45.6133 185.949 45.4023C186.613 45.1914 187.355 45.0859 188.176 45.0859C189.16 45.0859 190.035 45.25 190.801 45.5781C191.566 45.9062 192.168 46.3984 192.605 47.0547C193.051 47.7109 193.273 48.5312 193.273 49.5156V54.9414C193.273 55.6367 193.316 56.207 193.402 56.6523C193.488 57.0898 193.613 57.4727 193.777 57.8008V58H190.367C190.203 57.6562 190.078 57.2266 189.992 56.7109C189.914 56.1875 189.875 55.6641 189.875 55.1406ZM190.32 50.2773L190.344 52.1875H188.457C188.012 52.1875 187.625 52.2383 187.297 52.3398C186.969 52.4414 186.699 52.5859 186.488 52.7734C186.277 52.9531 186.121 53.1641 186.02 53.4062C185.926 53.6484 185.879 53.9141 185.879 54.2031C185.879 54.4922 185.945 54.7539 186.078 54.9883C186.211 55.2148 186.402 55.3945 186.652 55.5273C186.902 55.6523 187.195 55.7148 187.531 55.7148C188.039 55.7148 188.48 55.6133 188.855 55.4102C189.23 55.207 189.52 54.957 189.723 54.6602C189.934 54.3633 190.043 54.082 190.051 53.8164L190.941 55.2461C190.816 55.5664 190.645 55.8984 190.426 56.2422C190.215 56.5859 189.945 56.9102 189.617 57.2148C189.289 57.5117 188.895 57.7578 188.434 57.9531C187.973 58.1406 187.426 58.2344 186.793 58.2344C185.988 58.2344 185.258 58.0742 184.602 57.7539C183.953 57.4258 183.438 56.9766 183.055 56.4062C182.68 55.8281 182.492 55.1719 182.492 54.4375C182.492 53.7734 182.617 53.1836 182.867 52.668C183.117 52.1523 183.484 51.7188 183.969 51.3672C184.461 51.0078 185.074 50.7383 185.809 50.5586C186.543 50.3711 187.395 50.2773 188.363 50.2773H190.32ZM207.055 55.2578V58H198.465V55.2578H207.055ZM199.602 40.9375V58H196.086V40.9375H199.602ZM214.695 58.2344C213.711 58.2344 212.828 58.0781 212.047 57.7656C211.266 57.4453 210.602 57.0039 210.055 56.4414C209.516 55.8789 209.102 55.2266 208.812 54.4844C208.523 53.7344 208.379 52.9375 208.379 52.0938V51.625C208.379 50.6641 208.516 49.7852 208.789 48.9883C209.062 48.1914 209.453 47.5 209.961 46.9141C210.477 46.3281 211.102 45.8789 211.836 45.5664C212.57 45.2461 213.398 45.0859 214.32 45.0859C215.219 45.0859 216.016 45.2344 216.711 45.5312C217.406 45.8281 217.988 46.25 218.457 46.7969C218.934 47.3438 219.293 48 219.535 48.7656C219.777 49.5234 219.898 50.3672 219.898 51.2969V52.7031H209.82V50.4531H216.582V50.1953C216.582 49.7266 216.496 49.3086 216.324 48.9414C216.16 48.5664 215.91 48.2695 215.574 48.0508C215.238 47.832 214.809 47.7227 214.285 47.7227C213.84 47.7227 213.457 47.8203 213.137 48.0156C212.816 48.2109 212.555 48.4844 212.352 48.8359C212.156 49.1875 212.008 49.6016 211.906 50.0781C211.812 50.5469 211.766 51.0625 211.766 51.625V52.0938C211.766 52.6016 211.836 53.0703 211.977 53.5C212.125 53.9297 212.332 54.3008 212.598 54.6133C212.871 54.9258 213.199 55.168 213.582 55.3398C213.973 55.5117 214.414 55.5977 214.906 55.5977C215.516 55.5977 216.082 55.4805 216.605 55.2461C217.137 55.0039 217.594 54.6406 217.977 54.1562L219.617 55.9375C219.352 56.3203 218.988 56.6875 218.527 57.0391C218.074 57.3906 217.527 57.6797 216.887 57.9062C216.246 58.125 215.516 58.2344 214.695 58.2344ZM221.82 40H225.195V55.0938L224.855 58H221.82V40ZM233.223 51.5312V51.7773C233.223 52.7227 233.121 53.5898 232.918 54.3789C232.723 55.168 232.418 55.8516 232.004 56.4297C231.59 57 231.074 57.4453 230.457 57.7656C229.848 58.0781 229.129 58.2344 228.301 58.2344C227.527 58.2344 226.855 58.0781 226.285 57.7656C225.723 57.4531 225.25 57.0117 224.867 56.4414C224.484 55.8711 224.176 55.2031 223.941 54.4375C223.707 53.6719 223.531 52.8359 223.414 51.9297V51.3906C223.531 50.4844 223.707 49.6484 223.941 48.8828C224.176 48.1172 224.484 47.4492 224.867 46.8789C225.25 46.3086 225.723 45.8672 226.285 45.5547C226.848 45.2422 227.512 45.0859 228.277 45.0859C229.113 45.0859 229.84 45.2461 230.457 45.5664C231.082 45.8789 231.598 46.3242 232.004 46.9023C232.418 47.4727 232.723 48.1523 232.918 48.9414C233.121 49.7227 233.223 50.5859 233.223 51.5312ZM229.848 51.7773V51.5312C229.848 51.0156 229.809 50.5312 229.73 50.0781C229.66 49.6172 229.535 49.2148 229.355 48.8711C229.176 48.5195 228.93 48.2422 228.617 48.0391C228.312 47.8359 227.918 47.7344 227.434 47.7344C226.973 47.7344 226.582 47.8125 226.262 47.9688C225.941 48.125 225.676 48.3438 225.465 48.625C225.262 48.9062 225.109 49.2422 225.008 49.6328C224.906 50.0156 224.844 50.4375 224.82 50.8984V52.4336C224.844 53.0508 224.945 53.5977 225.125 54.0742C225.312 54.543 225.594 54.9141 225.969 55.1875C226.352 55.4531 226.848 55.5859 227.457 55.5859C227.934 55.5859 228.328 55.4922 228.641 55.3047C228.953 55.1172 229.195 54.8516 229.367 54.5078C229.547 54.1641 229.672 53.7617 229.742 53.3008C229.812 52.832 229.848 52.3242 229.848 51.7773Z" fill="#888888"/>
<path d="M109.93 86.0078V118H102.217V86.0078H109.93ZM119.554 86.0078V91.9624H92.813V86.0078H119.554ZM132.012 118.439C130.079 118.439 128.35 118.139 126.827 117.539C125.303 116.923 124.014 116.081 122.959 115.012C121.919 113.942 121.121 112.712 120.564 111.32C120.022 109.929 119.751 108.457 119.751 106.904V106.069C119.751 104.326 119.993 102.714 120.477 101.235C120.96 99.7407 121.678 98.437 122.63 97.3237C123.582 96.2104 124.776 95.3462 126.211 94.731C127.647 94.1011 129.317 93.7861 131.221 93.7861C132.906 93.7861 134.415 94.0571 135.748 94.5991C137.081 95.1411 138.208 95.9175 139.131 96.9282C140.069 97.939 140.779 99.1621 141.263 100.598C141.761 102.033 142.01 103.645 142.01 105.432V108.442H122.586V103.806H134.781V103.234C134.795 102.443 134.656 101.77 134.363 101.213C134.085 100.656 133.675 100.231 133.133 99.9385C132.591 99.6455 131.932 99.499 131.155 99.499C130.35 99.499 129.683 99.6748 129.156 100.026C128.643 100.378 128.24 100.861 127.947 101.477C127.669 102.077 127.471 102.773 127.354 103.564C127.237 104.355 127.178 105.19 127.178 106.069V106.904C127.178 107.783 127.295 108.581 127.53 109.299C127.779 110.017 128.13 110.632 128.584 111.145C129.053 111.643 129.61 112.031 130.254 112.309C130.914 112.587 131.661 112.727 132.496 112.727C133.506 112.727 134.502 112.536 135.484 112.155C136.465 111.774 137.308 111.145 138.011 110.266L141.373 114.265C140.889 114.953 140.201 115.62 139.307 116.264C138.428 116.909 137.374 117.436 136.143 117.846C134.913 118.242 133.536 118.439 132.012 118.439ZM155.062 112.727C155.75 112.727 156.336 112.602 156.819 112.353C157.317 112.089 157.691 111.723 157.94 111.254C158.204 110.771 158.328 110.192 158.313 109.519H165.279C165.293 111.306 164.854 112.873 163.96 114.221C163.082 115.554 161.88 116.594 160.357 117.341C158.848 118.073 157.142 118.439 155.237 118.439C153.377 118.439 151.751 118.139 150.359 117.539C148.968 116.923 147.803 116.074 146.866 114.99C145.943 113.891 145.247 112.609 144.778 111.145C144.324 109.68 144.097 108.09 144.097 106.376V105.871C144.097 104.157 144.324 102.568 144.778 101.103C145.247 99.6235 145.943 98.3418 146.866 97.2578C147.803 96.1592 148.96 95.3096 150.337 94.709C151.729 94.0938 153.348 93.7861 155.193 93.7861C157.171 93.7861 158.914 94.1597 160.423 94.9067C161.946 95.6538 163.14 96.7378 164.004 98.1587C164.869 99.5796 165.293 101.301 165.279 103.322H158.313C158.328 102.604 158.218 101.96 157.984 101.389C157.75 100.817 157.383 100.363 156.885 100.026C156.402 99.6748 155.779 99.499 155.018 99.499C154.256 99.499 153.641 99.6675 153.172 100.004C152.703 100.341 152.344 100.81 152.095 101.411C151.861 101.997 151.7 102.67 151.612 103.432C151.539 104.194 151.502 105.007 151.502 105.871V106.376C151.502 107.255 151.539 108.083 151.612 108.859C151.7 109.621 151.868 110.295 152.117 110.881C152.366 111.452 152.725 111.906 153.194 112.243C153.663 112.565 154.285 112.727 155.062 112.727ZM175.694 84.25V118H168.289V84.25H175.694ZM174.815 105.3L173.079 105.344C173.079 103.674 173.284 102.136 173.694 100.729C174.104 99.3232 174.69 98.1001 175.452 97.0601C176.214 96.02 177.129 95.2144 178.199 94.6431C179.268 94.0718 180.455 93.7861 181.758 93.7861C182.93 93.7861 184 93.9546 184.966 94.2915C185.948 94.6284 186.79 95.1704 187.493 95.9175C188.211 96.6646 188.76 97.6387 189.141 98.8398C189.537 100.041 189.734 101.506 189.734 103.234V118H182.286V103.19C182.286 102.224 182.146 101.477 181.868 100.949C181.604 100.407 181.224 100.034 180.726 99.8286C180.228 99.6089 179.62 99.499 178.902 99.499C178.038 99.499 177.334 99.6455 176.792 99.9385C176.25 100.231 175.833 100.642 175.54 101.169C175.262 101.682 175.071 102.29 174.969 102.993C174.866 103.696 174.815 104.465 174.815 105.3ZM221.88 109.497C221.88 108.999 221.807 108.552 221.661 108.156C221.514 107.746 221.243 107.365 220.848 107.014C220.452 106.662 219.881 106.311 219.134 105.959C218.401 105.593 217.435 105.212 216.233 104.816C214.827 104.348 213.472 103.82 212.168 103.234C210.865 102.634 209.7 101.938 208.675 101.147C207.649 100.341 206.836 99.4038 206.236 98.3345C205.635 97.2505 205.335 95.9907 205.335 94.5552C205.335 93.1782 205.643 91.9404 206.258 90.8418C206.873 89.7285 207.73 88.7837 208.829 88.0073C209.942 87.2163 211.246 86.6157 212.74 86.2056C214.234 85.7808 215.867 85.5684 217.64 85.5684C219.983 85.5684 222.049 85.9785 223.836 86.7988C225.638 87.6045 227.044 88.7544 228.055 90.2485C229.08 91.728 229.593 93.4785 229.593 95.5H221.924C221.924 94.6943 221.756 93.9839 221.419 93.3687C221.097 92.7534 220.606 92.27 219.947 91.9185C219.288 91.5669 218.46 91.3911 217.464 91.3911C216.497 91.3911 215.684 91.5376 215.025 91.8306C214.366 92.1235 213.868 92.519 213.531 93.0171C213.194 93.5005 213.025 94.0352 213.025 94.6211C213.025 95.1045 213.157 95.5439 213.421 95.9395C213.699 96.3203 214.087 96.6792 214.585 97.0161C215.098 97.353 215.713 97.6753 216.431 97.9829C217.164 98.2905 217.984 98.5908 218.892 98.8838C220.591 99.4258 222.1 100.034 223.418 100.708C224.751 101.367 225.872 102.121 226.78 102.971C227.703 103.806 228.399 104.758 228.868 105.827C229.351 106.896 229.593 108.105 229.593 109.453C229.593 110.888 229.314 112.163 228.758 113.276C228.201 114.389 227.403 115.334 226.363 116.11C225.323 116.872 224.078 117.451 222.627 117.846C221.177 118.242 219.559 118.439 217.771 118.439C216.131 118.439 214.512 118.234 212.916 117.824C211.333 117.399 209.898 116.755 208.609 115.891C207.32 115.012 206.287 113.891 205.511 112.529C204.749 111.152 204.368 109.519 204.368 107.629H212.103C212.103 108.566 212.227 109.357 212.476 110.002C212.725 110.646 213.091 111.167 213.575 111.562C214.058 111.943 214.651 112.221 215.354 112.397C216.058 112.558 216.863 112.639 217.771 112.639C218.753 112.639 219.544 112.5 220.145 112.221C220.745 111.928 221.185 111.547 221.463 111.079C221.741 110.595 221.88 110.068 221.88 109.497ZM245.743 94.2256V99.3672H231.417V94.2256H245.743ZM234.427 88.3149H241.832V110.244C241.832 110.874 241.905 111.364 242.051 111.716C242.198 112.053 242.447 112.294 242.798 112.441C243.165 112.573 243.648 112.639 244.249 112.639C244.673 112.639 245.025 112.631 245.303 112.617C245.582 112.587 245.845 112.551 246.094 112.507V117.802C245.464 118.007 244.805 118.161 244.117 118.264C243.428 118.381 242.696 118.439 241.919 118.439C240.337 118.439 238.982 118.19 237.854 117.692C236.741 117.194 235.892 116.411 235.306 115.341C234.72 114.272 234.427 112.88 234.427 111.167V88.3149ZM261.036 112.023V102.224C261.036 101.55 260.94 100.971 260.75 100.488C260.56 100.004 260.259 99.6309 259.849 99.3672C259.439 99.0889 258.89 98.9497 258.201 98.9497C257.645 98.9497 257.168 99.0449 256.773 99.2354C256.377 99.4258 256.077 99.7114 255.872 100.092C255.667 100.473 255.564 100.957 255.564 101.542H248.16C248.16 100.444 248.401 99.4258 248.885 98.4883C249.383 97.5361 250.086 96.7085 250.994 96.0054C251.917 95.3022 253.016 94.7603 254.29 94.3794C255.579 93.9839 257.015 93.7861 258.597 93.7861C260.486 93.7861 262.171 94.1011 263.65 94.731C265.145 95.3608 266.324 96.3057 267.188 97.5654C268.052 98.8105 268.484 100.378 268.484 102.268V112.001C268.484 113.554 268.572 114.733 268.748 115.539C268.924 116.33 269.173 117.026 269.495 117.626V118H262.068C261.717 117.268 261.453 116.374 261.277 115.319C261.116 114.25 261.036 113.151 261.036 112.023ZM261.937 103.476L261.98 107.431H258.707C258.018 107.431 257.432 107.526 256.949 107.717C256.48 107.907 256.099 108.171 255.806 108.508C255.528 108.83 255.323 109.196 255.191 109.606C255.074 110.017 255.015 110.449 255.015 110.903C255.015 111.342 255.118 111.738 255.323 112.089C255.542 112.426 255.835 112.69 256.202 112.88C256.568 113.071 256.978 113.166 257.432 113.166C258.252 113.166 258.948 113.012 259.52 112.705C260.105 112.382 260.552 111.994 260.86 111.54C261.167 111.086 261.321 110.661 261.321 110.266L262.947 113.298C262.654 113.884 262.317 114.477 261.937 115.078C261.57 115.678 261.109 116.235 260.552 116.748C260.01 117.246 259.344 117.656 258.553 117.978C257.762 118.286 256.802 118.439 255.674 118.439C254.209 118.439 252.862 118.139 251.631 117.539C250.416 116.938 249.441 116.103 248.709 115.034C247.977 113.95 247.61 112.705 247.61 111.298C247.61 110.068 247.83 108.969 248.27 108.002C248.724 107.036 249.405 106.215 250.313 105.542C251.221 104.868 252.378 104.355 253.785 104.003C255.191 103.652 256.846 103.476 258.75 103.476H261.937ZM282.635 112.727C283.323 112.727 283.909 112.602 284.393 112.353C284.891 112.089 285.264 111.723 285.513 111.254C285.777 110.771 285.901 110.192 285.887 109.519H292.852C292.867 111.306 292.427 112.873 291.534 114.221C290.655 115.554 289.454 116.594 287.93 117.341C286.421 118.073 284.715 118.439 282.811 118.439C280.95 118.439 279.324 118.139 277.933 117.539C276.541 116.923 275.376 116.074 274.439 114.99C273.516 113.891 272.82 112.609 272.352 111.145C271.897 109.68 271.67 108.09 271.67 106.376V105.871C271.67 104.157 271.897 102.568 272.352 101.103C272.82 99.6235 273.516 98.3418 274.439 97.2578C275.376 96.1592 276.534 95.3096 277.911 94.709C279.302 94.0938 280.921 93.7861 282.767 93.7861C284.744 93.7861 286.487 94.1597 287.996 94.9067C289.52 95.6538 290.713 96.7378 291.578 98.1587C292.442 99.5796 292.867 101.301 292.852 103.322H285.887C285.901 102.604 285.792 101.96 285.557 101.389C285.323 100.817 284.957 100.363 284.458 100.026C283.975 99.6748 283.353 99.499 282.591 99.499C281.829 99.499 281.214 99.6675 280.745 100.004C280.276 100.341 279.917 100.81 279.668 101.411C279.434 101.997 279.273 102.67 279.185 103.432C279.112 104.194 279.075 105.007 279.075 105.871V106.376C279.075 107.255 279.112 108.083 279.185 108.859C279.273 109.621 279.441 110.295 279.69 110.881C279.939 111.452 280.298 111.906 280.767 112.243C281.236 112.565 281.858 112.727 282.635 112.727ZM303.487 84.228V118H296.082V84.228H303.487ZM318.692 94.2256L308.365 106.333L302.959 111.738L299.729 107.036L304.234 101.169L309.815 94.2256H318.692ZM310.76 118L304.41 107.167L309.881 103.278L319.241 118H310.76Z" fill="#424241"/>
<path d="M1363 15C1363 6.71573 1356.28 0 1348 0H1134V167H1348C1356.28 167 1363 160.284 1363 152V15Z" fill="#009FFF"/>
<path fill-rule="evenodd" clip-rule="evenodd" d="M1218.5 55C1218.37 55 1218.24 55.0527 1218.15 55.1464C1218.05 55.2402 1218 55.3674 1218 55.5V111.5C1218 111.633 1218.05 111.76 1218.15 111.854C1218.24 111.947 1218.37 112 1218.5 112H1278C1278.13 112 1278.26 111.947 1278.35 111.854C1278.45 111.76 1278.5 111.633 1278.5 111.5V66C1278.5 65.8674 1278.45 65.7402 1278.35 65.6464C1278.26 65.5527 1278.13 65.5 1278 65.5H1248.25C1247.36 65.5 1246.52 65.1045 1245.95 64.4206L1238.09 55H1218.5ZM1213.9 50.9038C1215.12 49.6848 1216.78 49 1218.5 49H1239.5C1240.39 49 1241.23 49.3955 1241.8 50.0794L1249.66 59.5H1278C1279.72 59.5 1281.38 60.1848 1282.6 61.4038C1283.82 62.6228 1284.5 64.2761 1284.5 66V111.5C1284.5 113.224 1283.82 114.877 1282.6 116.096C1281.38 117.315 1279.72 118 1278 118H1218.5C1216.78 118 1215.12 117.315 1213.9 116.096C1212.68 114.877 1212 113.224 1212 111.5V55.5C1212 53.7761 1212.68 52.1228 1213.9 50.9038Z" fill="white"/>
<path fill-rule="evenodd" clip-rule="evenodd" d="M1243.72 77.5251C1245.09 78.892 1245.09 81.108 1243.72 82.4749L1237.45 88.75L1243.72 95.0251C1245.09 96.392 1245.09 98.608 1243.72 99.9749C1242.36 101.342 1240.14 101.342 1238.78 99.9749L1230.03 91.2249C1228.66 89.858 1228.66 87.642 1230.03 86.2751L1238.78 77.5251C1240.14 76.1583 1242.36 76.1583 1243.72 77.5251Z" fill="white"/>
<path fill-rule="evenodd" clip-rule="evenodd" d="M1252.03 99.9749C1250.66 98.608 1250.66 96.392 1252.03 95.0251L1258.3 88.75L1252.03 82.4749C1250.66 81.108 1250.66 78.892 1252.03 77.5251C1253.39 76.1583 1255.61 76.1583 1256.97 77.5251L1265.72 86.2751C1267.09 87.642 1267.09 89.858 1265.72 91.2249L1256.97 99.9749C1255.61 101.342 1253.39 101.342 1252.03 99.9749Z" fill="white"/>
</svg>
