<svg width="1363" height="167" viewBox="0 0 1363 167" fill="none" xmlns="http://www.w3.org/2000/svg">
<rect width="1363" height="167" rx="15" fill="#F0F0F0"/>
<path d="M0 15C0 6.71573 6.71573 0 15 0H37V167H15C6.71573 167 0 160.284 0 152V15Z" fill="#424241"/>
<path d="M100.906 50.9219L93.3945 48.2383V45.0859L103.602 49.375V51.6367L100.906 50.9219ZM93.3945 53.1719L100.918 50.4297L103.602 49.7852V52.0352L93.3945 56.3242V53.1719ZM118.543 51.918H114.195V49.1758H118.543C119.215 49.1758 119.762 49.0664 120.184 48.8477C120.605 48.6211 120.914 48.3086 121.109 47.9102C121.305 47.5117 121.402 47.0625 121.402 46.5625C121.402 46.0547 121.305 45.582 121.109 45.1445C120.914 44.707 120.605 44.3555 120.184 44.0898C119.762 43.8242 119.215 43.6914 118.543 43.6914H115.414V58H111.898V40.9375H118.543C119.879 40.9375 121.023 41.1797 121.977 41.6641C122.938 42.1406 123.672 42.8008 124.18 43.6445C124.688 44.4883 124.941 45.4531 124.941 46.5391C124.941 47.6406 124.688 48.5938 124.18 49.3984C123.672 50.2031 122.938 50.8242 121.977 51.2617C121.023 51.6992 119.879 51.918 118.543 51.918ZM130.449 40V58H127.074V40H130.449ZM129.969 51.2148H129.043C129.051 50.332 129.168 49.5195 129.395 48.7773C129.621 48.0273 129.945 47.3789 130.367 46.832C130.789 46.2773 131.293 45.8477 131.879 45.543C132.473 45.2383 133.129 45.0859 133.848 45.0859C134.473 45.0859 135.039 45.1758 135.547 45.3555C136.062 45.5273 136.504 45.8086 136.871 46.1992C137.246 46.582 137.535 47.0859 137.738 47.7109C137.941 48.3359 138.043 49.0938 138.043 49.9844V58H134.645V49.9609C134.645 49.3984 134.562 48.957 134.398 48.6367C134.242 48.3086 134.012 48.0781 133.707 47.9453C133.41 47.8047 133.043 47.7344 132.605 47.7344C132.121 47.7344 131.707 47.8242 131.363 48.0039C131.027 48.1836 130.758 48.4336 130.555 48.7539C130.352 49.0664 130.203 49.4336 130.109 49.8555C130.016 50.2773 129.969 50.7305 129.969 51.2148ZM147.453 55.1406V49.4922C147.453 49.0859 147.387 48.7383 147.254 48.4492C147.121 48.1523 146.914 47.9219 146.633 47.7578C146.359 47.5938 146.004 47.5117 145.566 47.5117C145.191 47.5117 144.867 47.5781 144.594 47.7109C144.32 47.8359 144.109 48.0195 143.961 48.2617C143.812 48.4961 143.738 48.7734 143.738 49.0938H140.363C140.363 48.5547 140.488 48.043 140.738 47.5586C140.988 47.0742 141.352 46.6484 141.828 46.2812C142.305 45.9062 142.871 45.6133 143.527 45.4023C144.191 45.1914 144.934 45.0859 145.754 45.0859C146.738 45.0859 147.613 45.25 148.379 45.5781C149.145 45.9062 149.746 46.3984 150.184 47.0547C150.629 47.7109 150.852 48.5312 150.852 49.5156V54.9414C150.852 55.6367 150.895 56.207 150.98 56.6523C151.066 57.0898 151.191 57.4727 151.355 57.8008V58H147.945C147.781 57.6562 147.656 57.2266 147.57 56.7109C147.492 56.1875 147.453 55.6641 147.453 55.1406ZM147.898 50.2773L147.922 52.1875H146.035C145.59 52.1875 145.203 52.2383 144.875 52.3398C144.547 52.4414 144.277 52.5859 144.066 52.7734C143.855 52.9531 143.699 53.1641 143.598 53.4062C143.504 53.6484 143.457 53.9141 143.457 54.2031C143.457 54.4922 143.523 54.7539 143.656 54.9883C143.789 55.2148 143.98 55.3945 144.23 55.5273C144.48 55.6523 144.773 55.7148 145.109 55.7148C145.617 55.7148 146.059 55.6133 146.434 55.4102C146.809 55.207 147.098 54.957 147.301 54.6602C147.512 54.3633 147.621 54.082 147.629 53.8164L148.52 55.2461C148.395 55.5664 148.223 55.8984 148.004 56.2422C147.793 56.5859 147.523 56.9102 147.195 57.2148C146.867 57.5117 146.473 57.7578 146.012 57.9531C145.551 58.1406 145.004 58.2344 144.371 58.2344C143.566 58.2344 142.836 58.0742 142.18 57.7539C141.531 57.4258 141.016 56.9766 140.633 56.4062C140.258 55.8281 140.07 55.1719 140.07 54.4375C140.07 53.7734 140.195 53.1836 140.445 52.668C140.695 52.1523 141.062 51.7188 141.547 51.3672C142.039 51.0078 142.652 50.7383 143.387 50.5586C144.121 50.3711 144.973 50.2773 145.941 50.2773H147.898ZM156.828 48.0859V58H153.453V45.3203H156.629L156.828 48.0859ZM160.648 45.2383L160.59 48.3672C160.426 48.3438 160.227 48.3242 159.992 48.3086C159.766 48.2852 159.559 48.2734 159.371 48.2734C158.895 48.2734 158.48 48.3359 158.129 48.4609C157.785 48.5781 157.496 48.7539 157.262 48.9883C157.035 49.2227 156.863 49.5078 156.746 49.8438C156.637 50.1797 156.574 50.5625 156.559 50.9922L155.879 50.7812C155.879 49.9609 155.961 49.207 156.125 48.5195C156.289 47.8242 156.527 47.2188 156.84 46.7031C157.16 46.1875 157.551 45.7891 158.012 45.5078C158.473 45.2266 159 45.0859 159.594 45.0859C159.781 45.0859 159.973 45.1016 160.168 45.1328C160.363 45.1562 160.523 45.1914 160.648 45.2383ZM165.617 47.9453V58H162.23V45.3203H165.406L165.617 47.9453ZM165.148 51.2148H164.211C164.211 50.332 164.316 49.5195 164.527 48.7773C164.746 48.0273 165.062 47.3789 165.477 46.832C165.898 46.2773 166.418 45.8477 167.035 45.543C167.652 45.2383 168.367 45.0859 169.18 45.0859C169.742 45.0859 170.258 45.1719 170.727 45.3438C171.195 45.5078 171.598 45.7695 171.934 46.1289C172.277 46.4805 172.543 46.9414 172.73 47.5117C172.918 48.0742 173.012 48.75 173.012 49.5391V58H169.637V49.9141C169.637 49.3359 169.559 48.8906 169.402 48.5781C169.246 48.2656 169.023 48.0469 168.734 47.9219C168.453 47.7969 168.113 47.7344 167.715 47.7344C167.277 47.7344 166.895 47.8242 166.566 48.0039C166.246 48.1836 165.98 48.4336 165.77 48.7539C165.559 49.0664 165.402 49.4336 165.301 49.8555C165.199 50.2773 165.148 50.7305 165.148 51.2148ZM172.695 50.8281L171.488 50.9805C171.488 50.1523 171.59 49.3828 171.793 48.6719C172.004 47.9609 172.312 47.3359 172.719 46.7969C173.133 46.2578 173.645 45.8398 174.254 45.543C174.863 45.2383 175.566 45.0859 176.363 45.0859C176.973 45.0859 177.527 45.1758 178.027 45.3555C178.527 45.5273 178.953 45.8047 179.305 46.1875C179.664 46.5625 179.938 47.0547 180.125 47.6641C180.32 48.2734 180.418 49.0195 180.418 49.9023V58H177.031V49.9023C177.031 49.3164 176.953 48.8711 176.797 48.5664C176.648 48.2539 176.43 48.0391 176.141 47.9219C175.859 47.7969 175.523 47.7344 175.133 47.7344C174.727 47.7344 174.371 47.8164 174.066 47.9805C173.762 48.1367 173.508 48.3555 173.305 48.6367C173.102 48.918 172.949 49.2461 172.848 49.6211C172.746 49.9883 172.695 50.3906 172.695 50.8281ZM189.875 55.1406V49.4922C189.875 49.0859 189.809 48.7383 189.676 48.4492C189.543 48.1523 189.336 47.9219 189.055 47.7578C188.781 47.5938 188.426 47.5117 187.988 47.5117C187.613 47.5117 187.289 47.5781 187.016 47.7109C186.742 47.8359 186.531 48.0195 186.383 48.2617C186.234 48.4961 186.16 48.7734 186.16 49.0938H182.785C182.785 48.5547 182.91 48.043 183.16 47.5586C183.41 47.0742 183.773 46.6484 184.25 46.2812C184.727 45.9062 185.293 45.6133 185.949 45.4023C186.613 45.1914 187.355 45.0859 188.176 45.0859C189.16 45.0859 190.035 45.25 190.801 45.5781C191.566 45.9062 192.168 46.3984 192.605 47.0547C193.051 47.7109 193.273 48.5312 193.273 49.5156V54.9414C193.273 55.6367 193.316 56.207 193.402 56.6523C193.488 57.0898 193.613 57.4727 193.777 57.8008V58H190.367C190.203 57.6562 190.078 57.2266 189.992 56.7109C189.914 56.1875 189.875 55.6641 189.875 55.1406ZM190.32 50.2773L190.344 52.1875H188.457C188.012 52.1875 187.625 52.2383 187.297 52.3398C186.969 52.4414 186.699 52.5859 186.488 52.7734C186.277 52.9531 186.121 53.1641 186.02 53.4062C185.926 53.6484 185.879 53.9141 185.879 54.2031C185.879 54.4922 185.945 54.7539 186.078 54.9883C186.211 55.2148 186.402 55.3945 186.652 55.5273C186.902 55.6523 187.195 55.7148 187.531 55.7148C188.039 55.7148 188.48 55.6133 188.855 55.4102C189.23 55.207 189.52 54.957 189.723 54.6602C189.934 54.3633 190.043 54.082 190.051 53.8164L190.941 55.2461C190.816 55.5664 190.645 55.8984 190.426 56.2422C190.215 56.5859 189.945 56.9102 189.617 57.2148C189.289 57.5117 188.895 57.7578 188.434 57.9531C187.973 58.1406 187.426 58.2344 186.793 58.2344C185.988 58.2344 185.258 58.0742 184.602 57.7539C183.953 57.4258 183.438 56.9766 183.055 56.4062C182.68 55.8281 182.492 55.1719 182.492 54.4375C182.492 53.7734 182.617 53.1836 182.867 52.668C183.117 52.1523 183.484 51.7188 183.969 51.3672C184.461 51.0078 185.074 50.7383 185.809 50.5586C186.543 50.3711 187.395 50.2773 188.363 50.2773H190.32ZM207.055 55.2578V58H198.465V55.2578H207.055ZM199.602 40.9375V58H196.086V40.9375H199.602ZM214.695 58.2344C213.711 58.2344 212.828 58.0781 212.047 57.7656C211.266 57.4453 210.602 57.0039 210.055 56.4414C209.516 55.8789 209.102 55.2266 208.812 54.4844C208.523 53.7344 208.379 52.9375 208.379 52.0938V51.625C208.379 50.6641 208.516 49.7852 208.789 48.9883C209.062 48.1914 209.453 47.5 209.961 46.9141C210.477 46.3281 211.102 45.8789 211.836 45.5664C212.57 45.2461 213.398 45.0859 214.32 45.0859C215.219 45.0859 216.016 45.2344 216.711 45.5312C217.406 45.8281 217.988 46.25 218.457 46.7969C218.934 47.3438 219.293 48 219.535 48.7656C219.777 49.5234 219.898 50.3672 219.898 51.2969V52.7031H209.82V50.4531H216.582V50.1953C216.582 49.7266 216.496 49.3086 216.324 48.9414C216.16 48.5664 215.91 48.2695 215.574 48.0508C215.238 47.832 214.809 47.7227 214.285 47.7227C213.84 47.7227 213.457 47.8203 213.137 48.0156C212.816 48.2109 212.555 48.4844 212.352 48.8359C212.156 49.1875 212.008 49.6016 211.906 50.0781C211.812 50.5469 211.766 51.0625 211.766 51.625V52.0938C211.766 52.6016 211.836 53.0703 211.977 53.5C212.125 53.9297 212.332 54.3008 212.598 54.6133C212.871 54.9258 213.199 55.168 213.582 55.3398C213.973 55.5117 214.414 55.5977 214.906 55.5977C215.516 55.5977 216.082 55.4805 216.605 55.2461C217.137 55.0039 217.594 54.6406 217.977 54.1562L219.617 55.9375C219.352 56.3203 218.988 56.6875 218.527 57.0391C218.074 57.3906 217.527 57.6797 216.887 57.9062C216.246 58.125 215.516 58.2344 214.695 58.2344ZM221.82 40H225.195V55.0938L224.855 58H221.82V40ZM233.223 51.5312V51.7773C233.223 52.7227 233.121 53.5898 232.918 54.3789C232.723 55.168 232.418 55.8516 232.004 56.4297C231.59 57 231.074 57.4453 230.457 57.7656C229.848 58.0781 229.129 58.2344 228.301 58.2344C227.527 58.2344 226.855 58.0781 226.285 57.7656C225.723 57.4531 225.25 57.0117 224.867 56.4414C224.484 55.8711 224.176 55.2031 223.941 54.4375C223.707 53.6719 223.531 52.8359 223.414 51.9297V51.3906C223.531 50.4844 223.707 49.6484 223.941 48.8828C224.176 48.1172 224.484 47.4492 224.867 46.8789C225.25 46.3086 225.723 45.8672 226.285 45.5547C226.848 45.2422 227.512 45.0859 228.277 45.0859C229.113 45.0859 229.84 45.2461 230.457 45.5664C231.082 45.8789 231.598 46.3242 232.004 46.9023C232.418 47.4727 232.723 48.1523 232.918 48.9414C233.121 49.7227 233.223 50.5859 233.223 51.5312ZM229.848 51.7773V51.5312C229.848 51.0156 229.809 50.5312 229.73 50.0781C229.66 49.6172 229.535 49.2148 229.355 48.8711C229.176 48.5195 228.93 48.2422 228.617 48.0391C228.312 47.8359 227.918 47.7344 227.434 47.7344C226.973 47.7344 226.582 47.8125 226.262 47.9688C225.941 48.125 225.676 48.3438 225.465 48.625C225.262 48.9062 225.109 49.2422 225.008 49.6328C224.906 50.0156 224.844 50.4375 224.82 50.8984V52.4336C224.844 53.0508 224.945 53.5977 225.125 54.0742C225.312 54.543 225.594 54.9141 225.969 55.1875C226.352 55.4531 226.848 55.5859 227.457 55.5859C227.934 55.5859 228.328 55.4922 228.641 55.3047C228.953 55.1172 229.195 54.8516 229.367 54.5078C229.547 54.1641 229.672 53.7617 229.742 53.3008C229.812 52.832 229.848 52.3242 229.848 51.7773Z" fill="#888888"/>
<path d="M115.994 98.708V104.641H99.5806V98.708H115.994ZM102.151 86.0078V118H94.439V86.0078H102.151ZM121.18 86.0078V118H113.489V86.0078H121.18ZM124.805 106.354V105.893C124.805 104.15 125.054 102.546 125.552 101.081C126.05 99.6016 126.783 98.3198 127.75 97.2358C128.716 96.1519 129.91 95.3096 131.331 94.709C132.752 94.0938 134.393 93.7861 136.253 93.7861C138.128 93.7861 139.776 94.0938 141.197 94.709C142.632 95.3096 143.833 96.1519 144.8 97.2358C145.767 98.3198 146.5 99.6016 146.998 101.081C147.496 102.546 147.745 104.15 147.745 105.893V106.354C147.745 108.083 147.496 109.687 146.998 111.167C146.5 112.631 145.767 113.913 144.8 115.012C143.833 116.096 142.64 116.938 141.219 117.539C139.798 118.139 138.157 118.439 136.297 118.439C134.437 118.439 132.789 118.139 131.353 117.539C129.917 116.938 128.716 116.096 127.75 115.012C126.783 113.913 126.05 112.631 125.552 111.167C125.054 109.687 124.805 108.083 124.805 106.354ZM132.21 105.893V106.354C132.21 107.248 132.276 108.083 132.408 108.859C132.54 109.636 132.759 110.317 133.067 110.903C133.375 111.474 133.792 111.921 134.319 112.243C134.847 112.565 135.506 112.727 136.297 112.727C137.073 112.727 137.718 112.565 138.23 112.243C138.758 111.921 139.175 111.474 139.483 110.903C139.791 110.317 140.01 109.636 140.142 108.859C140.274 108.083 140.34 107.248 140.34 106.354V105.893C140.34 105.029 140.274 104.216 140.142 103.454C140.01 102.678 139.791 101.997 139.483 101.411C139.175 100.81 138.758 100.341 138.23 100.004C137.703 99.6675 137.044 99.499 136.253 99.499C135.477 99.499 134.825 99.6675 134.297 100.004C133.785 100.341 133.375 100.81 133.067 101.411C132.759 101.997 132.54 102.678 132.408 103.454C132.276 104.216 132.21 105.029 132.21 105.893ZM158.27 110.925L162.664 94.2256H167.3L165.652 102.597L161.302 118H157.588L158.27 110.925ZM156.534 94.2256L159.258 110.793L159.566 118H155.062L149.437 94.2256H156.534ZM171.211 110.441L173.958 94.2256H181.055L175.474 118H170.97L171.211 110.441ZM167.828 94.2256L172.266 110.881L172.947 118H169.19L164.927 102.641L163.345 94.2256H167.828ZM209.466 86.0078V118H201.753V86.0078H209.466ZM219.09 86.0078V91.9624H192.349V86.0078H219.09ZM216.475 106.354V105.893C216.475 104.15 216.724 102.546 217.222 101.081C217.72 99.6016 218.453 98.3198 219.419 97.2358C220.386 96.1519 221.58 95.3096 223.001 94.709C224.422 94.0938 226.062 93.7861 227.923 93.7861C229.798 93.7861 231.446 94.0938 232.867 94.709C234.302 95.3096 235.503 96.1519 236.47 97.2358C237.437 98.3198 238.169 99.6016 238.667 101.081C239.166 102.546 239.415 104.15 239.415 105.893V106.354C239.415 108.083 239.166 109.687 238.667 111.167C238.169 112.631 237.437 113.913 236.47 115.012C235.503 116.096 234.31 116.938 232.889 117.539C231.468 118.139 229.827 118.439 227.967 118.439C226.106 118.439 224.458 118.139 223.023 117.539C221.587 116.938 220.386 116.096 219.419 115.012C218.453 113.913 217.72 112.631 217.222 111.167C216.724 109.687 216.475 108.083 216.475 106.354ZM223.88 105.893V106.354C223.88 107.248 223.946 108.083 224.078 108.859C224.209 109.636 224.429 110.317 224.737 110.903C225.044 111.474 225.462 111.921 225.989 112.243C226.517 112.565 227.176 112.727 227.967 112.727C228.743 112.727 229.388 112.565 229.9 112.243C230.428 111.921 230.845 111.474 231.153 110.903C231.46 110.317 231.68 109.636 231.812 108.859C231.944 108.083 232.01 107.248 232.01 106.354V105.893C232.01 105.029 231.944 104.216 231.812 103.454C231.68 102.678 231.46 101.997 231.153 101.411C230.845 100.81 230.428 100.341 229.9 100.004C229.373 99.6675 228.714 99.499 227.923 99.499C227.146 99.499 226.495 99.6675 225.967 100.004C225.455 100.341 225.044 100.81 224.737 101.411C224.429 101.997 224.209 102.678 224.078 103.454C223.946 104.216 223.88 105.029 223.88 105.893ZM254.268 86.0078H266.858C269.319 86.0078 271.458 86.374 273.274 87.1064C275.091 87.8389 276.49 88.9229 277.471 90.3584C278.467 91.7939 278.965 93.5664 278.965 95.6758C278.965 97.5068 278.68 99.0376 278.108 100.268C277.537 101.499 276.739 102.517 275.713 103.322C274.703 104.113 273.523 104.765 272.176 105.278L269.649 106.706H259.08L259.036 100.751H266.858C267.84 100.751 268.653 100.576 269.297 100.224C269.942 99.8726 270.425 99.3745 270.748 98.73C271.084 98.0708 271.253 97.2871 271.253 96.3789C271.253 95.4561 271.084 94.665 270.748 94.0059C270.411 93.3467 269.913 92.8413 269.253 92.4897C268.609 92.1382 267.811 91.9624 266.858 91.9624H261.98V118H254.268V86.0078ZM271.78 118L264.705 103.85L272.879 103.806L280.042 117.67V118H271.78ZM297.159 112.221V94.2256H304.585V118H297.642L297.159 112.221ZM297.862 107.387L299.795 107.343C299.795 108.94 299.605 110.419 299.224 111.782C298.843 113.129 298.279 114.301 297.532 115.297C296.8 116.293 295.892 117.07 294.808 117.626C293.738 118.168 292.5 118.439 291.094 118.439C289.922 118.439 288.846 118.278 287.864 117.956C286.897 117.619 286.062 117.099 285.359 116.396C284.656 115.678 284.107 114.763 283.711 113.649C283.331 112.521 283.14 111.174 283.14 109.606V94.2256H290.545V109.65C290.545 110.178 290.611 110.632 290.743 111.013C290.875 111.394 291.065 111.716 291.314 111.979C291.563 112.229 291.871 112.419 292.237 112.551C292.618 112.668 293.05 112.727 293.533 112.727C294.646 112.727 295.518 112.492 296.148 112.023C296.778 111.555 297.217 110.917 297.466 110.112C297.73 109.306 297.862 108.398 297.862 107.387ZM315.945 99.3013V118H308.541V94.2256H315.484L315.945 99.3013ZM315.066 105.3L313.331 105.344C313.331 103.527 313.55 101.909 313.99 100.488C314.429 99.0522 315.052 97.8364 315.857 96.8403C316.663 95.8442 317.623 95.0898 318.736 94.5771C319.864 94.0498 321.116 93.7861 322.493 93.7861C323.592 93.7861 324.595 93.9473 325.503 94.2695C326.426 94.5918 327.217 95.1118 327.876 95.8296C328.55 96.5474 329.063 97.4995 329.415 98.686C329.781 99.8579 329.964 101.308 329.964 103.037V118H322.515V103.015C322.515 102.062 322.383 101.337 322.12 100.839C321.856 100.327 321.475 99.9751 320.977 99.7847C320.479 99.5942 319.871 99.499 319.153 99.499C318.392 99.499 317.747 99.6455 317.22 99.9385C316.692 100.231 316.268 100.642 315.945 101.169C315.638 101.682 315.411 102.29 315.264 102.993C315.132 103.696 315.066 104.465 315.066 105.3ZM345.85 107.871H339.544C339.544 106.582 339.632 105.446 339.808 104.465C339.998 103.469 340.32 102.575 340.774 101.784C341.229 100.993 341.844 100.261 342.62 99.5869C343.309 99.0156 343.902 98.4663 344.4 97.939C344.898 97.4116 345.279 96.877 345.542 96.335C345.806 95.793 345.938 95.2144 345.938 94.5991C345.938 93.8374 345.828 93.2148 345.608 92.7314C345.403 92.248 345.088 91.8892 344.664 91.6548C344.253 91.4058 343.733 91.2812 343.104 91.2812C342.591 91.2812 342.107 91.4058 341.653 91.6548C341.214 91.9038 340.855 92.292 340.577 92.8193C340.298 93.332 340.145 94.0132 340.115 94.8628H332.667C332.71 92.6802 333.194 90.9077 334.117 89.5454C335.054 88.1685 336.299 87.165 337.852 86.5352C339.419 85.8906 341.17 85.5684 343.104 85.5684C345.242 85.5684 347.081 85.8979 348.619 86.5571C350.157 87.2163 351.336 88.1978 352.156 89.5015C352.977 90.7905 353.387 92.3799 353.387 94.2695C353.387 95.5293 353.145 96.6279 352.662 97.5654C352.193 98.4883 351.556 99.3525 350.75 100.158C349.959 100.949 349.073 101.799 348.091 102.707C347.242 103.454 346.663 104.216 346.355 104.992C346.048 105.754 345.879 106.713 345.85 107.871ZM338.643 114.55C338.643 113.496 339.024 112.617 339.786 111.914C340.547 111.196 341.536 110.837 342.752 110.837C343.968 110.837 344.957 111.196 345.718 111.914C346.48 112.617 346.861 113.496 346.861 114.55C346.861 115.605 346.48 116.491 345.718 117.209C344.957 117.912 343.968 118.264 342.752 118.264C341.536 118.264 340.547 117.912 339.786 117.209C339.024 116.491 338.643 115.605 338.643 114.55Z" fill="#424241"/>
<path d="M1363 15C1363 6.71573 1356.28 0 1348 0H1134V167H1348C1356.28 167 1363 160.284 1363 152V15Z" fill="#009FFF"/>
<path d="M1260.77 81.3079C1263.96 81.3079 1267.09 82.2553 1269.74 84.0303C1272.4 85.8053 1274.47 88.3282 1275.69 91.2799C1276.92 94.2316 1277.24 97.4796 1276.61 100.613C1275.99 103.747 1274.45 106.625 1272.19 108.884C1269.93 111.143 1267.05 112.682 1263.92 113.305C1260.79 113.928 1257.54 113.608 1254.59 112.386C1251.64 111.163 1249.11 109.093 1247.34 106.436C1245.56 103.78 1244.62 100.657 1244.62 97.4617C1244.62 93.1774 1246.32 89.0686 1249.35 86.0392C1252.38 83.0098 1256.48 81.3079 1260.77 81.3079V81.3079ZM1260.77 75.9233C1256.51 75.9233 1252.35 77.1865 1248.8 79.5532C1245.26 81.9198 1242.5 85.2837 1240.87 89.2193C1239.24 93.1549 1238.81 97.4856 1239.64 101.664C1240.48 105.842 1242.53 109.679 1245.54 112.692C1248.55 115.704 1252.39 117.755 1256.57 118.586C1260.75 119.417 1265.08 118.991 1269.01 117.361C1272.95 115.73 1276.31 112.97 1278.68 109.428C1281.04 105.886 1282.31 101.722 1282.31 97.4617C1282.31 91.7493 1280.04 86.271 1276 82.2317C1271.96 78.1925 1266.48 75.9233 1260.77 75.9233Z" fill="white"/>
<path d="M1274.23 49H1220.38C1218.96 49 1217.59 49.5673 1216.58 50.5771C1215.57 51.5869 1215 52.9565 1215 54.3846V108.231C1215 109.659 1215.57 111.028 1216.58 112.038C1217.59 113.048 1218.96 113.615 1220.38 113.615H1231.15V108.231H1220.38V70.5384H1279.62V54.3846C1279.62 52.9565 1279.05 51.5869 1278.04 50.5771C1277.03 49.5673 1275.66 49 1274.23 49V49ZM1220.38 65.1538V54.3846H1274.23V65.1538H1220.38Z" fill="white"/>
<path d="M1255.38 89.3849V105.539L1268.85 97.4618L1255.38 89.3849Z" fill="white"/>
</svg>
