<svg width="1363" height="301" viewBox="0 0 1363 301" fill="none" xmlns="http://www.w3.org/2000/svg">
<rect width="1363" height="301" rx="15" fill="#F0F0F0"/>
<path d="M0 15C0 6.71573 6.71573 0 15 0H37V301H15C6.71573 301 0 294.284 0 286V15Z" fill="#009FFF"/>
<path d="M110.584 130.733H100.862V123.456H110.584C111.909 123.456 112.983 123.232 113.807 122.784C114.63 122.337 115.23 121.719 115.606 120.931C116 120.125 116.197 119.221 116.197 118.219C116.197 117.145 116 116.151 115.606 115.238C115.23 114.325 114.63 113.591 113.807 113.036C112.983 112.463 111.909 112.176 110.584 112.176H104.407V144H94.981V104.898H110.584C113.717 104.898 116.412 105.471 118.667 106.617C120.941 107.763 122.687 109.339 123.904 111.344C125.122 113.331 125.73 115.605 125.73 118.165C125.73 120.689 125.122 122.892 123.904 124.771C122.687 126.651 120.941 128.119 118.667 129.176C116.412 130.214 113.717 130.733 110.584 130.733ZM139.239 102.75V144H130.188V102.75H139.239ZM138.165 128.478L136.043 128.531C136.043 126.49 136.294 124.61 136.795 122.892C137.296 121.173 138.012 119.678 138.943 118.407C139.874 117.136 140.993 116.151 142.3 115.453C143.607 114.754 145.057 114.405 146.651 114.405C148.083 114.405 149.39 114.611 150.572 115.023C151.771 115.435 152.801 116.097 153.66 117.01C154.537 117.923 155.209 119.114 155.674 120.582C156.158 122.05 156.399 123.84 156.399 125.953V144H147.295V125.899C147.295 124.718 147.125 123.805 146.785 123.16C146.463 122.498 145.997 122.041 145.389 121.791C144.78 121.522 144.037 121.388 143.16 121.388C142.103 121.388 141.244 121.567 140.582 121.925C139.919 122.283 139.409 122.784 139.051 123.429C138.711 124.055 138.478 124.798 138.353 125.658C138.227 126.517 138.165 127.457 138.165 128.478ZM176.514 136.695V124.718C176.514 123.894 176.398 123.187 176.165 122.596C175.932 122.005 175.565 121.549 175.064 121.227C174.563 120.886 173.891 120.716 173.05 120.716C172.369 120.716 171.788 120.833 171.304 121.065C170.821 121.298 170.454 121.647 170.203 122.113C169.952 122.578 169.827 123.169 169.827 123.885H160.777C160.777 122.542 161.072 121.298 161.663 120.152C162.272 118.989 163.131 117.977 164.241 117.118C165.369 116.258 166.712 115.596 168.27 115.13C169.845 114.647 171.6 114.405 173.533 114.405C175.843 114.405 177.902 114.79 179.71 115.56C181.536 116.33 182.977 117.485 184.034 119.024C185.09 120.546 185.618 122.462 185.618 124.771V136.668C185.618 138.566 185.726 140.007 185.94 140.992C186.155 141.959 186.46 142.809 186.854 143.543V144H177.776C177.347 143.105 177.024 142.013 176.81 140.724C176.613 139.417 176.514 138.074 176.514 136.695ZM177.615 126.249L177.669 131.083H173.667C172.826 131.083 172.11 131.199 171.519 131.432C170.946 131.664 170.481 131.987 170.123 132.398C169.782 132.792 169.532 133.24 169.371 133.741C169.227 134.243 169.156 134.771 169.156 135.326C169.156 135.863 169.281 136.346 169.532 136.776C169.8 137.188 170.158 137.51 170.606 137.743C171.054 137.975 171.555 138.092 172.11 138.092C173.112 138.092 173.963 137.904 174.661 137.528C175.377 137.134 175.923 136.66 176.299 136.104C176.675 135.549 176.863 135.03 176.863 134.547L178.851 138.253C178.493 138.969 178.081 139.694 177.615 140.428C177.168 141.162 176.604 141.843 175.923 142.469C175.261 143.078 174.446 143.579 173.479 143.973C172.513 144.349 171.34 144.537 169.961 144.537C168.171 144.537 166.524 144.17 165.02 143.436C163.534 142.702 162.343 141.681 161.448 140.375C160.553 139.05 160.105 137.528 160.105 135.809C160.105 134.305 160.374 132.962 160.911 131.781C161.466 130.599 162.299 129.597 163.409 128.773C164.519 127.949 165.933 127.323 167.652 126.893C169.371 126.463 171.394 126.249 173.721 126.249H177.615ZM199.771 122.14V144H190.721V114.942H199.18L199.771 122.14ZM208.365 114.728L208.204 123.133C207.846 123.097 207.362 123.053 206.753 122.999C206.145 122.945 205.634 122.918 205.223 122.918C204.166 122.918 203.253 123.044 202.483 123.294C201.731 123.527 201.105 123.885 200.604 124.369C200.12 124.834 199.762 125.425 199.529 126.141C199.314 126.857 199.216 127.69 199.234 128.639L197.596 127.564C197.596 125.613 197.784 123.84 198.16 122.247C198.554 120.636 199.109 119.248 199.825 118.084C200.541 116.903 201.409 115.999 202.43 115.372C203.45 114.728 204.596 114.405 205.867 114.405C206.315 114.405 206.753 114.432 207.183 114.486C207.631 114.54 208.025 114.62 208.365 114.728ZM220.611 121.092V144H211.561V114.942H220.047L220.611 121.092ZM219.51 128.478L217.442 128.531C217.442 126.49 217.684 124.61 218.167 122.892C218.65 121.173 219.367 119.678 220.315 118.407C221.264 117.136 222.428 116.151 223.807 115.453C225.203 114.754 226.814 114.405 228.641 114.405C229.912 114.405 231.067 114.602 232.105 114.996C233.143 115.372 234.039 115.972 234.791 116.795C235.542 117.601 236.115 118.657 236.509 119.964C236.921 121.253 237.127 122.802 237.127 124.61V144H228.077V125.765C228.077 124.53 227.933 123.599 227.647 122.972C227.378 122.346 226.985 121.925 226.465 121.71C225.946 121.495 225.311 121.388 224.559 121.388C223.771 121.388 223.064 121.567 222.437 121.925C221.81 122.283 221.273 122.784 220.826 123.429C220.396 124.055 220.065 124.798 219.832 125.658C219.617 126.517 219.51 127.457 219.51 128.478ZM236.106 128.478L233.582 128.531C233.582 126.49 233.806 124.61 234.253 122.892C234.719 121.173 235.408 119.678 236.321 118.407C237.252 117.136 238.407 116.151 239.786 115.453C241.164 114.754 242.767 114.405 244.593 114.405C245.918 114.405 247.135 114.602 248.245 114.996C249.355 115.39 250.313 116.026 251.119 116.903C251.924 117.78 252.551 118.944 252.999 120.394C253.446 121.826 253.67 123.599 253.67 125.711V144H244.593V125.711C244.593 124.512 244.45 123.608 244.163 122.999C243.895 122.372 243.501 121.952 242.981 121.737C242.462 121.504 241.845 121.388 241.128 121.388C240.269 121.388 239.526 121.567 238.899 121.925C238.273 122.283 237.745 122.784 237.315 123.429C236.903 124.055 236.599 124.798 236.402 125.658C236.205 126.517 236.106 127.457 236.106 128.478ZM273.946 136.695V124.718C273.946 123.894 273.829 123.187 273.597 122.596C273.364 122.005 272.997 121.549 272.496 121.227C271.994 120.886 271.323 120.716 270.481 120.716C269.801 120.716 269.219 120.833 268.736 121.065C268.252 121.298 267.885 121.647 267.635 122.113C267.384 122.578 267.259 123.169 267.259 123.885H258.208C258.208 122.542 258.504 121.298 259.095 120.152C259.703 118.989 260.563 117.977 261.673 117.118C262.801 116.258 264.144 115.596 265.701 115.13C267.277 114.647 269.031 114.405 270.965 114.405C273.274 114.405 275.333 114.79 277.142 115.56C278.968 116.33 280.409 117.485 281.465 119.024C282.522 120.546 283.05 122.462 283.05 124.771V136.668C283.05 138.566 283.157 140.007 283.372 140.992C283.587 141.959 283.891 142.809 284.285 143.543V144H275.208C274.778 143.105 274.456 142.013 274.241 140.724C274.044 139.417 273.946 138.074 273.946 136.695ZM275.047 126.249L275.101 131.083H271.099C270.258 131.083 269.542 131.199 268.951 131.432C268.378 131.664 267.912 131.987 267.554 132.398C267.214 132.792 266.963 133.24 266.802 133.741C266.659 134.243 266.587 134.771 266.587 135.326C266.587 135.863 266.713 136.346 266.963 136.776C267.232 137.188 267.59 137.51 268.038 137.743C268.485 137.975 268.986 138.092 269.542 138.092C270.544 138.092 271.395 137.904 272.093 137.528C272.809 137.134 273.355 136.66 273.731 136.104C274.107 135.549 274.295 135.03 274.295 134.547L276.282 138.253C275.924 138.969 275.512 139.694 275.047 140.428C274.599 141.162 274.035 141.843 273.355 142.469C272.693 143.078 271.878 143.579 270.911 143.973C269.944 144.349 268.772 144.537 267.393 144.537C265.603 144.537 263.956 144.17 262.452 143.436C260.966 142.702 259.775 141.681 258.88 140.375C257.985 139.05 257.537 137.528 257.537 135.809C257.537 134.305 257.806 132.962 258.343 131.781C258.898 130.599 259.73 129.597 260.84 128.773C261.95 127.949 263.365 127.323 265.083 126.893C266.802 126.463 268.825 126.249 271.153 126.249H275.047ZM314.336 136.749V144H294.571V136.749H314.336ZM297.928 104.898V144H288.501V104.898H297.928ZM331.954 144.537C329.59 144.537 327.478 144.17 325.616 143.436C323.754 142.684 322.178 141.655 320.889 140.348C319.618 139.041 318.642 137.537 317.962 135.836C317.299 134.135 316.968 132.336 316.968 130.438V129.417C316.968 127.287 317.264 125.318 317.854 123.509C318.445 121.683 319.323 120.09 320.486 118.729C321.65 117.368 323.109 116.312 324.864 115.56C326.618 114.79 328.659 114.405 330.987 114.405C333.046 114.405 334.89 114.736 336.519 115.399C338.148 116.061 339.527 117.01 340.655 118.246C341.801 119.481 342.669 120.976 343.26 122.73C343.868 124.485 344.173 126.454 344.173 128.639V132.318H320.433V126.651H335.337V125.953C335.355 124.986 335.185 124.163 334.827 123.482C334.487 122.802 333.986 122.283 333.323 121.925C332.661 121.567 331.855 121.388 330.906 121.388C329.922 121.388 329.107 121.603 328.462 122.032C327.836 122.462 327.343 123.053 326.985 123.805C326.645 124.539 326.403 125.389 326.26 126.356C326.117 127.323 326.045 128.343 326.045 129.417V130.438C326.045 131.512 326.189 132.488 326.475 133.365C326.779 134.243 327.209 134.994 327.764 135.621C328.337 136.23 329.017 136.704 329.805 137.044C330.611 137.385 331.524 137.555 332.544 137.555C333.78 137.555 334.997 137.322 336.197 136.856C337.396 136.391 338.426 135.621 339.285 134.547L343.394 139.435C342.803 140.276 341.962 141.091 340.87 141.878C339.795 142.666 338.506 143.311 337.002 143.812C335.499 144.295 333.816 144.537 331.954 144.537ZM347.933 102.75H356.983V136.856L356.043 144H347.933V102.75ZM374.815 129.149V129.713C374.815 131.915 374.591 133.92 374.144 135.729C373.696 137.537 373.007 139.103 372.076 140.428C371.145 141.735 369.972 142.747 368.558 143.463C367.143 144.179 365.469 144.537 363.536 144.537C361.781 144.537 360.277 144.161 359.024 143.409C357.771 142.639 356.723 141.583 355.882 140.24C355.04 138.88 354.36 137.313 353.841 135.541C353.322 133.75 352.91 131.834 352.605 129.793V129.122C352.91 127.099 353.322 125.201 353.841 123.429C354.36 121.638 355.04 120.072 355.882 118.729C356.723 117.368 357.762 116.312 358.997 115.56C360.25 114.79 361.745 114.405 363.482 114.405C365.433 114.405 367.116 114.772 368.531 115.506C369.963 116.24 371.145 117.27 372.076 118.595C373.007 119.92 373.696 121.477 374.144 123.268C374.591 125.058 374.815 127.018 374.815 129.149ZM365.765 129.713V129.149C365.765 128.093 365.702 127.099 365.577 126.168C365.451 125.237 365.228 124.413 364.905 123.697C364.583 122.981 364.126 122.417 363.536 122.005C362.945 121.594 362.175 121.388 361.226 121.388C360.259 121.388 359.445 121.549 358.782 121.871C358.138 122.193 357.618 122.659 357.225 123.268C356.849 123.858 356.58 124.592 356.419 125.47C356.258 126.329 356.186 127.305 356.204 128.397V130.519C356.168 132.005 356.303 133.276 356.607 134.332C356.911 135.388 357.439 136.194 358.191 136.749C358.943 137.304 359.973 137.582 361.28 137.582C362.247 137.582 363.025 137.394 363.616 137.018C364.225 136.642 364.681 136.104 364.986 135.406C365.29 134.708 365.496 133.875 365.604 132.909C365.711 131.942 365.765 130.877 365.765 129.713Z" fill="black"/>
<path d="M112.217 76.001V80H94.5806V76.001H112.217ZM111.961 57.9712L96.8535 80H93.2476V77.0605L108.475 55.1172H111.961V57.9712ZM110.201 55.1172V59.1333H93.2646V55.1172H110.201ZM125.154 75.8301V67.5928C125.154 67.0003 125.057 66.4933 124.864 66.0718C124.67 65.6388 124.368 65.3027 123.958 65.0635C123.559 64.8242 123.041 64.7046 122.403 64.7046C121.856 64.7046 121.383 64.8014 120.984 64.9951C120.586 65.1774 120.278 65.4451 120.062 65.7983C119.845 66.1401 119.737 66.5446 119.737 67.0117H114.815C114.815 66.2256 114.997 65.4793 115.362 64.7729C115.726 64.0666 116.256 63.4456 116.951 62.9102C117.646 62.3633 118.472 61.936 119.429 61.6284C120.398 61.3208 121.48 61.167 122.676 61.167C124.112 61.167 125.388 61.4062 126.504 61.8848C127.621 62.3633 128.498 63.0811 129.136 64.0381C129.786 64.9951 130.11 66.1914 130.11 67.627V75.5396C130.11 76.5535 130.173 77.3853 130.298 78.0347C130.424 78.6727 130.606 79.231 130.845 79.7095V80H125.872C125.633 79.4987 125.451 78.8721 125.325 78.1201C125.211 77.3568 125.154 76.5934 125.154 75.8301ZM125.804 68.7378L125.838 71.5234H123.086C122.437 71.5234 121.873 71.5975 121.395 71.7456C120.916 71.8937 120.523 72.1045 120.215 72.3779C119.908 72.64 119.68 72.9476 119.532 73.3008C119.395 73.654 119.327 74.0413 119.327 74.4629C119.327 74.8844 119.424 75.2661 119.617 75.6079C119.811 75.9383 120.09 76.2004 120.455 76.394C120.819 76.5763 121.246 76.6675 121.736 76.6675C122.477 76.6675 123.121 76.5194 123.667 76.2231C124.214 75.9269 124.636 75.5623 124.932 75.1294C125.24 74.6965 125.399 74.2863 125.411 73.8989L126.709 75.9839C126.527 76.451 126.277 76.9352 125.958 77.4365C125.65 77.9378 125.257 78.4106 124.778 78.855C124.3 79.2879 123.724 79.6468 123.052 79.9316C122.38 80.2051 121.583 80.3418 120.66 80.3418C119.486 80.3418 118.421 80.1082 117.464 79.6411C116.518 79.1626 115.766 78.5075 115.208 77.6758C114.661 76.8327 114.388 75.8757 114.388 74.8047C114.388 73.8363 114.57 72.9761 114.935 72.2241C115.299 71.4722 115.835 70.8398 116.541 70.3271C117.259 69.8031 118.153 69.41 119.224 69.1479C120.295 68.8745 121.537 68.7378 122.95 68.7378H125.804ZM138.826 53.7329V80H133.904V53.7329H138.826ZM150.481 61.5088L142.449 70.6689L138.143 75.0269L136.348 71.4722L139.766 67.1313L144.568 61.5088H150.481ZM145.372 80L139.903 71.4551L143.304 68.4814L151.045 80H145.372ZM162.581 75.8301V67.5928C162.581 67.0003 162.484 66.4933 162.291 66.0718C162.097 65.6388 161.795 65.3027 161.385 65.0635C160.986 64.8242 160.468 64.7046 159.83 64.7046C159.283 64.7046 158.81 64.8014 158.411 64.9951C158.012 65.1774 157.705 65.4451 157.488 65.7983C157.272 66.1401 157.164 66.5446 157.164 67.0117H152.242C152.242 66.2256 152.424 65.4793 152.789 64.7729C153.153 64.0666 153.683 63.4456 154.378 62.9102C155.073 62.3633 155.899 61.936 156.856 61.6284C157.824 61.3208 158.907 61.167 160.103 61.167C161.539 61.167 162.815 61.4062 163.931 61.8848C165.048 62.3633 165.925 63.0811 166.563 64.0381C167.212 64.9951 167.537 66.1914 167.537 67.627V75.5396C167.537 76.5535 167.6 77.3853 167.725 78.0347C167.85 78.6727 168.033 79.231 168.272 79.7095V80H163.299C163.06 79.4987 162.877 78.8721 162.752 78.1201C162.638 77.3568 162.581 76.5934 162.581 75.8301ZM163.23 68.7378L163.265 71.5234H160.513C159.864 71.5234 159.3 71.5975 158.821 71.7456C158.343 71.8937 157.95 72.1045 157.642 72.3779C157.334 72.64 157.107 72.9476 156.958 73.3008C156.822 73.654 156.753 74.0413 156.753 74.4629C156.753 74.8844 156.85 75.2661 157.044 75.6079C157.238 75.9383 157.517 76.2004 157.881 76.394C158.246 76.5763 158.673 76.6675 159.163 76.6675C159.904 76.6675 160.547 76.5194 161.094 76.2231C161.641 75.9269 162.063 75.5623 162.359 75.1294C162.667 74.6965 162.826 74.2863 162.837 73.8989L164.136 75.9839C163.954 76.451 163.703 76.9352 163.384 77.4365C163.077 77.9378 162.684 78.4106 162.205 78.855C161.727 79.2879 161.151 79.6468 160.479 79.9316C159.807 80.2051 159.009 80.3418 158.086 80.3418C156.913 80.3418 155.848 80.1082 154.891 79.6411C153.945 79.1626 153.193 78.5075 152.635 77.6758C152.088 76.8327 151.814 75.8757 151.814 74.8047C151.814 73.8363 151.997 72.9761 152.361 72.2241C152.726 71.4722 153.261 70.8398 153.968 70.3271C154.686 69.8031 155.58 69.41 156.651 69.1479C157.722 68.8745 158.964 68.7378 160.376 68.7378H163.23ZM176.253 65.542V80H171.331V61.5088H175.962L176.253 65.542ZM181.824 61.3892L181.739 65.9521C181.5 65.918 181.209 65.8895 180.867 65.8667C180.537 65.8325 180.235 65.8154 179.961 65.8154C179.266 65.8154 178.663 65.9066 178.15 66.0889C177.649 66.2598 177.227 66.5161 176.885 66.8579C176.555 67.1997 176.304 67.6156 176.133 68.1055C175.974 68.5954 175.883 69.1536 175.86 69.7803L174.869 69.4727C174.869 68.2764 174.988 67.1769 175.228 66.1743C175.467 65.1603 175.814 64.2773 176.27 63.5254C176.737 62.7734 177.307 62.1924 177.979 61.7822C178.651 61.3721 179.42 61.167 180.286 61.167C180.56 61.167 180.839 61.1898 181.124 61.2354C181.408 61.2695 181.642 61.3208 181.824 61.3892ZM189.344 61.5088V80H184.405V61.5088H189.344ZM184.097 56.6895C184.097 55.9717 184.348 55.3792 184.849 54.9121C185.35 54.445 186.023 54.2114 186.866 54.2114C187.697 54.2114 188.364 54.445 188.865 54.9121C189.378 55.3792 189.634 55.9717 189.634 56.6895C189.634 57.4072 189.378 57.9997 188.865 58.4668C188.364 58.9339 187.697 59.1675 186.866 59.1675C186.023 59.1675 185.35 58.9339 184.849 58.4668C184.348 57.9997 184.097 57.4072 184.097 56.6895ZM203.392 75.8301V67.5928C203.392 67.0003 203.295 66.4933 203.101 66.0718C202.907 65.6388 202.605 65.3027 202.195 65.0635C201.797 64.8242 201.278 64.7046 200.64 64.7046C200.093 64.7046 199.62 64.8014 199.222 64.9951C198.823 65.1774 198.515 65.4451 198.299 65.7983C198.082 66.1401 197.974 66.5446 197.974 67.0117H193.052C193.052 66.2256 193.235 65.4793 193.599 64.7729C193.964 64.0666 194.493 63.4456 195.188 62.9102C195.883 62.3633 196.709 61.936 197.667 61.6284C198.635 61.3208 199.717 61.167 200.914 61.167C202.349 61.167 203.625 61.4062 204.742 61.8848C205.858 62.3633 206.736 63.0811 207.374 64.0381C208.023 64.9951 208.348 66.1914 208.348 67.627V75.5396C208.348 76.5535 208.41 77.3853 208.536 78.0347C208.661 78.6727 208.843 79.231 209.083 79.7095V80H204.109C203.87 79.4987 203.688 78.8721 203.562 78.1201C203.449 77.3568 203.392 76.5934 203.392 75.8301ZM204.041 68.7378L204.075 71.5234H201.324C200.674 71.5234 200.11 71.5975 199.632 71.7456C199.153 71.8937 198.76 72.1045 198.453 72.3779C198.145 72.64 197.917 72.9476 197.769 73.3008C197.632 73.654 197.564 74.0413 197.564 74.4629C197.564 74.8844 197.661 75.2661 197.854 75.6079C198.048 75.9383 198.327 76.2004 198.692 76.394C199.056 76.5763 199.484 76.6675 199.974 76.6675C200.714 76.6675 201.358 76.5194 201.905 76.2231C202.452 75.9269 202.873 75.5623 203.169 75.1294C203.477 74.6965 203.637 74.2863 203.648 73.8989L204.947 75.9839C204.764 76.451 204.514 76.9352 204.195 77.4365C203.887 77.9378 203.494 78.4106 203.016 78.855C202.537 79.2879 201.962 79.6468 201.29 79.9316C200.617 80.2051 199.82 80.3418 198.897 80.3418C197.723 80.3418 196.658 80.1082 195.701 79.6411C194.756 79.1626 194.004 78.5075 193.445 77.6758C192.898 76.8327 192.625 75.8757 192.625 74.8047C192.625 73.8363 192.807 72.9761 193.172 72.2241C193.536 71.4722 194.072 70.8398 194.778 70.3271C195.496 69.8031 196.39 69.41 197.461 69.1479C198.532 68.8745 199.774 68.7378 201.187 68.7378H204.041ZM231.368 55.1172V80H226.258V55.1172H231.368ZM239.024 55.1172V59.1333H218.721V55.1172H239.024ZM249.021 75.8301V67.5928C249.021 67.0003 248.925 66.4933 248.731 66.0718C248.537 65.6388 248.235 65.3027 247.825 65.0635C247.426 64.8242 246.908 64.7046 246.27 64.7046C245.723 64.7046 245.25 64.8014 244.852 64.9951C244.453 65.1774 244.145 65.4451 243.929 65.7983C243.712 66.1401 243.604 66.5446 243.604 67.0117H238.682C238.682 66.2256 238.864 65.4793 239.229 64.7729C239.594 64.0666 240.123 63.4456 240.818 62.9102C241.513 62.3633 242.339 61.936 243.296 61.6284C244.265 61.3208 245.347 61.167 246.543 61.167C247.979 61.167 249.255 61.4062 250.372 61.8848C251.488 62.3633 252.365 63.0811 253.003 64.0381C253.653 64.9951 253.978 66.1914 253.978 67.627V75.5396C253.978 76.5535 254.04 77.3853 254.166 78.0347C254.291 78.6727 254.473 79.231 254.712 79.7095V80H249.739C249.5 79.4987 249.318 78.8721 249.192 78.1201C249.078 77.3568 249.021 76.5934 249.021 75.8301ZM249.671 68.7378L249.705 71.5234H246.954C246.304 71.5234 245.74 71.5975 245.262 71.7456C244.783 71.8937 244.39 72.1045 244.083 72.3779C243.775 72.64 243.547 72.9476 243.399 73.3008C243.262 73.654 243.194 74.0413 243.194 74.4629C243.194 74.8844 243.291 75.2661 243.484 75.6079C243.678 75.9383 243.957 76.2004 244.322 76.394C244.686 76.5763 245.114 76.6675 245.604 76.6675C246.344 76.6675 246.988 76.5194 247.535 76.2231C248.082 75.9269 248.503 75.5623 248.799 75.1294C249.107 74.6965 249.266 74.2863 249.278 73.8989L250.577 75.9839C250.394 76.451 250.144 76.9352 249.825 77.4365C249.517 77.9378 249.124 78.4106 248.646 78.855C248.167 79.2879 247.592 79.6468 246.919 79.9316C246.247 80.2051 245.45 80.3418 244.527 80.3418C243.353 80.3418 242.288 80.1082 241.331 79.6411C240.385 79.1626 239.633 78.5075 239.075 77.6758C238.528 76.8327 238.255 75.8757 238.255 74.8047C238.255 73.8363 238.437 72.9761 238.802 72.2241C239.166 71.4722 239.702 70.8398 240.408 70.3271C241.126 69.8031 242.02 69.41 243.091 69.1479C244.162 68.8745 245.404 68.7378 246.817 68.7378H249.671ZM262.693 53.7329V80H257.771V53.7329H262.693ZM274.349 61.5088L266.316 70.6689L262.01 75.0269L260.215 71.4722L263.633 67.1313L268.436 61.5088H274.349ZM269.239 80L263.77 71.4551L267.171 68.4814L274.913 80H269.239ZM281.39 53.7329V80H276.468V53.7329H281.39ZM293.045 61.5088L285.013 70.6689L280.706 75.0269L278.912 71.4722L282.33 67.1313L287.132 61.5088H293.045ZM287.935 80L282.466 71.4551L285.867 68.4814L293.609 80H287.935ZM294.378 70.9424V70.5835C294.378 69.2277 294.572 67.9801 294.959 66.8408C295.346 65.6901 295.91 64.6932 296.651 63.8501C297.391 63.007 298.303 62.3519 299.385 61.8848C300.468 61.4062 301.709 61.167 303.111 61.167C304.512 61.167 305.76 61.4062 306.854 61.8848C307.947 62.3519 308.864 63.007 309.605 63.8501C310.357 64.6932 310.927 65.6901 311.314 66.8408C311.701 67.9801 311.895 69.2277 311.895 70.5835V70.9424C311.895 72.2868 311.701 73.5343 311.314 74.6851C310.927 75.8244 310.357 76.8213 309.605 77.6758C308.864 78.5189 307.953 79.174 306.871 79.6411C305.788 80.1082 304.546 80.3418 303.145 80.3418C301.744 80.3418 300.496 80.1082 299.402 79.6411C298.32 79.174 297.403 78.5189 296.651 77.6758C295.91 76.8213 295.346 75.8244 294.959 74.6851C294.572 73.5343 294.378 72.2868 294.378 70.9424ZM299.3 70.5835V70.9424C299.3 71.7171 299.368 72.4406 299.505 73.1128C299.642 73.785 299.858 74.3774 300.154 74.8901C300.462 75.3914 300.861 75.7845 301.351 76.0693C301.84 76.3542 302.439 76.4966 303.145 76.4966C303.829 76.4966 304.415 76.3542 304.905 76.0693C305.395 75.7845 305.788 75.3914 306.084 74.8901C306.381 74.3774 306.597 73.785 306.734 73.1128C306.882 72.4406 306.956 71.7171 306.956 70.9424V70.5835C306.956 69.8315 306.882 69.1252 306.734 68.4644C306.597 67.7922 306.375 67.1997 306.067 66.687C305.771 66.1629 305.378 65.7528 304.888 65.4565C304.398 65.1603 303.806 65.0122 303.111 65.0122C302.416 65.0122 301.823 65.1603 301.333 65.4565C300.855 65.7528 300.462 66.1629 300.154 66.687C299.858 67.1997 299.642 67.7922 299.505 68.4644C299.368 69.1252 299.3 69.8315 299.3 70.5835ZM325.857 75.5737V61.5088H330.779V80H326.148L325.857 75.5737ZM326.404 71.7798L327.857 71.7456C327.857 72.9761 327.715 74.1211 327.43 75.1807C327.145 76.2288 326.718 77.1403 326.148 77.915C325.578 78.6784 324.861 79.2765 323.995 79.7095C323.129 80.131 322.109 80.3418 320.936 80.3418C320.035 80.3418 319.204 80.2165 318.44 79.9658C317.688 79.7038 317.039 79.2993 316.492 78.7524C315.957 78.1942 315.535 77.4821 315.228 76.6162C314.931 75.7389 314.783 74.6851 314.783 73.4546V61.5088H319.705V73.4888C319.705 74.0356 319.768 74.4971 319.893 74.873C320.03 75.249 320.218 75.5566 320.457 75.7959C320.696 76.0352 320.975 76.2061 321.294 76.3086C321.625 76.4111 321.989 76.4624 322.388 76.4624C323.402 76.4624 324.2 76.2573 324.781 75.8472C325.373 75.437 325.789 74.8787 326.028 74.1724C326.279 73.4546 326.404 72.6571 326.404 71.7798ZM344.537 74.8901C344.537 74.5369 344.434 74.2179 344.229 73.9331C344.024 73.6483 343.642 73.3862 343.084 73.147C342.537 72.8963 341.745 72.6685 340.708 72.4634C339.774 72.2583 338.903 72.002 338.094 71.6943C337.296 71.3753 336.601 70.9937 336.009 70.5493C335.428 70.105 334.972 69.5809 334.642 68.9771C334.311 68.3618 334.146 67.6611 334.146 66.875C334.146 66.1003 334.311 65.3711 334.642 64.6875C334.983 64.0039 335.468 63.4001 336.094 62.876C336.732 62.3405 337.507 61.9246 338.418 61.6284C339.341 61.3208 340.378 61.167 341.529 61.167C343.135 61.167 344.514 61.4233 345.665 61.936C346.827 62.4487 347.715 63.1551 348.331 64.0552C348.957 64.9438 349.271 65.9578 349.271 67.0972H344.349C344.349 66.6187 344.246 66.1914 344.041 65.8154C343.847 65.4281 343.54 65.1261 343.118 64.9097C342.708 64.6818 342.173 64.5679 341.512 64.5679C340.965 64.5679 340.492 64.6647 340.093 64.8584C339.694 65.0407 339.387 65.2913 339.17 65.6104C338.965 65.918 338.863 66.2598 338.863 66.6357C338.863 66.9206 338.92 67.1769 339.034 67.4048C339.159 67.6213 339.358 67.8206 339.632 68.0029C339.905 68.1852 340.258 68.3561 340.691 68.5156C341.136 68.6637 341.683 68.8005 342.332 68.9258C343.665 69.1992 344.856 69.5581 345.904 70.0024C346.952 70.4354 347.784 71.0278 348.399 71.7798C349.014 72.5203 349.322 73.4945 349.322 74.7021C349.322 75.5225 349.139 76.2744 348.775 76.958C348.41 77.6416 347.886 78.2397 347.203 78.7524C346.519 79.2537 345.699 79.6468 344.742 79.9316C343.796 80.2051 342.731 80.3418 341.546 80.3418C339.826 80.3418 338.367 80.0342 337.171 79.4189C335.986 78.8037 335.086 78.0233 334.471 77.0776C333.867 76.1206 333.565 75.1408 333.565 74.1382H338.23C338.253 74.8104 338.424 75.3516 338.743 75.7617C339.074 76.1719 339.489 76.4681 339.991 76.6504C340.503 76.8327 341.056 76.9238 341.648 76.9238C342.286 76.9238 342.816 76.8384 343.238 76.6675C343.659 76.4852 343.978 76.2459 344.195 75.9497C344.423 75.6421 344.537 75.2889 344.537 74.8901ZM357.32 53.75V80H352.398V53.75H357.32ZM356.619 70.105H355.269C355.28 68.8175 355.451 67.6326 355.782 66.5503C356.112 65.4565 356.585 64.5109 357.2 63.7134C357.815 62.9045 358.55 62.2778 359.405 61.8335C360.271 61.3892 361.228 61.167 362.276 61.167C363.187 61.167 364.013 61.298 364.754 61.5601C365.506 61.8107 366.15 62.2209 366.685 62.7905C367.232 63.3488 367.653 64.0837 367.95 64.9951C368.246 65.9066 368.394 67.0117 368.394 68.3105V80H363.438V68.2764C363.438 67.4561 363.318 66.8123 363.079 66.3452C362.851 65.8667 362.515 65.5306 362.071 65.3369C361.638 65.1318 361.102 65.0293 360.464 65.0293C359.758 65.0293 359.154 65.1603 358.653 65.4224C358.163 65.6844 357.77 66.049 357.474 66.5161C357.177 66.9718 356.961 67.5073 356.824 68.1226C356.688 68.7378 356.619 69.3986 356.619 70.105Z" fill="#888888"/>
<rect x="92" y="181" width="1179" height="80" rx="13.3333" fill="#CCCCCC"/>
<rect x="107" y="196.333" width="208" height="49.3333" rx="4.66667" fill="#888888" stroke="#888888" stroke-width="4"/>
<path d="M171.823 213.167H177.792C178.958 213.167 179.972 213.34 180.833 213.687C181.694 214.035 182.358 214.549 182.823 215.229C183.295 215.91 183.531 216.75 183.531 217.75C183.531 218.618 183.396 219.344 183.125 219.927C182.854 220.51 182.476 220.993 181.99 221.375C181.51 221.75 180.951 222.059 180.312 222.302L179.115 222.979H174.104L174.083 220.156H177.792C178.257 220.156 178.642 220.073 178.948 219.906C179.253 219.74 179.483 219.503 179.635 219.198C179.795 218.885 179.875 218.514 179.875 218.083C179.875 217.646 179.795 217.271 179.635 216.958C179.476 216.646 179.24 216.406 178.927 216.24C178.622 216.073 178.243 215.99 177.792 215.99H175.479V228.333H171.823V213.167ZM180.125 228.333L176.771 221.625L180.646 221.604L184.042 228.177V228.333H180.125ZM191.031 228.542C190.115 228.542 189.295 228.399 188.573 228.115C187.851 227.823 187.24 227.424 186.74 226.917C186.247 226.41 185.868 225.826 185.604 225.167C185.347 224.507 185.219 223.809 185.219 223.073V222.677C185.219 221.851 185.333 221.087 185.562 220.385C185.792 219.677 186.132 219.059 186.583 218.531C187.035 218.003 187.601 217.594 188.281 217.302C188.962 217.003 189.753 216.854 190.656 216.854C191.455 216.854 192.17 216.983 192.802 217.24C193.434 217.497 193.969 217.865 194.406 218.344C194.851 218.823 195.187 219.403 195.417 220.083C195.653 220.764 195.771 221.528 195.771 222.375V223.802H186.562V221.604H192.344V221.333C192.351 220.958 192.285 220.639 192.146 220.375C192.014 220.111 191.819 219.91 191.562 219.771C191.306 219.632 190.993 219.562 190.625 219.562C190.243 219.562 189.927 219.646 189.677 219.812C189.434 219.979 189.243 220.208 189.104 220.5C188.972 220.785 188.878 221.115 188.823 221.49C188.767 221.865 188.74 222.26 188.74 222.677V223.073C188.74 223.49 188.795 223.868 188.906 224.208C189.024 224.549 189.191 224.84 189.406 225.083C189.628 225.319 189.892 225.503 190.198 225.635C190.51 225.767 190.865 225.833 191.26 225.833C191.74 225.833 192.212 225.743 192.677 225.562C193.142 225.382 193.542 225.083 193.875 224.667L195.469 226.562C195.24 226.889 194.913 227.205 194.49 227.51C194.073 227.816 193.573 228.066 192.99 228.26C192.406 228.448 191.753 228.542 191.031 228.542ZM203.052 225.5V220.854C203.052 220.535 203.007 220.26 202.917 220.031C202.826 219.802 202.684 219.625 202.49 219.5C202.295 219.368 202.035 219.302 201.708 219.302C201.444 219.302 201.219 219.347 201.031 219.437C200.844 219.528 200.701 219.663 200.604 219.844C200.507 220.024 200.458 220.253 200.458 220.531H196.948C196.948 220.01 197.062 219.528 197.292 219.083C197.528 218.632 197.861 218.24 198.292 217.906C198.729 217.573 199.25 217.316 199.854 217.135C200.465 216.948 201.146 216.854 201.896 216.854C202.792 216.854 203.59 217.003 204.292 217.302C205 217.601 205.559 218.049 205.969 218.646C206.378 219.236 206.583 219.979 206.583 220.875V225.49C206.583 226.226 206.625 226.785 206.708 227.167C206.792 227.542 206.91 227.872 207.062 228.156V228.333H203.542C203.375 227.986 203.25 227.562 203.167 227.062C203.09 226.556 203.052 226.035 203.052 225.5ZM203.479 221.448L203.5 223.323H201.948C201.622 223.323 201.344 223.368 201.115 223.458C200.892 223.549 200.712 223.674 200.573 223.833C200.441 223.986 200.344 224.16 200.281 224.354C200.226 224.549 200.198 224.753 200.198 224.969C200.198 225.177 200.247 225.365 200.344 225.531C200.448 225.691 200.587 225.816 200.76 225.906C200.934 225.997 201.128 226.042 201.344 226.042C201.733 226.042 202.062 225.969 202.333 225.823C202.611 225.67 202.823 225.486 202.969 225.271C203.115 225.056 203.187 224.854 203.187 224.667L203.958 226.104C203.819 226.382 203.66 226.663 203.479 226.948C203.306 227.233 203.087 227.497 202.823 227.74C202.566 227.976 202.25 228.17 201.875 228.323C201.5 228.469 201.045 228.542 200.51 228.542C199.816 228.542 199.177 228.399 198.594 228.115C198.017 227.83 197.556 227.434 197.208 226.927C196.861 226.413 196.687 225.823 196.687 225.156C196.687 224.573 196.792 224.052 197 223.594C197.215 223.135 197.538 222.747 197.969 222.427C198.399 222.108 198.948 221.865 199.615 221.698C200.281 221.531 201.066 221.448 201.969 221.448H203.479ZM213.292 225.833C213.618 225.833 213.896 225.774 214.125 225.656C214.361 225.531 214.538 225.358 214.656 225.135C214.781 224.906 214.84 224.632 214.833 224.312H218.135C218.142 225.16 217.934 225.903 217.51 226.542C217.094 227.174 216.524 227.667 215.802 228.021C215.087 228.368 214.278 228.542 213.375 228.542C212.493 228.542 211.722 228.399 211.062 228.115C210.403 227.823 209.851 227.42 209.406 226.906C208.969 226.385 208.639 225.778 208.417 225.083C208.201 224.389 208.094 223.635 208.094 222.823V222.583C208.094 221.771 208.201 221.017 208.417 220.323C208.639 219.622 208.969 219.014 209.406 218.5C209.851 217.979 210.399 217.576 211.052 217.292C211.712 217 212.479 216.854 213.354 216.854C214.292 216.854 215.118 217.031 215.833 217.385C216.556 217.74 217.122 218.253 217.531 218.927C217.941 219.601 218.142 220.417 218.135 221.375H214.833C214.84 221.035 214.788 220.729 214.677 220.458C214.566 220.187 214.392 219.972 214.156 219.812C213.927 219.646 213.632 219.562 213.271 219.562C212.91 219.562 212.618 219.642 212.396 219.802C212.174 219.962 212.003 220.184 211.885 220.469C211.774 220.747 211.698 221.066 211.656 221.427C211.622 221.788 211.604 222.174 211.604 222.583V222.823C211.604 223.24 211.622 223.632 211.656 224C211.698 224.361 211.778 224.681 211.896 224.958C212.014 225.229 212.184 225.444 212.406 225.604C212.628 225.757 212.924 225.833 213.292 225.833ZM225.573 217.062V219.5H218.781V217.062H225.573ZM220.208 214.26H223.719V224.656C223.719 224.955 223.753 225.187 223.823 225.354C223.892 225.514 224.01 225.628 224.177 225.698C224.351 225.76 224.58 225.792 224.865 225.792C225.066 225.792 225.233 225.788 225.365 225.781C225.497 225.767 225.622 225.75 225.74 225.729V228.24C225.441 228.337 225.128 228.41 224.802 228.458C224.476 228.514 224.128 228.542 223.76 228.542C223.01 228.542 222.368 228.424 221.833 228.187C221.306 227.951 220.903 227.58 220.625 227.073C220.347 226.566 220.208 225.906 220.208 225.094V214.26ZM233.167 223.573V213.167H236.812V223.573C236.812 224.587 236.58 225.465 236.115 226.208C235.656 226.951 235.031 227.528 234.24 227.937C233.455 228.34 232.573 228.542 231.594 228.542C230.58 228.542 229.677 228.372 228.885 228.031C228.101 227.691 227.483 227.167 227.031 226.458C226.587 225.75 226.365 224.847 226.365 223.75H230.031C230.031 224.264 230.09 224.667 230.208 224.958C230.326 225.243 230.5 225.444 230.729 225.562C230.965 225.674 231.253 225.729 231.594 225.729C231.927 225.729 232.208 225.646 232.437 225.479C232.674 225.306 232.854 225.059 232.979 224.74C233.104 224.413 233.167 224.024 233.167 223.573ZM246.948 224.302C246.948 224.066 246.913 223.854 246.844 223.667C246.774 223.472 246.646 223.292 246.458 223.125C246.271 222.958 246 222.792 245.646 222.625C245.299 222.451 244.84 222.271 244.271 222.083C243.604 221.861 242.962 221.611 242.344 221.333C241.726 221.049 241.174 220.719 240.687 220.344C240.201 219.962 239.816 219.517 239.531 219.01C239.247 218.497 239.104 217.899 239.104 217.219C239.104 216.566 239.25 215.979 239.542 215.458C239.833 214.931 240.24 214.483 240.76 214.115C241.288 213.74 241.906 213.455 242.615 213.26C243.323 213.059 244.097 212.958 244.937 212.958C246.049 212.958 247.028 213.153 247.875 213.542C248.729 213.924 249.396 214.469 249.875 215.177C250.361 215.878 250.604 216.708 250.604 217.667H246.969C246.969 217.285 246.889 216.948 246.729 216.656C246.576 216.365 246.344 216.135 246.031 215.969C245.719 215.802 245.326 215.719 244.854 215.719C244.396 215.719 244.01 215.788 243.698 215.927C243.385 216.066 243.149 216.253 242.99 216.49C242.83 216.719 242.75 216.972 242.75 217.25C242.75 217.479 242.812 217.687 242.937 217.875C243.069 218.056 243.253 218.226 243.49 218.385C243.733 218.545 244.024 218.698 244.365 218.844C244.712 218.99 245.101 219.132 245.531 219.271C246.337 219.528 247.052 219.816 247.677 220.135C248.309 220.448 248.84 220.806 249.271 221.208C249.708 221.604 250.038 222.056 250.26 222.562C250.49 223.069 250.604 223.642 250.604 224.281C250.604 224.962 250.472 225.566 250.208 226.094C249.944 226.622 249.566 227.069 249.073 227.437C248.58 227.799 247.99 228.073 247.302 228.26C246.615 228.448 245.847 228.542 245 228.542C244.222 228.542 243.455 228.444 242.698 228.25C241.948 228.049 241.267 227.743 240.656 227.333C240.045 226.917 239.556 226.385 239.187 225.74C238.826 225.087 238.646 224.312 238.646 223.417H242.312C242.312 223.861 242.372 224.236 242.49 224.542C242.608 224.847 242.781 225.094 243.01 225.281C243.24 225.462 243.521 225.594 243.854 225.677C244.187 225.753 244.569 225.792 245 225.792C245.465 225.792 245.84 225.726 246.125 225.594C246.41 225.455 246.618 225.274 246.75 225.052C246.882 224.823 246.948 224.573 246.948 224.302Z" fill="white"/>
<rect x="339" y="196.333" width="208" height="49.3333" rx="4.66667" fill="#888888" stroke="#888888" stroke-width="4"/>
<path d="M418.844 213.167V228.333H415.198L409.833 218.896V228.333H406.177V213.167H409.833L415.198 222.604V213.167H418.844ZM420.552 222.812V222.594C420.552 221.767 420.67 221.007 420.906 220.312C421.142 219.611 421.49 219.003 421.948 218.49C422.406 217.976 422.972 217.576 423.646 217.292C424.319 217 425.097 216.854 425.979 216.854C426.868 216.854 427.649 217 428.323 217.292C429.003 217.576 429.573 217.976 430.031 218.49C430.49 219.003 430.837 219.611 431.073 220.312C431.309 221.007 431.427 221.767 431.427 222.594V222.812C431.427 223.632 431.309 224.392 431.073 225.094C430.837 225.788 430.49 226.396 430.031 226.917C429.573 227.431 429.007 227.83 428.333 228.115C427.66 228.399 426.882 228.542 426 228.542C425.118 228.542 424.337 228.399 423.656 228.115C422.976 227.83 422.406 227.431 421.948 226.917C421.49 226.396 421.142 225.788 420.906 225.094C420.67 224.392 420.552 223.632 420.552 222.812ZM424.062 222.594V222.812C424.062 223.236 424.094 223.632 424.156 224C424.219 224.368 424.323 224.691 424.469 224.969C424.615 225.24 424.812 225.451 425.062 225.604C425.312 225.757 425.625 225.833 426 225.833C426.368 225.833 426.674 225.757 426.917 225.604C427.167 225.451 427.365 225.24 427.51 224.969C427.656 224.691 427.76 224.368 427.823 224C427.885 223.632 427.917 223.236 427.917 222.812V222.594C427.917 222.184 427.885 221.799 427.823 221.437C427.76 221.069 427.656 220.747 427.51 220.469C427.365 220.184 427.167 219.962 426.917 219.802C426.667 219.642 426.354 219.562 425.979 219.562C425.611 219.562 425.302 219.642 425.052 219.802C424.809 219.962 424.615 220.184 424.469 220.469C424.323 220.747 424.219 221.069 424.156 221.437C424.094 221.799 424.062 222.184 424.062 222.594ZM439.469 225.75V212.333H443V228.333H439.833L439.469 225.75ZM432.552 222.833V222.615C432.552 221.76 432.646 220.983 432.833 220.281C433.021 219.573 433.299 218.965 433.667 218.458C434.035 217.944 434.493 217.549 435.042 217.271C435.59 216.993 436.222 216.854 436.938 216.854C437.576 216.854 438.135 217.003 438.615 217.302C439.094 217.594 439.503 218.003 439.844 218.531C440.184 219.059 440.462 219.677 440.677 220.385C440.892 221.087 441.056 221.844 441.167 222.656V222.917C441.056 223.681 440.892 224.403 440.677 225.083C440.462 225.757 440.184 226.354 439.844 226.875C439.503 227.396 439.09 227.806 438.604 228.104C438.125 228.396 437.563 228.542 436.917 228.542C436.201 228.542 435.569 228.399 435.021 228.115C434.479 227.83 434.024 227.431 433.656 226.917C433.295 226.403 433.021 225.799 432.833 225.104C432.646 224.41 432.552 223.653 432.552 222.833ZM436.063 222.615V222.833C436.063 223.257 436.09 223.649 436.146 224.01C436.201 224.372 436.295 224.691 436.427 224.969C436.566 225.24 436.747 225.451 436.969 225.604C437.198 225.757 437.479 225.833 437.813 225.833C438.264 225.833 438.635 225.726 438.927 225.51C439.226 225.295 439.444 224.99 439.583 224.594C439.729 224.198 439.792 223.733 439.771 223.198V222.375C439.785 221.917 439.753 221.514 439.677 221.167C439.601 220.812 439.479 220.517 439.313 220.281C439.153 220.045 438.948 219.868 438.698 219.75C438.455 219.625 438.167 219.562 437.833 219.562C437.507 219.562 437.229 219.639 437 219.792C436.778 219.944 436.597 220.16 436.458 220.437C436.319 220.708 436.219 221.031 436.156 221.406C436.094 221.774 436.063 222.177 436.063 222.615ZM450.448 228.542C449.531 228.542 448.712 228.399 447.99 228.115C447.267 227.823 446.656 227.424 446.156 226.917C445.663 226.41 445.285 225.826 445.021 225.167C444.764 224.507 444.635 223.809 444.635 223.073V222.677C444.635 221.851 444.75 221.087 444.979 220.385C445.208 219.677 445.549 219.059 446 218.531C446.451 218.003 447.017 217.594 447.698 217.302C448.378 217.003 449.17 216.854 450.073 216.854C450.872 216.854 451.587 216.983 452.219 217.24C452.851 217.497 453.385 217.865 453.823 218.344C454.267 218.823 454.604 219.403 454.833 220.083C455.069 220.764 455.188 221.528 455.188 222.375V223.802H445.979V221.604H451.76V221.333C451.767 220.958 451.701 220.639 451.563 220.375C451.431 220.111 451.236 219.91 450.979 219.771C450.722 219.632 450.41 219.562 450.042 219.562C449.66 219.562 449.344 219.646 449.094 219.812C448.851 219.979 448.66 220.208 448.521 220.5C448.389 220.785 448.295 221.115 448.24 221.49C448.184 221.865 448.156 222.26 448.156 222.677V223.073C448.156 223.49 448.212 223.868 448.323 224.208C448.441 224.549 448.608 224.84 448.823 225.083C449.045 225.319 449.309 225.503 449.615 225.635C449.927 225.767 450.281 225.833 450.677 225.833C451.156 225.833 451.628 225.743 452.094 225.562C452.559 225.382 452.958 225.083 453.292 224.667L454.885 226.562C454.656 226.889 454.33 227.205 453.906 227.51C453.49 227.816 452.99 228.066 452.406 228.26C451.823 228.448 451.17 228.542 450.448 228.542ZM462.813 223.573V213.167H466.458V223.573C466.458 224.587 466.226 225.465 465.76 226.208C465.302 226.951 464.677 227.528 463.885 227.937C463.101 228.34 462.219 228.542 461.24 228.542C460.226 228.542 459.323 228.372 458.531 228.031C457.747 227.691 457.128 227.167 456.677 226.458C456.233 225.75 456.01 224.847 456.01 223.75H459.677C459.677 224.264 459.736 224.667 459.854 224.958C459.972 225.243 460.146 225.444 460.375 225.562C460.611 225.674 460.899 225.729 461.24 225.729C461.573 225.729 461.854 225.646 462.083 225.479C462.319 225.306 462.5 225.059 462.625 224.74C462.75 224.413 462.813 224.024 462.813 223.573ZM476.594 224.302C476.594 224.066 476.559 223.854 476.49 223.667C476.42 223.472 476.292 223.292 476.104 223.125C475.917 222.958 475.646 222.792 475.292 222.625C474.944 222.451 474.486 222.271 473.917 222.083C473.25 221.861 472.608 221.611 471.99 221.333C471.372 221.049 470.819 220.719 470.333 220.344C469.847 219.962 469.462 219.517 469.177 219.01C468.892 218.497 468.75 217.899 468.75 217.219C468.75 216.566 468.896 215.979 469.188 215.458C469.479 214.931 469.885 214.483 470.406 214.115C470.934 213.74 471.552 213.455 472.26 213.26C472.969 213.059 473.743 212.958 474.583 212.958C475.694 212.958 476.674 213.153 477.521 213.542C478.375 213.924 479.042 214.469 479.521 215.177C480.007 215.878 480.25 216.708 480.25 217.667H476.615C476.615 217.285 476.535 216.948 476.375 216.656C476.222 216.365 475.99 216.135 475.677 215.969C475.365 215.802 474.972 215.719 474.5 215.719C474.042 215.719 473.656 215.788 473.344 215.927C473.031 216.066 472.795 216.253 472.635 216.49C472.476 216.719 472.396 216.972 472.396 217.25C472.396 217.479 472.458 217.687 472.583 217.875C472.715 218.056 472.899 218.226 473.135 218.385C473.378 218.545 473.67 218.698 474.01 218.844C474.358 218.99 474.747 219.132 475.177 219.271C475.983 219.528 476.698 219.816 477.323 220.135C477.955 220.448 478.486 220.806 478.917 221.208C479.354 221.604 479.684 222.056 479.906 222.562C480.135 223.069 480.25 223.642 480.25 224.281C480.25 224.962 480.118 225.566 479.854 226.094C479.59 226.622 479.212 227.069 478.719 227.437C478.226 227.799 477.635 228.073 476.948 228.26C476.26 228.448 475.493 228.542 474.646 228.542C473.868 228.542 473.101 228.444 472.344 228.25C471.594 228.049 470.913 227.743 470.302 227.333C469.691 226.917 469.201 226.385 468.833 225.74C468.472 225.087 468.292 224.312 468.292 223.417H471.958C471.958 223.861 472.017 224.236 472.135 224.542C472.253 224.847 472.427 225.094 472.656 225.281C472.885 225.462 473.167 225.594 473.5 225.677C473.833 225.753 474.215 225.792 474.646 225.792C475.111 225.792 475.486 225.726 475.771 225.594C476.056 225.455 476.264 225.274 476.396 225.052C476.528 224.823 476.594 224.573 476.594 224.302Z" fill="white"/>
<rect x="571" y="196.333" width="208" height="49.3333" rx="4.66667" fill="#888888" stroke="#888888" stroke-width="4"/>
<path d="M614.833 213.167H620.802C621.969 213.167 622.983 213.34 623.844 213.687C624.705 214.035 625.368 214.549 625.833 215.229C626.306 215.91 626.542 216.75 626.542 217.75C626.542 218.618 626.406 219.344 626.135 219.927C625.865 220.51 625.486 220.993 625 221.375C624.521 221.75 623.962 222.059 623.323 222.302L622.125 222.979H617.115L617.094 220.156H620.802C621.267 220.156 621.653 220.073 621.958 219.906C622.264 219.74 622.493 219.503 622.646 219.198C622.806 218.885 622.885 218.514 622.885 218.083C622.885 217.646 622.806 217.271 622.646 216.958C622.486 216.646 622.25 216.406 621.937 216.24C621.632 216.073 621.253 215.99 620.802 215.99H618.49V228.333H614.833V213.167ZM623.135 228.333L619.781 221.625L623.656 221.604L627.052 228.177V228.333H623.135ZM634.042 228.542C633.125 228.542 632.306 228.399 631.583 228.115C630.861 227.823 630.25 227.424 629.75 226.917C629.257 226.41 628.878 225.826 628.615 225.167C628.358 224.507 628.229 223.809 628.229 223.073V222.677C628.229 221.851 628.344 221.087 628.573 220.385C628.802 219.677 629.142 219.059 629.594 218.531C630.045 218.003 630.611 217.594 631.292 217.302C631.972 217.003 632.764 216.854 633.667 216.854C634.465 216.854 635.181 216.983 635.813 217.24C636.444 217.497 636.979 217.865 637.417 218.344C637.861 218.823 638.198 219.403 638.427 220.083C638.663 220.764 638.781 221.528 638.781 222.375V223.802H629.573V221.604H635.354V221.333C635.361 220.958 635.295 220.639 635.156 220.375C635.024 220.111 634.83 219.91 634.573 219.771C634.316 219.632 634.003 219.562 633.635 219.562C633.253 219.562 632.938 219.646 632.688 219.812C632.444 219.979 632.253 220.208 632.115 220.5C631.983 220.785 631.889 221.115 631.833 221.49C631.778 221.865 631.75 222.26 631.75 222.677V223.073C631.75 223.49 631.806 223.868 631.917 224.208C632.035 224.549 632.201 224.84 632.417 225.083C632.639 225.319 632.903 225.503 633.208 225.635C633.521 225.767 633.875 225.833 634.271 225.833C634.75 225.833 635.222 225.743 635.688 225.562C636.153 225.382 636.552 225.083 636.885 224.667L638.479 226.562C638.25 226.889 637.924 227.205 637.5 227.51C637.083 227.816 636.583 228.066 636 228.26C635.417 228.448 634.764 228.542 634.042 228.542ZM646.063 225.5V220.854C646.063 220.535 646.017 220.26 645.927 220.031C645.837 219.802 645.694 219.625 645.5 219.5C645.306 219.368 645.045 219.302 644.719 219.302C644.455 219.302 644.229 219.347 644.042 219.437C643.854 219.528 643.712 219.663 643.615 219.844C643.517 220.024 643.469 220.253 643.469 220.531H639.958C639.958 220.01 640.073 219.528 640.302 219.083C640.538 218.632 640.872 218.24 641.302 217.906C641.74 217.573 642.26 217.316 642.865 217.135C643.476 216.948 644.156 216.854 644.906 216.854C645.802 216.854 646.601 217.003 647.302 217.302C648.01 217.601 648.569 218.049 648.979 218.646C649.389 219.236 649.594 219.979 649.594 220.875V225.49C649.594 226.226 649.635 226.785 649.719 227.167C649.802 227.542 649.92 227.872 650.073 228.156V228.333H646.552C646.385 227.986 646.26 227.562 646.177 227.062C646.101 226.556 646.063 226.035 646.063 225.5ZM646.49 221.448L646.51 223.323H644.958C644.632 223.323 644.354 223.368 644.125 223.458C643.903 223.549 643.722 223.674 643.583 223.833C643.451 223.986 643.354 224.16 643.292 224.354C643.236 224.549 643.208 224.753 643.208 224.969C643.208 225.177 643.257 225.365 643.354 225.531C643.458 225.691 643.597 225.816 643.771 225.906C643.944 225.997 644.139 226.042 644.354 226.042C644.743 226.042 645.073 225.969 645.344 225.823C645.622 225.67 645.833 225.486 645.979 225.271C646.125 225.056 646.198 224.854 646.198 224.667L646.969 226.104C646.83 226.382 646.67 226.663 646.49 226.948C646.316 227.233 646.097 227.497 645.833 227.74C645.576 227.976 645.26 228.17 644.885 228.323C644.51 228.469 644.056 228.542 643.521 228.542C642.826 228.542 642.188 228.399 641.604 228.115C641.028 227.83 640.566 227.434 640.219 226.927C639.872 226.413 639.698 225.823 639.698 225.156C639.698 224.573 639.802 224.052 640.01 223.594C640.226 223.135 640.549 222.747 640.979 222.427C641.41 222.108 641.958 221.865 642.625 221.698C643.292 221.531 644.076 221.448 644.979 221.448H646.49ZM656.302 225.833C656.628 225.833 656.906 225.774 657.135 225.656C657.372 225.531 657.549 225.358 657.667 225.135C657.792 224.906 657.851 224.632 657.844 224.312H661.146C661.153 225.16 660.944 225.903 660.521 226.542C660.104 227.174 659.535 227.667 658.812 228.021C658.097 228.368 657.288 228.542 656.385 228.542C655.503 228.542 654.733 228.399 654.073 228.115C653.413 227.823 652.861 227.42 652.417 226.906C651.979 226.385 651.649 225.778 651.427 225.083C651.212 224.389 651.104 223.635 651.104 222.823V222.583C651.104 221.771 651.212 221.017 651.427 220.323C651.649 219.622 651.979 219.014 652.417 218.5C652.861 217.979 653.41 217.576 654.062 217.292C654.722 217 655.49 216.854 656.365 216.854C657.302 216.854 658.128 217.031 658.844 217.385C659.566 217.74 660.132 218.253 660.542 218.927C660.951 219.601 661.153 220.417 661.146 221.375H657.844C657.851 221.035 657.799 220.729 657.687 220.458C657.576 220.187 657.403 219.972 657.167 219.812C656.937 219.646 656.642 219.562 656.281 219.562C655.92 219.562 655.628 219.642 655.406 219.802C655.184 219.962 655.014 220.184 654.896 220.469C654.785 220.747 654.708 221.066 654.667 221.427C654.632 221.788 654.615 222.174 654.615 222.583V222.823C654.615 223.24 654.632 223.632 654.667 224C654.708 224.361 654.788 224.681 654.906 224.958C655.024 225.229 655.194 225.444 655.417 225.604C655.639 225.757 655.934 225.833 656.302 225.833ZM668.583 217.062V219.5H661.792V217.062H668.583ZM663.219 214.26H666.729V224.656C666.729 224.955 666.764 225.187 666.833 225.354C666.903 225.514 667.021 225.628 667.188 225.698C667.361 225.76 667.59 225.792 667.875 225.792C668.076 225.792 668.243 225.788 668.375 225.781C668.507 225.767 668.632 225.75 668.75 225.729V228.24C668.451 228.337 668.139 228.41 667.813 228.458C667.486 228.514 667.139 228.542 666.771 228.542C666.021 228.542 665.378 228.424 664.844 228.187C664.316 227.951 663.913 227.58 663.635 227.073C663.358 226.566 663.219 225.906 663.219 225.094V214.26ZM688.125 213.167V228.333H684.479L679.115 218.896V228.333H675.458V213.167H679.115L684.479 222.604V213.167H688.125ZM696.125 225.5V220.854C696.125 220.535 696.08 220.26 695.99 220.031C695.899 219.802 695.757 219.625 695.563 219.5C695.368 219.368 695.108 219.302 694.781 219.302C694.517 219.302 694.292 219.347 694.104 219.437C693.917 219.528 693.774 219.663 693.677 219.844C693.58 220.024 693.531 220.253 693.531 220.531H690.021C690.021 220.01 690.135 219.528 690.365 219.083C690.601 218.632 690.934 218.24 691.365 217.906C691.802 217.573 692.323 217.316 692.927 217.135C693.538 216.948 694.219 216.854 694.969 216.854C695.865 216.854 696.663 217.003 697.365 217.302C698.073 217.601 698.632 218.049 699.042 218.646C699.451 219.236 699.656 219.979 699.656 220.875V225.49C699.656 226.226 699.698 226.785 699.781 227.167C699.865 227.542 699.983 227.872 700.135 228.156V228.333H696.615C696.448 227.986 696.323 227.562 696.24 227.062C696.163 226.556 696.125 226.035 696.125 225.5ZM696.552 221.448L696.573 223.323H695.021C694.694 223.323 694.417 223.368 694.188 223.458C693.965 223.549 693.785 223.674 693.646 223.833C693.514 223.986 693.417 224.16 693.354 224.354C693.299 224.549 693.271 224.753 693.271 224.969C693.271 225.177 693.319 225.365 693.417 225.531C693.521 225.691 693.66 225.816 693.833 225.906C694.007 225.997 694.201 226.042 694.417 226.042C694.806 226.042 695.135 225.969 695.406 225.823C695.684 225.67 695.896 225.486 696.042 225.271C696.188 225.056 696.26 224.854 696.26 224.667L697.031 226.104C696.892 226.382 696.733 226.663 696.552 226.948C696.378 227.233 696.16 227.497 695.896 227.74C695.639 227.976 695.323 228.17 694.948 228.323C694.573 228.469 694.118 228.542 693.583 228.542C692.889 228.542 692.25 228.399 691.667 228.115C691.09 227.83 690.628 227.434 690.281 226.927C689.934 226.413 689.76 225.823 689.76 225.156C689.76 224.573 689.865 224.052 690.073 223.594C690.288 223.135 690.611 222.747 691.042 222.427C691.472 222.108 692.021 221.865 692.688 221.698C693.354 221.531 694.139 221.448 695.042 221.448H696.552ZM707.542 217.062V219.5H700.75V217.062H707.542ZM702.177 214.26H705.687V224.656C705.687 224.955 705.722 225.187 705.792 225.354C705.861 225.514 705.979 225.628 706.146 225.698C706.319 225.76 706.549 225.792 706.833 225.792C707.035 225.792 707.201 225.788 707.333 225.781C707.465 225.767 707.59 225.75 707.708 225.729V228.24C707.41 228.337 707.097 228.41 706.771 228.458C706.444 228.514 706.097 228.542 705.729 228.542C704.979 228.542 704.337 228.424 703.802 228.187C703.274 227.951 702.872 227.58 702.594 227.073C702.316 226.566 702.177 225.906 702.177 225.094V214.26ZM712.646 217.062V228.333H709.125V217.062H712.646ZM708.917 214.156C708.917 213.656 709.097 213.247 709.458 212.927C709.819 212.608 710.288 212.448 710.865 212.448C711.441 212.448 711.91 212.608 712.271 212.927C712.632 213.247 712.813 213.656 712.813 214.156C712.813 214.656 712.632 215.066 712.271 215.385C711.91 215.705 711.441 215.865 710.865 215.865C710.288 215.865 709.819 215.705 709.458 215.385C709.097 215.066 708.917 214.656 708.917 214.156ZM718.875 225.927L721.094 217.062H724.792L721.104 228.333H718.917L718.875 225.927ZM717.563 217.062L719.75 225.927L719.729 228.333H717.531L713.854 217.062H717.563ZM731.146 228.542C730.229 228.542 729.41 228.399 728.688 228.115C727.965 227.823 727.354 227.424 726.854 226.917C726.361 226.41 725.983 225.826 725.719 225.167C725.462 224.507 725.333 223.809 725.333 223.073V222.677C725.333 221.851 725.448 221.087 725.677 220.385C725.906 219.677 726.247 219.059 726.698 218.531C727.149 218.003 727.715 217.594 728.396 217.302C729.076 217.003 729.868 216.854 730.771 216.854C731.569 216.854 732.285 216.983 732.917 217.24C733.549 217.497 734.083 217.865 734.521 218.344C734.965 218.823 735.302 219.403 735.531 220.083C735.767 220.764 735.885 221.528 735.885 222.375V223.802H726.677V221.604H732.458V221.333C732.465 220.958 732.399 220.639 732.26 220.375C732.128 220.111 731.934 219.91 731.677 219.771C731.42 219.632 731.108 219.562 730.74 219.562C730.358 219.562 730.042 219.646 729.792 219.812C729.549 219.979 729.358 220.208 729.219 220.5C729.087 220.785 728.993 221.115 728.938 221.49C728.882 221.865 728.854 222.26 728.854 222.677V223.073C728.854 223.49 728.91 223.868 729.021 224.208C729.139 224.549 729.306 224.84 729.521 225.083C729.743 225.319 730.007 225.503 730.313 225.635C730.625 225.767 730.979 225.833 731.375 225.833C731.854 225.833 732.326 225.743 732.792 225.562C733.257 225.382 733.656 225.083 733.99 224.667L735.583 226.562C735.354 226.889 735.028 227.205 734.604 227.51C734.188 227.816 733.688 228.066 733.104 228.26C732.521 228.448 731.868 228.542 731.146 228.542Z" fill="white"/>
<rect x="803" y="196.333" width="208" height="49.3333" rx="4.66667" fill="#888888" stroke="#888888" stroke-width="4"/>
<path d="M862.656 213.167H865.635L869.021 223.719L872.406 213.167H875.385L870.229 228.333H867.813L862.656 213.167ZM860.844 213.167H863.927L864.5 224.792V228.333H860.844V213.167ZM874.115 213.167H877.208V228.333H873.542V224.792L874.115 213.167ZM878.948 222.812V222.594C878.948 221.767 879.066 221.007 879.302 220.312C879.538 219.611 879.885 219.003 880.344 218.49C880.802 217.976 881.368 217.576 882.042 217.292C882.715 217 883.493 216.854 884.375 216.854C885.264 216.854 886.045 217 886.719 217.292C887.399 217.576 887.969 217.976 888.427 218.49C888.885 219.003 889.233 219.611 889.469 220.312C889.705 221.007 889.823 221.767 889.823 222.594V222.812C889.823 223.632 889.705 224.392 889.469 225.094C889.233 225.788 888.885 226.396 888.427 226.917C887.969 227.431 887.403 227.83 886.729 228.115C886.056 228.399 885.278 228.542 884.396 228.542C883.514 228.542 882.733 228.399 882.052 228.115C881.372 227.83 880.802 227.431 880.344 226.917C879.885 226.396 879.538 225.788 879.302 225.094C879.066 224.392 878.948 223.632 878.948 222.812ZM882.458 222.594V222.812C882.458 223.236 882.49 223.632 882.552 224C882.615 224.368 882.719 224.691 882.865 224.969C883.01 225.24 883.208 225.451 883.458 225.604C883.708 225.757 884.021 225.833 884.396 225.833C884.764 225.833 885.069 225.757 885.313 225.604C885.563 225.451 885.76 225.24 885.906 224.969C886.052 224.691 886.156 224.368 886.219 224C886.281 223.632 886.313 223.236 886.313 222.812V222.594C886.313 222.184 886.281 221.799 886.219 221.437C886.156 221.069 886.052 220.747 885.906 220.469C885.76 220.184 885.563 219.962 885.313 219.802C885.063 219.642 884.75 219.562 884.375 219.562C884.007 219.562 883.698 219.642 883.448 219.802C883.205 219.962 883.01 220.184 882.865 220.469C882.719 220.747 882.615 221.069 882.552 221.437C882.49 221.799 882.458 222.184 882.458 222.594ZM894.833 219.469V228.333H891.323V217.062H894.615L894.833 219.469ZM894.417 222.312L893.594 222.333C893.594 221.472 893.698 220.705 893.906 220.031C894.115 219.351 894.41 218.774 894.792 218.302C895.174 217.83 895.628 217.472 896.156 217.229C896.691 216.979 897.285 216.854 897.938 216.854C898.458 216.854 898.934 216.931 899.365 217.083C899.802 217.236 900.177 217.483 900.49 217.823C900.809 218.163 901.052 218.615 901.219 219.177C901.392 219.733 901.479 220.42 901.479 221.24V228.333H897.948V221.229C897.948 220.778 897.885 220.434 897.76 220.198C897.635 219.955 897.455 219.788 897.219 219.698C896.983 219.608 896.694 219.562 896.354 219.562C895.993 219.562 895.688 219.632 895.438 219.771C895.188 219.91 894.986 220.104 894.833 220.354C894.688 220.597 894.58 220.885 894.51 221.219C894.448 221.552 894.417 221.917 894.417 222.312ZM910.51 217.062H913.698V227.896C913.698 228.937 913.458 229.819 912.979 230.542C912.5 231.271 911.83 231.823 910.969 232.198C910.115 232.58 909.115 232.771 907.969 232.771C907.462 232.771 906.944 232.705 906.417 232.573C905.889 232.448 905.396 232.26 904.938 232.01C904.479 231.76 904.094 231.451 903.781 231.083L905.25 229.021C905.535 229.34 905.892 229.611 906.323 229.833C906.753 230.062 907.26 230.177 907.844 230.177C908.351 230.177 908.774 230.087 909.115 229.906C909.462 229.726 909.726 229.462 909.906 229.115C910.087 228.774 910.177 228.361 910.177 227.875V219.729L910.51 217.062ZM903.021 222.833V222.615C903.021 221.76 903.125 220.983 903.333 220.281C903.549 219.573 903.854 218.965 904.25 218.458C904.653 217.944 905.139 217.549 905.708 217.271C906.278 216.993 906.92 216.854 907.635 216.854C908.406 216.854 909.038 217.003 909.531 217.302C910.031 217.594 910.431 218.003 910.729 218.531C911.035 219.059 911.271 219.677 911.438 220.385C911.611 221.087 911.757 221.844 911.875 222.656V222.917C911.757 223.681 911.594 224.403 911.385 225.083C911.184 225.757 910.92 226.354 910.594 226.875C910.267 227.396 909.858 227.806 909.365 228.104C908.878 228.396 908.295 228.542 907.615 228.542C906.906 228.542 906.267 228.399 905.698 228.115C905.135 227.83 904.653 227.431 904.25 226.917C903.854 226.403 903.549 225.799 903.333 225.104C903.125 224.41 903.021 223.653 903.021 222.833ZM906.531 222.615V222.833C906.531 223.257 906.569 223.649 906.646 224.01C906.729 224.372 906.854 224.691 907.021 224.969C907.188 225.24 907.392 225.451 907.635 225.604C907.885 225.757 908.177 225.833 908.51 225.833C909.017 225.833 909.427 225.726 909.74 225.51C910.052 225.295 910.278 224.99 910.417 224.594C910.556 224.198 910.615 223.733 910.594 223.198V222.375C910.608 221.917 910.576 221.514 910.5 221.167C910.424 220.812 910.302 220.517 910.135 220.281C909.976 220.045 909.76 219.868 909.49 219.75C909.226 219.625 908.906 219.562 908.531 219.562C908.205 219.562 907.917 219.639 907.667 219.792C907.417 219.944 907.208 220.16 907.042 220.437C906.875 220.708 906.747 221.031 906.656 221.406C906.573 221.774 906.531 222.177 906.531 222.615ZM915.281 222.812V222.594C915.281 221.767 915.399 221.007 915.635 220.312C915.872 219.611 916.219 219.003 916.677 218.49C917.135 217.976 917.701 217.576 918.375 217.292C919.049 217 919.826 216.854 920.708 216.854C921.597 216.854 922.378 217 923.052 217.292C923.733 217.576 924.302 217.976 924.76 218.49C925.219 219.003 925.566 219.611 925.802 220.312C926.038 221.007 926.156 221.767 926.156 222.594V222.812C926.156 223.632 926.038 224.392 925.802 225.094C925.566 225.788 925.219 226.396 924.76 226.917C924.302 227.431 923.736 227.83 923.063 228.115C922.389 228.399 921.611 228.542 920.729 228.542C919.847 228.542 919.066 228.399 918.385 228.115C917.705 227.83 917.135 227.431 916.677 226.917C916.219 226.396 915.872 225.788 915.635 225.094C915.399 224.392 915.281 223.632 915.281 222.812ZM918.792 222.594V222.812C918.792 223.236 918.823 223.632 918.885 224C918.948 224.368 919.052 224.691 919.198 224.969C919.344 225.24 919.542 225.451 919.792 225.604C920.042 225.757 920.354 225.833 920.729 225.833C921.097 225.833 921.403 225.757 921.646 225.604C921.896 225.451 922.094 225.24 922.24 224.969C922.385 224.691 922.49 224.368 922.552 224C922.615 223.632 922.646 223.236 922.646 222.812V222.594C922.646 222.184 922.615 221.799 922.552 221.437C922.49 221.069 922.385 220.747 922.24 220.469C922.094 220.184 921.896 219.962 921.646 219.802C921.396 219.642 921.083 219.562 920.708 219.562C920.34 219.562 920.031 219.642 919.781 219.802C919.538 219.962 919.344 220.184 919.198 220.469C919.052 220.747 918.948 221.069 918.885 221.437C918.823 221.799 918.792 222.184 918.792 222.594ZM932.813 228.333H929.448L929.469 225.521H932.813C933.507 225.521 934.094 225.354 934.573 225.021C935.059 224.687 935.427 224.191 935.677 223.531C935.934 222.865 936.063 222.045 936.063 221.073V220.417C936.063 219.687 935.99 219.049 935.844 218.5C935.705 217.944 935.497 217.483 935.219 217.115C934.941 216.74 934.594 216.458 934.177 216.271C933.767 216.083 933.295 215.99 932.76 215.99H929.385V213.167H932.76C933.788 213.167 934.729 213.344 935.583 213.698C936.444 214.045 937.188 214.545 937.813 215.198C938.444 215.844 938.931 216.611 939.271 217.5C939.618 218.382 939.792 219.361 939.792 220.437V221.073C939.792 222.142 939.618 223.122 939.271 224.01C938.931 224.899 938.448 225.667 937.823 226.312C937.198 226.958 936.458 227.458 935.604 227.812C934.757 228.16 933.826 228.333 932.813 228.333ZM931.542 213.167V228.333H927.885V213.167H931.542ZM947.885 221.885H943.979L943.958 219.49H947.125C947.694 219.49 948.149 219.427 948.49 219.302C948.83 219.17 949.076 218.979 949.229 218.729C949.389 218.479 949.469 218.167 949.469 217.792C949.469 217.361 949.389 217.014 949.229 216.75C949.069 216.486 948.816 216.295 948.469 216.177C948.128 216.052 947.688 215.99 947.146 215.99H945.354V228.333H941.698V213.167H947.146C948.083 213.167 948.92 213.253 949.656 213.427C950.392 213.594 951.017 213.851 951.531 214.198C952.052 214.545 952.448 214.983 952.719 215.51C952.99 216.031 953.125 216.646 953.125 217.354C953.125 217.972 952.993 218.552 952.729 219.094C952.465 219.635 952.024 220.076 951.406 220.417C950.795 220.75 949.958 220.924 948.896 220.937L947.885 221.885ZM947.74 228.333H943.094L944.344 225.521H947.74C948.24 225.521 948.639 225.444 948.938 225.292C949.243 225.132 949.462 224.924 949.594 224.667C949.733 224.403 949.802 224.111 949.802 223.792C949.802 223.403 949.736 223.066 949.604 222.781C949.479 222.497 949.278 222.278 949 222.125C948.722 221.965 948.351 221.885 947.885 221.885H944.813L944.833 219.49H948.51L949.365 220.448C950.378 220.406 951.181 220.549 951.771 220.875C952.368 221.201 952.795 221.632 953.052 222.167C953.309 222.701 953.438 223.26 953.438 223.844C953.438 224.837 953.222 225.667 952.792 226.333C952.368 227 951.733 227.5 950.885 227.833C950.038 228.167 948.99 228.333 947.74 228.333Z" fill="white"/>
</svg>
