<svg width="1363" height="301" viewBox="0 0 1363 301" fill="none" xmlns="http://www.w3.org/2000/svg">
<rect width="1363" height="301" rx="15" fill="#F0F0F0"/>
<path d="M0 15C0 6.71573 6.71573 0 15 0H37V301H15C6.71573 301 0 294.284 0 286V15Z" fill="#009FFF"/>
<path d="M110.584 130.733H100.862V123.456H110.584C111.909 123.456 112.983 123.232 113.807 122.784C114.63 122.337 115.23 121.719 115.606 120.931C116 120.125 116.197 119.221 116.197 118.219C116.197 117.145 116 116.151 115.606 115.238C115.23 114.325 114.63 113.591 113.807 113.036C112.983 112.463 111.909 112.176 110.584 112.176H104.407V144H94.981V104.898H110.584C113.717 104.898 116.412 105.471 118.667 106.617C120.941 107.763 122.687 109.339 123.904 111.344C125.122 113.331 125.73 115.605 125.73 118.165C125.73 120.689 125.122 122.892 123.904 124.771C122.687 126.651 120.941 128.119 118.667 129.176C116.412 130.214 113.717 130.733 110.584 130.733ZM139.239 102.75V144H130.188V102.75H139.239ZM138.165 128.478L136.043 128.531C136.043 126.49 136.294 124.61 136.795 122.892C137.296 121.173 138.012 119.678 138.943 118.407C139.874 117.136 140.993 116.151 142.3 115.453C143.607 114.754 145.057 114.405 146.651 114.405C148.083 114.405 149.39 114.611 150.572 115.023C151.771 115.435 152.801 116.097 153.66 117.01C154.537 117.923 155.209 119.114 155.674 120.582C156.158 122.05 156.399 123.84 156.399 125.953V144H147.295V125.899C147.295 124.718 147.125 123.805 146.785 123.16C146.463 122.498 145.997 122.041 145.389 121.791C144.78 121.522 144.037 121.388 143.16 121.388C142.103 121.388 141.244 121.567 140.582 121.925C139.919 122.283 139.409 122.784 139.051 123.429C138.711 124.055 138.478 124.798 138.353 125.658C138.227 126.517 138.165 127.457 138.165 128.478ZM176.514 136.695V124.718C176.514 123.894 176.398 123.187 176.165 122.596C175.932 122.005 175.565 121.549 175.064 121.227C174.563 120.886 173.891 120.716 173.05 120.716C172.369 120.716 171.788 120.833 171.304 121.065C170.821 121.298 170.454 121.647 170.203 122.113C169.952 122.578 169.827 123.169 169.827 123.885H160.777C160.777 122.542 161.072 121.298 161.663 120.152C162.272 118.989 163.131 117.977 164.241 117.118C165.369 116.258 166.712 115.596 168.27 115.13C169.845 114.647 171.6 114.405 173.533 114.405C175.843 114.405 177.902 114.79 179.71 115.56C181.536 116.33 182.977 117.485 184.034 119.024C185.09 120.546 185.618 122.462 185.618 124.771V136.668C185.618 138.566 185.726 140.007 185.94 140.992C186.155 141.959 186.46 142.809 186.854 143.543V144H177.776C177.347 143.105 177.024 142.013 176.81 140.724C176.613 139.417 176.514 138.074 176.514 136.695ZM177.615 126.249L177.669 131.083H173.667C172.826 131.083 172.11 131.199 171.519 131.432C170.946 131.664 170.481 131.987 170.123 132.398C169.782 132.792 169.532 133.24 169.371 133.741C169.227 134.243 169.156 134.771 169.156 135.326C169.156 135.863 169.281 136.346 169.532 136.776C169.8 137.188 170.158 137.51 170.606 137.743C171.054 137.975 171.555 138.092 172.11 138.092C173.112 138.092 173.963 137.904 174.661 137.528C175.377 137.134 175.923 136.66 176.299 136.104C176.675 135.549 176.863 135.03 176.863 134.547L178.851 138.253C178.493 138.969 178.081 139.694 177.615 140.428C177.168 141.162 176.604 141.843 175.923 142.469C175.261 143.078 174.446 143.579 173.479 143.973C172.513 144.349 171.34 144.537 169.961 144.537C168.171 144.537 166.524 144.17 165.02 143.436C163.534 142.702 162.343 141.681 161.448 140.375C160.553 139.05 160.105 137.528 160.105 135.809C160.105 134.305 160.374 132.962 160.911 131.781C161.466 130.599 162.299 129.597 163.409 128.773C164.519 127.949 165.933 127.323 167.652 126.893C169.371 126.463 171.394 126.249 173.721 126.249H177.615ZM199.771 122.14V144H190.721V114.942H199.18L199.771 122.14ZM208.365 114.728L208.204 123.133C207.846 123.097 207.362 123.053 206.753 122.999C206.145 122.945 205.634 122.918 205.223 122.918C204.166 122.918 203.253 123.044 202.483 123.294C201.731 123.527 201.105 123.885 200.604 124.369C200.12 124.834 199.762 125.425 199.529 126.141C199.314 126.857 199.216 127.69 199.234 128.639L197.596 127.564C197.596 125.613 197.784 123.84 198.16 122.247C198.554 120.636 199.109 119.248 199.825 118.084C200.541 116.903 201.409 115.999 202.43 115.372C203.45 114.728 204.596 114.405 205.867 114.405C206.315 114.405 206.753 114.432 207.183 114.486C207.631 114.54 208.025 114.62 208.365 114.728ZM220.611 121.092V144H211.561V114.942H220.047L220.611 121.092ZM219.51 128.478L217.442 128.531C217.442 126.49 217.684 124.61 218.167 122.892C218.65 121.173 219.367 119.678 220.315 118.407C221.264 117.136 222.428 116.151 223.807 115.453C225.203 114.754 226.814 114.405 228.641 114.405C229.912 114.405 231.067 114.602 232.105 114.996C233.143 115.372 234.039 115.972 234.791 116.795C235.542 117.601 236.115 118.657 236.509 119.964C236.921 121.253 237.127 122.802 237.127 124.61V144H228.077V125.765C228.077 124.53 227.933 123.599 227.647 122.972C227.378 122.346 226.985 121.925 226.465 121.71C225.946 121.495 225.311 121.388 224.559 121.388C223.771 121.388 223.064 121.567 222.437 121.925C221.81 122.283 221.273 122.784 220.826 123.429C220.396 124.055 220.065 124.798 219.832 125.658C219.617 126.517 219.51 127.457 219.51 128.478ZM236.106 128.478L233.582 128.531C233.582 126.49 233.806 124.61 234.253 122.892C234.719 121.173 235.408 119.678 236.321 118.407C237.252 117.136 238.407 116.151 239.786 115.453C241.164 114.754 242.767 114.405 244.593 114.405C245.918 114.405 247.135 114.602 248.245 114.996C249.355 115.39 250.313 116.026 251.119 116.903C251.924 117.78 252.551 118.944 252.999 120.394C253.446 121.826 253.67 123.599 253.67 125.711V144H244.593V125.711C244.593 124.512 244.45 123.608 244.163 122.999C243.895 122.372 243.501 121.952 242.981 121.737C242.462 121.504 241.845 121.388 241.128 121.388C240.269 121.388 239.526 121.567 238.899 121.925C238.273 122.283 237.745 122.784 237.315 123.429C236.903 124.055 236.599 124.798 236.402 125.658C236.205 126.517 236.106 127.457 236.106 128.478ZM273.946 136.695V124.718C273.946 123.894 273.829 123.187 273.597 122.596C273.364 122.005 272.997 121.549 272.496 121.227C271.994 120.886 271.323 120.716 270.481 120.716C269.801 120.716 269.219 120.833 268.736 121.065C268.252 121.298 267.885 121.647 267.635 122.113C267.384 122.578 267.259 123.169 267.259 123.885H258.208C258.208 122.542 258.504 121.298 259.095 120.152C259.703 118.989 260.563 117.977 261.673 117.118C262.801 116.258 264.144 115.596 265.701 115.13C267.277 114.647 269.031 114.405 270.965 114.405C273.274 114.405 275.333 114.79 277.142 115.56C278.968 116.33 280.409 117.485 281.465 119.024C282.522 120.546 283.05 122.462 283.05 124.771V136.668C283.05 138.566 283.157 140.007 283.372 140.992C283.587 141.959 283.891 142.809 284.285 143.543V144H275.208C274.778 143.105 274.456 142.013 274.241 140.724C274.044 139.417 273.946 138.074 273.946 136.695ZM275.047 126.249L275.101 131.083H271.099C270.258 131.083 269.542 131.199 268.951 131.432C268.378 131.664 267.912 131.987 267.554 132.398C267.214 132.792 266.963 133.24 266.802 133.741C266.659 134.243 266.587 134.771 266.587 135.326C266.587 135.863 266.713 136.346 266.963 136.776C267.232 137.188 267.59 137.51 268.038 137.743C268.485 137.975 268.986 138.092 269.542 138.092C270.544 138.092 271.395 137.904 272.093 137.528C272.809 137.134 273.355 136.66 273.731 136.104C274.107 135.549 274.295 135.03 274.295 134.547L276.282 138.253C275.924 138.969 275.512 139.694 275.047 140.428C274.599 141.162 274.035 141.843 273.355 142.469C272.693 143.078 271.878 143.579 270.911 143.973C269.944 144.349 268.772 144.537 267.393 144.537C265.603 144.537 263.956 144.17 262.452 143.436C260.966 142.702 259.775 141.681 258.88 140.375C257.985 139.05 257.537 137.528 257.537 135.809C257.537 134.305 257.806 132.962 258.343 131.781C258.898 130.599 259.73 129.597 260.84 128.773C261.95 127.949 263.365 127.323 265.083 126.893C266.802 126.463 268.825 126.249 271.153 126.249H275.047ZM314.336 136.749V144H294.571V136.749H314.336ZM297.928 104.898V144H288.501V104.898H297.928ZM331.954 144.537C329.59 144.537 327.478 144.17 325.616 143.436C323.754 142.684 322.178 141.655 320.889 140.348C319.618 139.041 318.642 137.537 317.962 135.836C317.299 134.135 316.968 132.336 316.968 130.438V129.417C316.968 127.287 317.264 125.318 317.854 123.509C318.445 121.683 319.323 120.09 320.486 118.729C321.65 117.368 323.109 116.312 324.864 115.56C326.618 114.79 328.659 114.405 330.987 114.405C333.046 114.405 334.89 114.736 336.519 115.399C338.148 116.061 339.527 117.01 340.655 118.246C341.801 119.481 342.669 120.976 343.26 122.73C343.868 124.485 344.173 126.454 344.173 128.639V132.318H320.433V126.651H335.337V125.953C335.355 124.986 335.185 124.163 334.827 123.482C334.487 122.802 333.986 122.283 333.323 121.925C332.661 121.567 331.855 121.388 330.906 121.388C329.922 121.388 329.107 121.603 328.462 122.032C327.836 122.462 327.343 123.053 326.985 123.805C326.645 124.539 326.403 125.389 326.26 126.356C326.117 127.323 326.045 128.343 326.045 129.417V130.438C326.045 131.512 326.189 132.488 326.475 133.365C326.779 134.243 327.209 134.994 327.764 135.621C328.337 136.23 329.017 136.704 329.805 137.044C330.611 137.385 331.524 137.555 332.544 137.555C333.78 137.555 334.997 137.322 336.197 136.856C337.396 136.391 338.426 135.621 339.285 134.547L343.394 139.435C342.803 140.276 341.962 141.091 340.87 141.878C339.795 142.666 338.506 143.311 337.002 143.812C335.499 144.295 333.816 144.537 331.954 144.537ZM347.933 102.75H356.983V136.856L356.043 144H347.933V102.75ZM374.815 129.149V129.713C374.815 131.915 374.591 133.92 374.144 135.729C373.696 137.537 373.007 139.103 372.076 140.428C371.145 141.735 369.972 142.747 368.558 143.463C367.143 144.179 365.469 144.537 363.536 144.537C361.781 144.537 360.277 144.161 359.024 143.409C357.771 142.639 356.723 141.583 355.882 140.24C355.04 138.88 354.36 137.313 353.841 135.541C353.322 133.75 352.91 131.834 352.605 129.793V129.122C352.91 127.099 353.322 125.201 353.841 123.429C354.36 121.638 355.04 120.072 355.882 118.729C356.723 117.368 357.762 116.312 358.997 115.56C360.25 114.79 361.745 114.405 363.482 114.405C365.433 114.405 367.116 114.772 368.531 115.506C369.963 116.24 371.145 117.27 372.076 118.595C373.007 119.92 373.696 121.477 374.144 123.268C374.591 125.058 374.815 127.018 374.815 129.149ZM365.765 129.713V129.149C365.765 128.093 365.702 127.099 365.577 126.168C365.451 125.237 365.228 124.413 364.905 123.697C364.583 122.981 364.126 122.417 363.536 122.005C362.945 121.594 362.175 121.388 361.226 121.388C360.259 121.388 359.445 121.549 358.782 121.871C358.138 122.193 357.618 122.659 357.225 123.268C356.849 123.858 356.58 124.592 356.419 125.47C356.258 126.329 356.186 127.305 356.204 128.397V130.519C356.168 132.005 356.303 133.276 356.607 134.332C356.911 135.388 357.439 136.194 358.191 136.749C358.943 137.304 359.973 137.582 361.28 137.582C362.247 137.582 363.025 137.394 363.616 137.018C364.225 136.642 364.681 136.104 364.986 135.406C365.29 134.708 365.496 133.875 365.604 132.909C365.711 131.942 365.765 130.877 365.765 129.713Z" fill="black"/>
<path d="M112.217 76.001V80H94.5806V76.001H112.217ZM111.961 57.9712L96.8535 80H93.2476V77.0605L108.475 55.1172H111.961V57.9712ZM110.201 55.1172V59.1333H93.2646V55.1172H110.201ZM125.154 75.8301V67.5928C125.154 67.0003 125.057 66.4933 124.864 66.0718C124.67 65.6388 124.368 65.3027 123.958 65.0635C123.559 64.8242 123.041 64.7046 122.403 64.7046C121.856 64.7046 121.383 64.8014 120.984 64.9951C120.586 65.1774 120.278 65.4451 120.062 65.7983C119.845 66.1401 119.737 66.5446 119.737 67.0117H114.815C114.815 66.2256 114.997 65.4793 115.362 64.7729C115.726 64.0666 116.256 63.4456 116.951 62.9102C117.646 62.3633 118.472 61.936 119.429 61.6284C120.398 61.3208 121.48 61.167 122.676 61.167C124.112 61.167 125.388 61.4062 126.504 61.8848C127.621 62.3633 128.498 63.0811 129.136 64.0381C129.786 64.9951 130.11 66.1914 130.11 67.627V75.5396C130.11 76.5535 130.173 77.3853 130.298 78.0347C130.424 78.6727 130.606 79.231 130.845 79.7095V80H125.872C125.633 79.4987 125.451 78.8721 125.325 78.1201C125.211 77.3568 125.154 76.5934 125.154 75.8301ZM125.804 68.7378L125.838 71.5234H123.086C122.437 71.5234 121.873 71.5975 121.395 71.7456C120.916 71.8937 120.523 72.1045 120.215 72.3779C119.908 72.64 119.68 72.9476 119.532 73.3008C119.395 73.654 119.327 74.0413 119.327 74.4629C119.327 74.8844 119.424 75.2661 119.617 75.6079C119.811 75.9383 120.09 76.2004 120.455 76.394C120.819 76.5763 121.246 76.6675 121.736 76.6675C122.477 76.6675 123.121 76.5194 123.667 76.2231C124.214 75.9269 124.636 75.5623 124.932 75.1294C125.24 74.6965 125.399 74.2863 125.411 73.8989L126.709 75.9839C126.527 76.451 126.277 76.9352 125.958 77.4365C125.65 77.9378 125.257 78.4106 124.778 78.855C124.3 79.2879 123.724 79.6468 123.052 79.9316C122.38 80.2051 121.583 80.3418 120.66 80.3418C119.486 80.3418 118.421 80.1082 117.464 79.6411C116.518 79.1626 115.766 78.5075 115.208 77.6758C114.661 76.8327 114.388 75.8757 114.388 74.8047C114.388 73.8363 114.57 72.9761 114.935 72.2241C115.299 71.4722 115.835 70.8398 116.541 70.3271C117.259 69.8031 118.153 69.41 119.224 69.1479C120.295 68.8745 121.537 68.7378 122.95 68.7378H125.804ZM138.826 53.7329V80H133.904V53.7329H138.826ZM150.481 61.5088L142.449 70.6689L138.143 75.0269L136.348 71.4722L139.766 67.1313L144.568 61.5088H150.481ZM145.372 80L139.903 71.4551L143.304 68.4814L151.045 80H145.372ZM162.581 75.8301V67.5928C162.581 67.0003 162.484 66.4933 162.291 66.0718C162.097 65.6388 161.795 65.3027 161.385 65.0635C160.986 64.8242 160.468 64.7046 159.83 64.7046C159.283 64.7046 158.81 64.8014 158.411 64.9951C158.012 65.1774 157.705 65.4451 157.488 65.7983C157.272 66.1401 157.164 66.5446 157.164 67.0117H152.242C152.242 66.2256 152.424 65.4793 152.789 64.7729C153.153 64.0666 153.683 63.4456 154.378 62.9102C155.073 62.3633 155.899 61.936 156.856 61.6284C157.824 61.3208 158.907 61.167 160.103 61.167C161.539 61.167 162.815 61.4062 163.931 61.8848C165.048 62.3633 165.925 63.0811 166.563 64.0381C167.212 64.9951 167.537 66.1914 167.537 67.627V75.5396C167.537 76.5535 167.6 77.3853 167.725 78.0347C167.85 78.6727 168.033 79.231 168.272 79.7095V80H163.299C163.06 79.4987 162.877 78.8721 162.752 78.1201C162.638 77.3568 162.581 76.5934 162.581 75.8301ZM163.23 68.7378L163.265 71.5234H160.513C159.864 71.5234 159.3 71.5975 158.821 71.7456C158.343 71.8937 157.95 72.1045 157.642 72.3779C157.334 72.64 157.107 72.9476 156.958 73.3008C156.822 73.654 156.753 74.0413 156.753 74.4629C156.753 74.8844 156.85 75.2661 157.044 75.6079C157.238 75.9383 157.517 76.2004 157.881 76.394C158.246 76.5763 158.673 76.6675 159.163 76.6675C159.904 76.6675 160.547 76.5194 161.094 76.2231C161.641 75.9269 162.063 75.5623 162.359 75.1294C162.667 74.6965 162.826 74.2863 162.837 73.8989L164.136 75.9839C163.954 76.451 163.703 76.9352 163.384 77.4365C163.077 77.9378 162.684 78.4106 162.205 78.855C161.727 79.2879 161.151 79.6468 160.479 79.9316C159.807 80.2051 159.009 80.3418 158.086 80.3418C156.913 80.3418 155.848 80.1082 154.891 79.6411C153.945 79.1626 153.193 78.5075 152.635 77.6758C152.088 76.8327 151.814 75.8757 151.814 74.8047C151.814 73.8363 151.997 72.9761 152.361 72.2241C152.726 71.4722 153.261 70.8398 153.968 70.3271C154.686 69.8031 155.58 69.41 156.651 69.1479C157.722 68.8745 158.964 68.7378 160.376 68.7378H163.23ZM176.253 65.542V80H171.331V61.5088H175.962L176.253 65.542ZM181.824 61.3892L181.739 65.9521C181.5 65.918 181.209 65.8895 180.867 65.8667C180.537 65.8325 180.235 65.8154 179.961 65.8154C179.266 65.8154 178.663 65.9066 178.15 66.0889C177.649 66.2598 177.227 66.5161 176.885 66.8579C176.555 67.1997 176.304 67.6156 176.133 68.1055C175.974 68.5954 175.883 69.1536 175.86 69.7803L174.869 69.4727C174.869 68.2764 174.988 67.1769 175.228 66.1743C175.467 65.1603 175.814 64.2773 176.27 63.5254C176.737 62.7734 177.307 62.1924 177.979 61.7822C178.651 61.3721 179.42 61.167 180.286 61.167C180.56 61.167 180.839 61.1898 181.124 61.2354C181.408 61.2695 181.642 61.3208 181.824 61.3892ZM189.344 61.5088V80H184.405V61.5088H189.344ZM184.097 56.6895C184.097 55.9717 184.348 55.3792 184.849 54.9121C185.35 54.445 186.023 54.2114 186.866 54.2114C187.697 54.2114 188.364 54.445 188.865 54.9121C189.378 55.3792 189.634 55.9717 189.634 56.6895C189.634 57.4072 189.378 57.9997 188.865 58.4668C188.364 58.9339 187.697 59.1675 186.866 59.1675C186.023 59.1675 185.35 58.9339 184.849 58.4668C184.348 57.9997 184.097 57.4072 184.097 56.6895ZM203.392 75.8301V67.5928C203.392 67.0003 203.295 66.4933 203.101 66.0718C202.907 65.6388 202.605 65.3027 202.195 65.0635C201.797 64.8242 201.278 64.7046 200.64 64.7046C200.093 64.7046 199.62 64.8014 199.222 64.9951C198.823 65.1774 198.515 65.4451 198.299 65.7983C198.082 66.1401 197.974 66.5446 197.974 67.0117H193.052C193.052 66.2256 193.235 65.4793 193.599 64.7729C193.964 64.0666 194.493 63.4456 195.188 62.9102C195.883 62.3633 196.709 61.936 197.667 61.6284C198.635 61.3208 199.717 61.167 200.914 61.167C202.349 61.167 203.625 61.4062 204.742 61.8848C205.858 62.3633 206.736 63.0811 207.374 64.0381C208.023 64.9951 208.348 66.1914 208.348 67.627V75.5396C208.348 76.5535 208.41 77.3853 208.536 78.0347C208.661 78.6727 208.843 79.231 209.083 79.7095V80H204.109C203.87 79.4987 203.688 78.8721 203.562 78.1201C203.449 77.3568 203.392 76.5934 203.392 75.8301ZM204.041 68.7378L204.075 71.5234H201.324C200.674 71.5234 200.11 71.5975 199.632 71.7456C199.153 71.8937 198.76 72.1045 198.453 72.3779C198.145 72.64 197.917 72.9476 197.769 73.3008C197.632 73.654 197.564 74.0413 197.564 74.4629C197.564 74.8844 197.661 75.2661 197.854 75.6079C198.048 75.9383 198.327 76.2004 198.692 76.394C199.056 76.5763 199.484 76.6675 199.974 76.6675C200.714 76.6675 201.358 76.5194 201.905 76.2231C202.452 75.9269 202.873 75.5623 203.169 75.1294C203.477 74.6965 203.637 74.2863 203.648 73.8989L204.947 75.9839C204.764 76.451 204.514 76.9352 204.195 77.4365C203.887 77.9378 203.494 78.4106 203.016 78.855C202.537 79.2879 201.962 79.6468 201.29 79.9316C200.617 80.2051 199.82 80.3418 198.897 80.3418C197.723 80.3418 196.658 80.1082 195.701 79.6411C194.756 79.1626 194.004 78.5075 193.445 77.6758C192.898 76.8327 192.625 75.8757 192.625 74.8047C192.625 73.8363 192.807 72.9761 193.172 72.2241C193.536 71.4722 194.072 70.8398 194.778 70.3271C195.496 69.8031 196.39 69.41 197.461 69.1479C198.532 68.8745 199.774 68.7378 201.187 68.7378H204.041ZM231.368 55.1172V80H226.258V55.1172H231.368ZM239.024 55.1172V59.1333H218.721V55.1172H239.024ZM249.021 75.8301V67.5928C249.021 67.0003 248.925 66.4933 248.731 66.0718C248.537 65.6388 248.235 65.3027 247.825 65.0635C247.426 64.8242 246.908 64.7046 246.27 64.7046C245.723 64.7046 245.25 64.8014 244.852 64.9951C244.453 65.1774 244.145 65.4451 243.929 65.7983C243.712 66.1401 243.604 66.5446 243.604 67.0117H238.682C238.682 66.2256 238.864 65.4793 239.229 64.7729C239.594 64.0666 240.123 63.4456 240.818 62.9102C241.513 62.3633 242.339 61.936 243.296 61.6284C244.265 61.3208 245.347 61.167 246.543 61.167C247.979 61.167 249.255 61.4062 250.372 61.8848C251.488 62.3633 252.365 63.0811 253.003 64.0381C253.653 64.9951 253.978 66.1914 253.978 67.627V75.5396C253.978 76.5535 254.04 77.3853 254.166 78.0347C254.291 78.6727 254.473 79.231 254.712 79.7095V80H249.739C249.5 79.4987 249.318 78.8721 249.192 78.1201C249.078 77.3568 249.021 76.5934 249.021 75.8301ZM249.671 68.7378L249.705 71.5234H246.954C246.304 71.5234 245.74 71.5975 245.262 71.7456C244.783 71.8937 244.39 72.1045 244.083 72.3779C243.775 72.64 243.547 72.9476 243.399 73.3008C243.262 73.654 243.194 74.0413 243.194 74.4629C243.194 74.8844 243.291 75.2661 243.484 75.6079C243.678 75.9383 243.957 76.2004 244.322 76.394C244.686 76.5763 245.114 76.6675 245.604 76.6675C246.344 76.6675 246.988 76.5194 247.535 76.2231C248.082 75.9269 248.503 75.5623 248.799 75.1294C249.107 74.6965 249.266 74.2863 249.278 73.8989L250.577 75.9839C250.394 76.451 250.144 76.9352 249.825 77.4365C249.517 77.9378 249.124 78.4106 248.646 78.855C248.167 79.2879 247.592 79.6468 246.919 79.9316C246.247 80.2051 245.45 80.3418 244.527 80.3418C243.353 80.3418 242.288 80.1082 241.331 79.6411C240.385 79.1626 239.633 78.5075 239.075 77.6758C238.528 76.8327 238.255 75.8757 238.255 74.8047C238.255 73.8363 238.437 72.9761 238.802 72.2241C239.166 71.4722 239.702 70.8398 240.408 70.3271C241.126 69.8031 242.02 69.41 243.091 69.1479C244.162 68.8745 245.404 68.7378 246.817 68.7378H249.671ZM262.693 53.7329V80H257.771V53.7329H262.693ZM274.349 61.5088L266.316 70.6689L262.01 75.0269L260.215 71.4722L263.633 67.1313L268.436 61.5088H274.349ZM269.239 80L263.77 71.4551L267.171 68.4814L274.913 80H269.239ZM281.39 53.7329V80H276.468V53.7329H281.39ZM293.045 61.5088L285.013 70.6689L280.706 75.0269L278.912 71.4722L282.33 67.1313L287.132 61.5088H293.045ZM287.935 80L282.466 71.4551L285.867 68.4814L293.609 80H287.935ZM294.378 70.9424V70.5835C294.378 69.2277 294.572 67.9801 294.959 66.8408C295.346 65.6901 295.91 64.6932 296.651 63.8501C297.391 63.007 298.303 62.3519 299.385 61.8848C300.468 61.4062 301.709 61.167 303.111 61.167C304.512 61.167 305.76 61.4062 306.854 61.8848C307.947 62.3519 308.864 63.007 309.605 63.8501C310.357 64.6932 310.927 65.6901 311.314 66.8408C311.701 67.9801 311.895 69.2277 311.895 70.5835V70.9424C311.895 72.2868 311.701 73.5343 311.314 74.6851C310.927 75.8244 310.357 76.8213 309.605 77.6758C308.864 78.5189 307.953 79.174 306.871 79.6411C305.788 80.1082 304.546 80.3418 303.145 80.3418C301.744 80.3418 300.496 80.1082 299.402 79.6411C298.32 79.174 297.403 78.5189 296.651 77.6758C295.91 76.8213 295.346 75.8244 294.959 74.6851C294.572 73.5343 294.378 72.2868 294.378 70.9424ZM299.3 70.5835V70.9424C299.3 71.7171 299.368 72.4406 299.505 73.1128C299.642 73.785 299.858 74.3774 300.154 74.8901C300.462 75.3914 300.861 75.7845 301.351 76.0693C301.84 76.3542 302.439 76.4966 303.145 76.4966C303.829 76.4966 304.415 76.3542 304.905 76.0693C305.395 75.7845 305.788 75.3914 306.084 74.8901C306.381 74.3774 306.597 73.785 306.734 73.1128C306.882 72.4406 306.956 71.7171 306.956 70.9424V70.5835C306.956 69.8315 306.882 69.1252 306.734 68.4644C306.597 67.7922 306.375 67.1997 306.067 66.687C305.771 66.1629 305.378 65.7528 304.888 65.4565C304.398 65.1603 303.806 65.0122 303.111 65.0122C302.416 65.0122 301.823 65.1603 301.333 65.4565C300.855 65.7528 300.462 66.1629 300.154 66.687C299.858 67.1997 299.642 67.7922 299.505 68.4644C299.368 69.1252 299.3 69.8315 299.3 70.5835ZM325.857 75.5737V61.5088H330.779V80H326.148L325.857 75.5737ZM326.404 71.7798L327.857 71.7456C327.857 72.9761 327.715 74.1211 327.43 75.1807C327.145 76.2288 326.718 77.1403 326.148 77.915C325.578 78.6784 324.861 79.2765 323.995 79.7095C323.129 80.131 322.109 80.3418 320.936 80.3418C320.035 80.3418 319.204 80.2165 318.44 79.9658C317.688 79.7038 317.039 79.2993 316.492 78.7524C315.957 78.1942 315.535 77.4821 315.228 76.6162C314.931 75.7389 314.783 74.6851 314.783 73.4546V61.5088H319.705V73.4888C319.705 74.0356 319.768 74.4971 319.893 74.873C320.03 75.249 320.218 75.5566 320.457 75.7959C320.696 76.0352 320.975 76.2061 321.294 76.3086C321.625 76.4111 321.989 76.4624 322.388 76.4624C323.402 76.4624 324.2 76.2573 324.781 75.8472C325.373 75.437 325.789 74.8787 326.028 74.1724C326.279 73.4546 326.404 72.6571 326.404 71.7798ZM344.537 74.8901C344.537 74.5369 344.434 74.2179 344.229 73.9331C344.024 73.6483 343.642 73.3862 343.084 73.147C342.537 72.8963 341.745 72.6685 340.708 72.4634C339.774 72.2583 338.903 72.002 338.094 71.6943C337.296 71.3753 336.601 70.9937 336.009 70.5493C335.428 70.105 334.972 69.5809 334.642 68.9771C334.311 68.3618 334.146 67.6611 334.146 66.875C334.146 66.1003 334.311 65.3711 334.642 64.6875C334.983 64.0039 335.468 63.4001 336.094 62.876C336.732 62.3405 337.507 61.9246 338.418 61.6284C339.341 61.3208 340.378 61.167 341.529 61.167C343.135 61.167 344.514 61.4233 345.665 61.936C346.827 62.4487 347.715 63.1551 348.331 64.0552C348.957 64.9438 349.271 65.9578 349.271 67.0972H344.349C344.349 66.6187 344.246 66.1914 344.041 65.8154C343.847 65.4281 343.54 65.1261 343.118 64.9097C342.708 64.6818 342.173 64.5679 341.512 64.5679C340.965 64.5679 340.492 64.6647 340.093 64.8584C339.694 65.0407 339.387 65.2913 339.17 65.6104C338.965 65.918 338.863 66.2598 338.863 66.6357C338.863 66.9206 338.92 67.1769 339.034 67.4048C339.159 67.6213 339.358 67.8206 339.632 68.0029C339.905 68.1852 340.258 68.3561 340.691 68.5156C341.136 68.6637 341.683 68.8005 342.332 68.9258C343.665 69.1992 344.856 69.5581 345.904 70.0024C346.952 70.4354 347.784 71.0278 348.399 71.7798C349.014 72.5203 349.322 73.4945 349.322 74.7021C349.322 75.5225 349.139 76.2744 348.775 76.958C348.41 77.6416 347.886 78.2397 347.203 78.7524C346.519 79.2537 345.699 79.6468 344.742 79.9316C343.796 80.2051 342.731 80.3418 341.546 80.3418C339.826 80.3418 338.367 80.0342 337.171 79.4189C335.986 78.8037 335.086 78.0233 334.471 77.0776C333.867 76.1206 333.565 75.1408 333.565 74.1382H338.23C338.253 74.8104 338.424 75.3516 338.743 75.7617C339.074 76.1719 339.489 76.4681 339.991 76.6504C340.503 76.8327 341.056 76.9238 341.648 76.9238C342.286 76.9238 342.816 76.8384 343.238 76.6675C343.659 76.4852 343.978 76.2459 344.195 75.9497C344.423 75.6421 344.537 75.2889 344.537 74.8901ZM357.32 53.75V80H352.398V53.75H357.32ZM356.619 70.105H355.269C355.28 68.8175 355.451 67.6326 355.782 66.5503C356.112 65.4565 356.585 64.5109 357.2 63.7134C357.815 62.9045 358.55 62.2778 359.405 61.8335C360.271 61.3892 361.228 61.167 362.276 61.167C363.187 61.167 364.013 61.298 364.754 61.5601C365.506 61.8107 366.15 62.2209 366.685 62.7905C367.232 63.3488 367.653 64.0837 367.95 64.9951C368.246 65.9066 368.394 67.0117 368.394 68.3105V80H363.438V68.2764C363.438 67.4561 363.318 66.8123 363.079 66.3452C362.851 65.8667 362.515 65.5306 362.071 65.3369C361.638 65.1318 361.102 65.0293 360.464 65.0293C359.758 65.0293 359.154 65.1603 358.653 65.4224C358.163 65.6844 357.77 66.049 357.474 66.5161C357.177 66.9718 356.961 67.5073 356.824 68.1226C356.688 68.7378 356.619 69.3986 356.619 70.105Z" fill="#888888"/>
<rect x="92" y="181" width="1179" height="80" rx="13.3333" fill="#CCCCCC"/>
<rect x="107" y="196.333" width="208" height="49.3333" rx="4.66667" fill="#888888" stroke="#888888" stroke-width="4"/>
<path d="M184.5 213.167H190.469C191.635 213.167 192.649 213.34 193.51 213.687C194.372 214.035 195.035 214.549 195.5 215.229C195.972 215.91 196.208 216.75 196.208 217.75C196.208 218.618 196.073 219.344 195.802 219.927C195.531 220.51 195.153 220.993 194.667 221.375C194.188 221.75 193.628 222.059 192.99 222.302L191.792 222.979H186.781L186.76 220.156H190.469C190.934 220.156 191.319 220.073 191.625 219.906C191.931 219.74 192.16 219.503 192.313 219.198C192.472 218.885 192.552 218.514 192.552 218.083C192.552 217.646 192.472 217.271 192.313 216.958C192.153 216.646 191.917 216.406 191.604 216.24C191.299 216.073 190.92 215.99 190.469 215.99H188.156V228.333H184.5V213.167ZM192.802 228.333L189.448 221.625L193.323 221.604L196.719 228.177V228.333H192.802ZM203.708 228.542C202.792 228.542 201.972 228.399 201.25 228.115C200.528 227.823 199.917 227.424 199.417 226.917C198.924 226.41 198.545 225.826 198.281 225.167C198.024 224.507 197.896 223.809 197.896 223.073V222.677C197.896 221.851 198.01 221.087 198.24 220.385C198.469 219.677 198.809 219.059 199.26 218.531C199.712 218.003 200.278 217.594 200.958 217.302C201.639 217.003 202.431 216.854 203.333 216.854C204.132 216.854 204.847 216.983 205.479 217.24C206.111 217.497 206.646 217.865 207.083 218.344C207.528 218.823 207.865 219.403 208.094 220.083C208.33 220.764 208.448 221.528 208.448 222.375V223.802H199.24V221.604H205.021V221.333C205.028 220.958 204.962 220.639 204.823 220.375C204.691 220.111 204.497 219.91 204.24 219.771C203.983 219.632 203.67 219.562 203.302 219.562C202.92 219.562 202.604 219.646 202.354 219.812C202.111 219.979 201.92 220.208 201.781 220.5C201.649 220.785 201.556 221.115 201.5 221.49C201.444 221.865 201.417 222.26 201.417 222.677V223.073C201.417 223.49 201.472 223.868 201.583 224.208C201.701 224.549 201.868 224.84 202.083 225.083C202.306 225.319 202.569 225.503 202.875 225.635C203.187 225.767 203.542 225.833 203.937 225.833C204.417 225.833 204.889 225.743 205.354 225.562C205.819 225.382 206.219 225.083 206.552 224.667L208.146 226.562C207.917 226.889 207.59 227.205 207.167 227.51C206.75 227.816 206.25 228.066 205.667 228.26C205.083 228.448 204.431 228.542 203.708 228.542ZM215.729 225.5V220.854C215.729 220.535 215.684 220.26 215.594 220.031C215.503 219.802 215.361 219.625 215.167 219.5C214.972 219.368 214.712 219.302 214.385 219.302C214.122 219.302 213.896 219.347 213.708 219.437C213.521 219.528 213.378 219.663 213.281 219.844C213.184 220.024 213.135 220.253 213.135 220.531H209.625C209.625 220.01 209.74 219.528 209.969 219.083C210.205 218.632 210.538 218.24 210.969 217.906C211.406 217.573 211.927 217.316 212.531 217.135C213.142 216.948 213.823 216.854 214.573 216.854C215.469 216.854 216.267 217.003 216.969 217.302C217.677 217.601 218.236 218.049 218.646 218.646C219.056 219.236 219.26 219.979 219.26 220.875V225.49C219.26 226.226 219.302 226.785 219.385 227.167C219.469 227.542 219.587 227.872 219.74 228.156V228.333H216.219C216.052 227.986 215.927 227.562 215.844 227.062C215.767 226.556 215.729 226.035 215.729 225.5ZM216.156 221.448L216.177 223.323H214.625C214.299 223.323 214.021 223.368 213.792 223.458C213.569 223.549 213.389 223.674 213.25 223.833C213.118 223.986 213.021 224.16 212.958 224.354C212.903 224.549 212.875 224.753 212.875 224.969C212.875 225.177 212.924 225.365 213.021 225.531C213.125 225.691 213.264 225.816 213.438 225.906C213.611 225.997 213.806 226.042 214.021 226.042C214.41 226.042 214.74 225.969 215.01 225.823C215.288 225.67 215.5 225.486 215.646 225.271C215.792 225.056 215.865 224.854 215.865 224.667L216.635 226.104C216.497 226.382 216.337 226.663 216.156 226.948C215.983 227.233 215.764 227.497 215.5 227.74C215.243 227.976 214.927 228.17 214.552 228.323C214.177 228.469 213.722 228.542 213.188 228.542C212.493 228.542 211.854 228.399 211.271 228.115C210.694 227.83 210.233 227.434 209.885 226.927C209.538 226.413 209.365 225.823 209.365 225.156C209.365 224.573 209.469 224.052 209.677 223.594C209.892 223.135 210.215 222.747 210.646 222.427C211.076 222.108 211.625 221.865 212.292 221.698C212.958 221.531 213.743 221.448 214.646 221.448H216.156ZM225.969 225.833C226.295 225.833 226.573 225.774 226.802 225.656C227.038 225.531 227.215 225.358 227.333 225.135C227.458 224.906 227.517 224.632 227.51 224.312H230.813C230.819 225.16 230.611 225.903 230.188 226.542C229.771 227.174 229.201 227.667 228.479 228.021C227.764 228.368 226.955 228.542 226.052 228.542C225.17 228.542 224.399 228.399 223.74 228.115C223.08 227.823 222.528 227.42 222.083 226.906C221.646 226.385 221.316 225.778 221.094 225.083C220.878 224.389 220.771 223.635 220.771 222.823V222.583C220.771 221.771 220.878 221.017 221.094 220.323C221.316 219.622 221.646 219.014 222.083 218.5C222.528 217.979 223.076 217.576 223.729 217.292C224.389 217 225.156 216.854 226.031 216.854C226.969 216.854 227.795 217.031 228.51 217.385C229.233 217.74 229.799 218.253 230.208 218.927C230.618 219.601 230.819 220.417 230.813 221.375H227.51C227.517 221.035 227.465 220.729 227.354 220.458C227.243 220.187 227.069 219.972 226.833 219.812C226.604 219.646 226.309 219.562 225.948 219.562C225.587 219.562 225.295 219.642 225.073 219.802C224.851 219.962 224.681 220.184 224.563 220.469C224.451 220.747 224.375 221.066 224.333 221.427C224.299 221.788 224.281 222.174 224.281 222.583V222.823C224.281 223.24 224.299 223.632 224.333 224C224.375 224.361 224.455 224.681 224.573 224.958C224.691 225.229 224.861 225.444 225.083 225.604C225.306 225.757 225.601 225.833 225.969 225.833ZM238.25 217.062V219.5H231.458V217.062H238.25ZM232.885 214.26H236.396V224.656C236.396 224.955 236.431 225.187 236.5 225.354C236.569 225.514 236.688 225.628 236.854 225.698C237.028 225.76 237.257 225.792 237.542 225.792C237.743 225.792 237.91 225.788 238.042 225.781C238.174 225.767 238.299 225.75 238.417 225.729V228.24C238.118 228.337 237.806 228.41 237.479 228.458C237.153 228.514 236.806 228.542 236.438 228.542C235.688 228.542 235.045 228.424 234.51 228.187C233.983 227.951 233.58 227.58 233.302 227.073C233.024 226.566 232.885 225.906 232.885 225.094V214.26Z" fill="white"/>
<rect x="339" y="196.333" width="208" height="49.3333" rx="4.66667" fill="#888888" stroke="#888888" stroke-width="4"/>
<path d="M382.833 213.167H388.802C389.969 213.167 390.983 213.34 391.844 213.687C392.705 214.035 393.368 214.549 393.833 215.229C394.306 215.91 394.542 216.75 394.542 217.75C394.542 218.618 394.406 219.344 394.135 219.927C393.865 220.51 393.486 220.993 393 221.375C392.521 221.75 391.962 222.059 391.323 222.302L390.125 222.979H385.115L385.094 220.156H388.802C389.267 220.156 389.653 220.073 389.958 219.906C390.264 219.74 390.493 219.503 390.646 219.198C390.806 218.885 390.885 218.514 390.885 218.083C390.885 217.646 390.806 217.271 390.646 216.958C390.486 216.646 390.25 216.406 389.937 216.24C389.632 216.073 389.253 215.99 388.802 215.99H386.49V228.333H382.833V213.167ZM391.135 228.333L387.781 221.625L391.656 221.604L395.052 228.177V228.333H391.135ZM402.042 228.542C401.125 228.542 400.306 228.399 399.583 228.115C398.861 227.823 398.25 227.424 397.75 226.917C397.257 226.41 396.878 225.826 396.615 225.167C396.358 224.507 396.229 223.809 396.229 223.073V222.677C396.229 221.851 396.344 221.087 396.573 220.385C396.802 219.677 397.142 219.059 397.594 218.531C398.045 218.003 398.611 217.594 399.292 217.302C399.972 217.003 400.764 216.854 401.667 216.854C402.465 216.854 403.181 216.983 403.813 217.24C404.444 217.497 404.979 217.865 405.417 218.344C405.861 218.823 406.198 219.403 406.427 220.083C406.663 220.764 406.781 221.528 406.781 222.375V223.802H397.573V221.604H403.354V221.333C403.361 220.958 403.295 220.639 403.156 220.375C403.024 220.111 402.83 219.91 402.573 219.771C402.316 219.632 402.003 219.562 401.635 219.562C401.253 219.562 400.938 219.646 400.688 219.812C400.444 219.979 400.253 220.208 400.115 220.5C399.983 220.785 399.889 221.115 399.833 221.49C399.778 221.865 399.75 222.26 399.75 222.677V223.073C399.75 223.49 399.806 223.868 399.917 224.208C400.035 224.549 400.201 224.84 400.417 225.083C400.639 225.319 400.903 225.503 401.208 225.635C401.521 225.767 401.875 225.833 402.271 225.833C402.75 225.833 403.222 225.743 403.688 225.562C404.153 225.382 404.552 225.083 404.885 224.667L406.479 226.562C406.25 226.889 405.924 227.205 405.5 227.51C405.083 227.816 404.583 228.066 404 228.26C403.417 228.448 402.764 228.542 402.042 228.542ZM414.063 225.5V220.854C414.063 220.535 414.017 220.26 413.927 220.031C413.837 219.802 413.694 219.625 413.5 219.5C413.306 219.368 413.045 219.302 412.719 219.302C412.455 219.302 412.229 219.347 412.042 219.437C411.854 219.528 411.712 219.663 411.615 219.844C411.517 220.024 411.469 220.253 411.469 220.531H407.958C407.958 220.01 408.073 219.528 408.302 219.083C408.538 218.632 408.872 218.24 409.302 217.906C409.74 217.573 410.26 217.316 410.865 217.135C411.476 216.948 412.156 216.854 412.906 216.854C413.802 216.854 414.601 217.003 415.302 217.302C416.01 217.601 416.569 218.049 416.979 218.646C417.389 219.236 417.594 219.979 417.594 220.875V225.49C417.594 226.226 417.635 226.785 417.719 227.167C417.802 227.542 417.92 227.872 418.073 228.156V228.333H414.552C414.385 227.986 414.26 227.562 414.177 227.062C414.101 226.556 414.063 226.035 414.063 225.5ZM414.49 221.448L414.51 223.323H412.958C412.632 223.323 412.354 223.368 412.125 223.458C411.903 223.549 411.722 223.674 411.583 223.833C411.451 223.986 411.354 224.16 411.292 224.354C411.236 224.549 411.208 224.753 411.208 224.969C411.208 225.177 411.257 225.365 411.354 225.531C411.458 225.691 411.597 225.816 411.771 225.906C411.944 225.997 412.139 226.042 412.354 226.042C412.743 226.042 413.073 225.969 413.344 225.823C413.622 225.67 413.833 225.486 413.979 225.271C414.125 225.056 414.198 224.854 414.198 224.667L414.969 226.104C414.83 226.382 414.67 226.663 414.49 226.948C414.316 227.233 414.097 227.497 413.833 227.74C413.576 227.976 413.26 228.17 412.885 228.323C412.51 228.469 412.056 228.542 411.521 228.542C410.826 228.542 410.188 228.399 409.604 228.115C409.028 227.83 408.566 227.434 408.219 226.927C407.872 226.413 407.698 225.823 407.698 225.156C407.698 224.573 407.802 224.052 408.01 223.594C408.226 223.135 408.549 222.747 408.979 222.427C409.41 222.108 409.958 221.865 410.625 221.698C411.292 221.531 412.076 221.448 412.979 221.448H414.49ZM424.302 225.833C424.628 225.833 424.906 225.774 425.135 225.656C425.372 225.531 425.549 225.358 425.667 225.135C425.792 224.906 425.851 224.632 425.844 224.312H429.146C429.153 225.16 428.944 225.903 428.521 226.542C428.104 227.174 427.535 227.667 426.812 228.021C426.097 228.368 425.288 228.542 424.385 228.542C423.503 228.542 422.733 228.399 422.073 228.115C421.413 227.823 420.861 227.42 420.417 226.906C419.979 226.385 419.649 225.778 419.427 225.083C419.212 224.389 419.104 223.635 419.104 222.823V222.583C419.104 221.771 419.212 221.017 419.427 220.323C419.649 219.622 419.979 219.014 420.417 218.5C420.861 217.979 421.41 217.576 422.062 217.292C422.722 217 423.49 216.854 424.365 216.854C425.302 216.854 426.128 217.031 426.844 217.385C427.566 217.74 428.132 218.253 428.542 218.927C428.951 219.601 429.153 220.417 429.146 221.375H425.844C425.851 221.035 425.799 220.729 425.687 220.458C425.576 220.187 425.403 219.972 425.167 219.812C424.937 219.646 424.642 219.562 424.281 219.562C423.92 219.562 423.628 219.642 423.406 219.802C423.184 219.962 423.014 220.184 422.896 220.469C422.785 220.747 422.708 221.066 422.667 221.427C422.632 221.788 422.615 222.174 422.615 222.583V222.823C422.615 223.24 422.632 223.632 422.667 224C422.708 224.361 422.788 224.681 422.906 224.958C423.024 225.229 423.194 225.444 423.417 225.604C423.639 225.757 423.934 225.833 424.302 225.833ZM436.583 217.062V219.5H429.792V217.062H436.583ZM431.219 214.26H434.729V224.656C434.729 224.955 434.764 225.187 434.833 225.354C434.903 225.514 435.021 225.628 435.188 225.698C435.361 225.76 435.59 225.792 435.875 225.792C436.076 225.792 436.243 225.788 436.375 225.781C436.507 225.767 436.632 225.75 436.75 225.729V228.24C436.451 228.337 436.139 228.41 435.813 228.458C435.486 228.514 435.139 228.542 434.771 228.542C434.021 228.542 433.378 228.424 432.844 228.187C432.316 227.951 431.913 227.58 431.635 227.073C431.358 226.566 431.219 225.906 431.219 225.094V214.26ZM456.125 213.167V228.333H452.479L447.115 218.896V228.333H443.458V213.167H447.115L452.479 222.604V213.167H456.125ZM464.125 225.5V220.854C464.125 220.535 464.08 220.26 463.99 220.031C463.899 219.802 463.757 219.625 463.563 219.5C463.368 219.368 463.108 219.302 462.781 219.302C462.517 219.302 462.292 219.347 462.104 219.437C461.917 219.528 461.774 219.663 461.677 219.844C461.58 220.024 461.531 220.253 461.531 220.531H458.021C458.021 220.01 458.135 219.528 458.365 219.083C458.601 218.632 458.934 218.24 459.365 217.906C459.802 217.573 460.323 217.316 460.927 217.135C461.538 216.948 462.219 216.854 462.969 216.854C463.865 216.854 464.663 217.003 465.365 217.302C466.073 217.601 466.632 218.049 467.042 218.646C467.451 219.236 467.656 219.979 467.656 220.875V225.49C467.656 226.226 467.698 226.785 467.781 227.167C467.865 227.542 467.983 227.872 468.135 228.156V228.333H464.615C464.448 227.986 464.323 227.562 464.24 227.062C464.163 226.556 464.125 226.035 464.125 225.5ZM464.552 221.448L464.573 223.323H463.021C462.694 223.323 462.417 223.368 462.188 223.458C461.965 223.549 461.785 223.674 461.646 223.833C461.514 223.986 461.417 224.16 461.354 224.354C461.299 224.549 461.271 224.753 461.271 224.969C461.271 225.177 461.319 225.365 461.417 225.531C461.521 225.691 461.66 225.816 461.833 225.906C462.007 225.997 462.201 226.042 462.417 226.042C462.806 226.042 463.135 225.969 463.406 225.823C463.684 225.67 463.896 225.486 464.042 225.271C464.188 225.056 464.26 224.854 464.26 224.667L465.031 226.104C464.892 226.382 464.733 226.663 464.552 226.948C464.378 227.233 464.16 227.497 463.896 227.74C463.639 227.976 463.323 228.17 462.948 228.323C462.573 228.469 462.118 228.542 461.583 228.542C460.889 228.542 460.25 228.399 459.667 228.115C459.09 227.83 458.628 227.434 458.281 226.927C457.934 226.413 457.76 225.823 457.76 225.156C457.76 224.573 457.865 224.052 458.073 223.594C458.288 223.135 458.611 222.747 459.042 222.427C459.472 222.108 460.021 221.865 460.688 221.698C461.354 221.531 462.139 221.448 463.042 221.448H464.552ZM475.542 217.062V219.5H468.75V217.062H475.542ZM470.177 214.26H473.687V224.656C473.687 224.955 473.722 225.187 473.792 225.354C473.861 225.514 473.979 225.628 474.146 225.698C474.319 225.76 474.549 225.792 474.833 225.792C475.035 225.792 475.201 225.788 475.333 225.781C475.465 225.767 475.59 225.75 475.708 225.729V228.24C475.41 228.337 475.097 228.41 474.771 228.458C474.444 228.514 474.097 228.542 473.729 228.542C472.979 228.542 472.337 228.424 471.802 228.187C471.274 227.951 470.872 227.58 470.594 227.073C470.316 226.566 470.177 225.906 470.177 225.094V214.26ZM480.646 217.062V228.333H477.125V217.062H480.646ZM476.917 214.156C476.917 213.656 477.097 213.247 477.458 212.927C477.819 212.608 478.288 212.448 478.865 212.448C479.441 212.448 479.91 212.608 480.271 212.927C480.632 213.247 480.813 213.656 480.813 214.156C480.813 214.656 480.632 215.066 480.271 215.385C479.91 215.705 479.441 215.865 478.865 215.865C478.288 215.865 477.819 215.705 477.458 215.385C477.097 215.066 476.917 214.656 476.917 214.156ZM486.875 225.927L489.094 217.062H492.792L489.104 228.333H486.917L486.875 225.927ZM485.563 217.062L487.75 225.927L487.729 228.333H485.531L481.854 217.062H485.563ZM499.146 228.542C498.229 228.542 497.41 228.399 496.688 228.115C495.965 227.823 495.354 227.424 494.854 226.917C494.361 226.41 493.983 225.826 493.719 225.167C493.462 224.507 493.333 223.809 493.333 223.073V222.677C493.333 221.851 493.448 221.087 493.677 220.385C493.906 219.677 494.247 219.059 494.698 218.531C495.149 218.003 495.715 217.594 496.396 217.302C497.076 217.003 497.868 216.854 498.771 216.854C499.569 216.854 500.285 216.983 500.917 217.24C501.549 217.497 502.083 217.865 502.521 218.344C502.965 218.823 503.302 219.403 503.531 220.083C503.767 220.764 503.885 221.528 503.885 222.375V223.802H494.677V221.604H500.458V221.333C500.465 220.958 500.399 220.639 500.26 220.375C500.128 220.111 499.934 219.91 499.677 219.771C499.42 219.632 499.108 219.562 498.74 219.562C498.358 219.562 498.042 219.646 497.792 219.812C497.549 219.979 497.358 220.208 497.219 220.5C497.087 220.785 496.993 221.115 496.938 221.49C496.882 221.865 496.854 222.26 496.854 222.677V223.073C496.854 223.49 496.91 223.868 497.021 224.208C497.139 224.549 497.306 224.84 497.521 225.083C497.743 225.319 498.007 225.503 498.313 225.635C498.625 225.767 498.979 225.833 499.375 225.833C499.854 225.833 500.326 225.743 500.792 225.562C501.257 225.382 501.656 225.083 501.99 224.667L503.583 226.562C503.354 226.889 503.028 227.205 502.604 227.51C502.188 227.816 501.688 228.066 501.104 228.26C500.521 228.448 499.868 228.542 499.146 228.542Z" fill="white"/>
<rect x="571" y="196.333" width="208" height="49.3333" rx="4.66667" fill="#888888" stroke="#888888" stroke-width="4"/>
<path d="M651.937 213.167V228.333H648.292L642.927 218.896V228.333H639.271V213.167H642.927L648.292 222.604V213.167H651.937ZM653.646 222.812V222.594C653.646 221.767 653.764 221.007 654 220.312C654.236 219.611 654.583 219.003 655.042 218.49C655.5 217.976 656.066 217.576 656.74 217.292C657.413 217 658.191 216.854 659.073 216.854C659.962 216.854 660.743 217 661.417 217.292C662.097 217.576 662.667 217.976 663.125 218.49C663.583 219.003 663.931 219.611 664.167 220.312C664.403 221.007 664.521 221.767 664.521 222.594V222.812C664.521 223.632 664.403 224.392 664.167 225.094C663.931 225.788 663.583 226.396 663.125 226.917C662.667 227.431 662.101 227.83 661.427 228.115C660.753 228.399 659.976 228.542 659.094 228.542C658.212 228.542 657.431 228.399 656.75 228.115C656.069 227.83 655.5 227.431 655.042 226.917C654.583 226.396 654.236 225.788 654 225.094C653.764 224.392 653.646 223.632 653.646 222.812ZM657.156 222.594V222.812C657.156 223.236 657.187 223.632 657.25 224C657.312 224.368 657.417 224.691 657.562 224.969C657.708 225.24 657.906 225.451 658.156 225.604C658.406 225.757 658.719 225.833 659.094 225.833C659.462 225.833 659.767 225.757 660.01 225.604C660.26 225.451 660.458 225.24 660.604 224.969C660.75 224.691 660.854 224.368 660.917 224C660.979 223.632 661.01 223.236 661.01 222.812V222.594C661.01 222.184 660.979 221.799 660.917 221.437C660.854 221.069 660.75 220.747 660.604 220.469C660.458 220.184 660.26 219.962 660.01 219.802C659.76 219.642 659.448 219.562 659.073 219.562C658.705 219.562 658.396 219.642 658.146 219.802C657.903 219.962 657.708 220.184 657.562 220.469C657.417 220.747 657.312 221.069 657.25 221.437C657.187 221.799 657.156 222.184 657.156 222.594ZM672.563 225.75V212.333H676.094V228.333H672.927L672.563 225.75ZM665.646 222.833V222.615C665.646 221.76 665.74 220.983 665.927 220.281C666.115 219.573 666.392 218.965 666.76 218.458C667.128 217.944 667.587 217.549 668.135 217.271C668.684 216.993 669.316 216.854 670.031 216.854C670.67 216.854 671.229 217.003 671.708 217.302C672.188 217.594 672.597 218.003 672.938 218.531C673.278 219.059 673.556 219.677 673.771 220.385C673.986 221.087 674.149 221.844 674.26 222.656V222.917C674.149 223.681 673.986 224.403 673.771 225.083C673.556 225.757 673.278 226.354 672.938 226.875C672.597 227.396 672.184 227.806 671.698 228.104C671.219 228.396 670.656 228.542 670.01 228.542C669.295 228.542 668.663 228.399 668.115 228.115C667.573 227.83 667.118 227.431 666.75 226.917C666.389 226.403 666.115 225.799 665.927 225.104C665.74 224.41 665.646 223.653 665.646 222.833ZM669.156 222.615V222.833C669.156 223.257 669.184 223.649 669.24 224.01C669.295 224.372 669.389 224.691 669.521 224.969C669.66 225.24 669.84 225.451 670.063 225.604C670.292 225.757 670.573 225.833 670.906 225.833C671.358 225.833 671.729 225.726 672.021 225.51C672.319 225.295 672.538 224.99 672.677 224.594C672.823 224.198 672.885 223.733 672.865 223.198V222.375C672.878 221.917 672.847 221.514 672.771 221.167C672.694 220.812 672.573 220.517 672.406 220.281C672.247 220.045 672.042 219.868 671.792 219.75C671.549 219.625 671.26 219.562 670.927 219.562C670.601 219.562 670.323 219.639 670.094 219.792C669.872 219.944 669.691 220.16 669.552 220.437C669.413 220.708 669.313 221.031 669.25 221.406C669.188 221.774 669.156 222.177 669.156 222.615ZM683.542 228.542C682.625 228.542 681.806 228.399 681.083 228.115C680.361 227.823 679.75 227.424 679.25 226.917C678.757 226.41 678.378 225.826 678.115 225.167C677.858 224.507 677.729 223.809 677.729 223.073V222.677C677.729 221.851 677.844 221.087 678.073 220.385C678.302 219.677 678.642 219.059 679.094 218.531C679.545 218.003 680.111 217.594 680.792 217.302C681.472 217.003 682.264 216.854 683.167 216.854C683.965 216.854 684.681 216.983 685.313 217.24C685.944 217.497 686.479 217.865 686.917 218.344C687.361 218.823 687.698 219.403 687.927 220.083C688.163 220.764 688.281 221.528 688.281 222.375V223.802H679.073V221.604H684.854V221.333C684.861 220.958 684.795 220.639 684.656 220.375C684.524 220.111 684.33 219.91 684.073 219.771C683.816 219.632 683.503 219.562 683.135 219.562C682.753 219.562 682.438 219.646 682.188 219.812C681.944 219.979 681.753 220.208 681.615 220.5C681.483 220.785 681.389 221.115 681.333 221.49C681.278 221.865 681.25 222.26 681.25 222.677V223.073C681.25 223.49 681.306 223.868 681.417 224.208C681.535 224.549 681.701 224.84 681.917 225.083C682.139 225.319 682.403 225.503 682.708 225.635C683.021 225.767 683.375 225.833 683.771 225.833C684.25 225.833 684.722 225.743 685.188 225.562C685.653 225.382 686.052 225.083 686.385 224.667L687.979 226.562C687.75 226.889 687.424 227.205 687 227.51C686.583 227.816 686.083 228.066 685.5 228.26C684.917 228.448 684.264 228.542 683.542 228.542ZM689.938 226.687C689.938 226.187 690.118 225.771 690.479 225.437C690.84 225.097 691.306 224.927 691.875 224.927C692.451 224.927 692.917 225.097 693.271 225.437C693.632 225.771 693.813 226.187 693.813 226.687C693.813 227.187 693.632 227.608 693.271 227.948C692.917 228.281 692.451 228.448 691.875 228.448C691.306 228.448 690.84 228.281 690.479 227.948C690.118 227.608 689.938 227.187 689.938 226.687ZM696.427 217.062H699.948V228.698C699.948 229.601 699.774 230.361 699.427 230.979C699.08 231.604 698.583 232.076 697.937 232.396C697.292 232.722 696.521 232.885 695.625 232.885C695.326 232.885 695.052 232.872 694.802 232.844C694.545 232.823 694.264 232.778 693.958 232.708V230.052C694.139 230.08 694.306 230.101 694.458 230.115C694.611 230.135 694.778 230.146 694.958 230.146C695.278 230.146 695.545 230.094 695.76 229.99C695.976 229.885 696.139 229.726 696.25 229.51C696.368 229.295 696.427 229.024 696.427 228.698V217.062ZM696.167 214.156C696.167 213.656 696.347 213.247 696.708 212.927C697.069 212.608 697.538 212.448 698.115 212.448C698.691 212.448 699.16 212.608 699.521 212.927C699.882 213.247 700.062 213.656 700.062 214.156C700.062 214.656 699.882 215.066 699.521 215.385C699.16 215.705 698.691 215.865 698.115 215.865C697.538 215.865 697.069 215.705 696.708 215.385C696.347 215.066 696.167 214.656 696.167 214.156ZM707.844 225.167C707.844 224.972 707.778 224.806 707.646 224.667C707.521 224.521 707.299 224.389 706.979 224.271C706.66 224.146 706.212 224.021 705.635 223.896C705.087 223.778 704.569 223.622 704.083 223.427C703.604 223.233 703.184 222.997 702.823 222.719C702.462 222.441 702.177 222.111 701.969 221.729C701.767 221.347 701.667 220.91 701.667 220.417C701.667 219.937 701.767 219.486 701.969 219.062C702.177 218.632 702.479 218.253 702.875 217.927C703.278 217.594 703.767 217.333 704.344 217.146C704.92 216.951 705.576 216.854 706.312 216.854C707.326 216.854 708.201 217.01 708.937 217.323C709.674 217.628 710.24 218.059 710.635 218.615C711.038 219.163 711.24 219.799 711.24 220.521H707.729C707.729 220.236 707.681 219.993 707.583 219.792C707.493 219.59 707.344 219.437 707.135 219.333C706.927 219.222 706.649 219.167 706.302 219.167C706.059 219.167 705.837 219.212 705.635 219.302C705.441 219.392 705.285 219.517 705.167 219.677C705.049 219.837 704.99 220.024 704.99 220.24C704.99 220.392 705.024 220.531 705.094 220.656C705.17 220.774 705.285 220.885 705.437 220.99C705.59 221.087 705.785 221.177 706.021 221.26C706.257 221.337 706.542 221.406 706.875 221.469C707.632 221.608 708.34 221.806 709 222.062C709.66 222.319 710.194 222.684 710.604 223.156C711.021 223.628 711.229 224.264 711.229 225.062C711.229 225.562 711.115 226.024 710.885 226.448C710.656 226.865 710.326 227.233 709.896 227.552C709.465 227.865 708.948 228.108 708.344 228.281C707.74 228.455 707.059 228.542 706.302 228.542C705.226 228.542 704.316 228.351 703.573 227.969C702.83 227.58 702.267 227.094 701.885 226.51C701.51 225.92 701.323 225.323 701.323 224.719H704.594C704.608 225.066 704.691 225.351 704.844 225.573C705.003 225.795 705.215 225.958 705.479 226.062C705.743 226.167 706.049 226.219 706.396 226.219C706.715 226.219 706.979 226.174 707.187 226.083C707.403 225.993 707.566 225.872 707.677 225.719C707.788 225.559 707.844 225.375 707.844 225.167Z" fill="white"/>
<rect x="803" y="196.333" width="208" height="49.3333" rx="4.66667" fill="#888888" stroke="#888888" stroke-width="4"/>
<path d="M880.427 225.521V228.333H872.344V225.521H880.427ZM873.646 213.167V228.333H869.99V213.167H873.646ZM879.385 219.187V221.906H872.344V219.187H879.385ZM880.458 213.167V215.99H872.344V213.167H880.458ZM884.74 217.062L886.323 220.167L887.958 217.062H891.604L888.646 222.552L891.76 228.333H888.083L886.323 225L884.573 228.333H880.896L884.01 222.552L881.062 217.062H884.74ZM896.302 219.229V232.667H892.792V217.062H896.062L896.302 219.229ZM903.219 222.562V222.781C903.219 223.601 903.125 224.361 902.937 225.062C902.75 225.764 902.472 226.375 902.104 226.896C901.736 227.417 901.278 227.823 900.729 228.115C900.187 228.399 899.559 228.542 898.844 228.542C898.17 228.542 897.59 228.392 897.104 228.094C896.618 227.795 896.212 227.382 895.885 226.854C895.559 226.326 895.295 225.722 895.094 225.042C894.892 224.361 894.733 223.642 894.615 222.885V222.604C894.733 221.792 894.892 221.038 895.094 220.344C895.295 219.642 895.559 219.031 895.885 218.51C896.212 217.99 896.615 217.583 897.094 217.292C897.58 217 898.16 216.854 898.833 216.854C899.549 216.854 900.177 216.99 900.719 217.26C901.267 217.531 901.726 217.92 902.094 218.427C902.469 218.927 902.75 219.528 902.937 220.229C903.125 220.931 903.219 221.708 903.219 222.562ZM899.708 222.781V222.562C899.708 222.125 899.677 221.726 899.615 221.365C899.552 220.997 899.451 220.677 899.312 220.406C899.181 220.135 899.003 219.927 898.781 219.781C898.559 219.635 898.285 219.562 897.958 219.562C897.583 219.562 897.267 219.622 897.01 219.74C896.76 219.851 896.559 220.024 896.406 220.26C896.26 220.49 896.156 220.778 896.094 221.125C896.038 221.465 896.014 221.865 896.021 222.323V223.177C896.007 223.705 896.059 224.17 896.177 224.573C896.295 224.969 896.5 225.278 896.792 225.5C897.083 225.722 897.479 225.833 897.979 225.833C898.312 225.833 898.59 225.757 898.812 225.604C899.035 225.444 899.212 225.226 899.344 224.948C899.476 224.663 899.569 224.337 899.625 223.969C899.681 223.601 899.708 223.205 899.708 222.781ZM908.323 219.854V228.333H904.812V217.062H908.094L908.323 219.854ZM911.656 216.979L911.594 220.24C911.455 220.226 911.267 220.208 911.031 220.187C910.795 220.167 910.597 220.156 910.437 220.156C910.028 220.156 909.674 220.205 909.375 220.302C909.083 220.392 908.84 220.531 908.646 220.719C908.458 220.899 908.319 221.128 908.229 221.406C908.146 221.684 908.108 222.007 908.115 222.375L907.479 221.958C907.479 221.201 907.552 220.514 907.698 219.896C907.851 219.271 908.066 218.733 908.344 218.281C908.622 217.823 908.958 217.472 909.354 217.229C909.75 216.979 910.194 216.854 910.687 216.854C910.861 216.854 911.031 216.865 911.198 216.885C911.372 216.906 911.524 216.937 911.656 216.979ZM918.115 228.542C917.198 228.542 916.378 228.399 915.656 228.115C914.934 227.823 914.323 227.424 913.823 226.917C913.33 226.41 912.951 225.826 912.687 225.167C912.431 224.507 912.302 223.809 912.302 223.073V222.677C912.302 221.851 912.417 221.087 912.646 220.385C912.875 219.677 913.215 219.059 913.667 218.531C914.118 218.003 914.684 217.594 915.365 217.302C916.045 217.003 916.837 216.854 917.74 216.854C918.538 216.854 919.253 216.983 919.885 217.24C920.517 217.497 921.052 217.865 921.49 218.344C921.934 218.823 922.271 219.403 922.5 220.083C922.736 220.764 922.854 221.528 922.854 222.375V223.802H913.646V221.604H919.427V221.333C919.434 220.958 919.368 220.639 919.229 220.375C919.097 220.111 918.903 219.91 918.646 219.771C918.389 219.632 918.076 219.562 917.708 219.562C917.326 219.562 917.01 219.646 916.76 219.812C916.517 219.979 916.326 220.208 916.187 220.5C916.056 220.785 915.962 221.115 915.906 221.49C915.851 221.865 915.823 222.26 915.823 222.677V223.073C915.823 223.49 915.878 223.868 915.99 224.208C916.108 224.549 916.274 224.84 916.49 225.083C916.712 225.319 916.976 225.503 917.281 225.635C917.594 225.767 917.948 225.833 918.344 225.833C918.823 225.833 919.295 225.743 919.76 225.562C920.226 225.382 920.625 225.083 920.958 224.667L922.552 226.562C922.323 226.889 921.997 227.205 921.573 227.51C921.156 227.816 920.656 228.066 920.073 228.26C919.49 228.448 918.837 228.542 918.115 228.542ZM930.187 225.167C930.187 224.972 930.122 224.806 929.99 224.667C929.865 224.521 929.642 224.389 929.323 224.271C929.003 224.146 928.556 224.021 927.979 223.896C927.431 223.778 926.913 223.622 926.427 223.427C925.948 223.233 925.528 222.997 925.167 222.719C924.806 222.441 924.521 222.111 924.312 221.729C924.111 221.347 924.01 220.91 924.01 220.417C924.01 219.937 924.111 219.486 924.312 219.062C924.521 218.632 924.823 218.253 925.219 217.927C925.622 217.594 926.111 217.333 926.687 217.146C927.264 216.951 927.92 216.854 928.656 216.854C929.67 216.854 930.545 217.01 931.281 217.323C932.017 217.628 932.583 218.059 932.979 218.615C933.382 219.163 933.583 219.799 933.583 220.521H930.073C930.073 220.236 930.024 219.993 929.927 219.792C929.837 219.59 929.687 219.437 929.479 219.333C929.271 219.222 928.993 219.167 928.646 219.167C928.403 219.167 928.181 219.212 927.979 219.302C927.785 219.392 927.628 219.517 927.51 219.677C927.392 219.837 927.333 220.024 927.333 220.24C927.333 220.392 927.368 220.531 927.437 220.656C927.514 220.774 927.628 220.885 927.781 220.99C927.934 221.087 928.128 221.177 928.365 221.26C928.601 221.337 928.885 221.406 929.219 221.469C929.976 221.608 930.684 221.806 931.344 222.062C932.003 222.319 932.538 222.684 932.948 223.156C933.365 223.628 933.573 224.264 933.573 225.062C933.573 225.562 933.458 226.024 933.229 226.448C933 226.865 932.67 227.233 932.24 227.552C931.809 227.865 931.292 228.108 930.687 228.281C930.083 228.455 929.403 228.542 928.646 228.542C927.569 228.542 926.66 228.351 925.917 227.969C925.174 227.58 924.611 227.094 924.229 226.51C923.854 225.92 923.667 225.323 923.667 224.719H926.937C926.951 225.066 927.035 225.351 927.187 225.573C927.347 225.795 927.559 225.958 927.823 226.062C928.087 226.167 928.392 226.219 928.74 226.219C929.059 226.219 929.323 226.174 929.531 226.083C929.747 225.993 929.91 225.872 930.021 225.719C930.132 225.559 930.187 225.375 930.187 225.167ZM941.125 225.167C941.125 224.972 941.059 224.806 940.927 224.667C940.802 224.521 940.58 224.389 940.26 224.271C939.941 224.146 939.493 224.021 938.917 223.896C938.368 223.778 937.851 223.622 937.365 223.427C936.885 223.233 936.465 222.997 936.104 222.719C935.743 222.441 935.458 222.111 935.25 221.729C935.049 221.347 934.948 220.91 934.948 220.417C934.948 219.937 935.049 219.486 935.25 219.062C935.458 218.632 935.76 218.253 936.156 217.927C936.559 217.594 937.049 217.333 937.625 217.146C938.201 216.951 938.858 216.854 939.594 216.854C940.608 216.854 941.483 217.01 942.219 217.323C942.955 217.628 943.521 218.059 943.917 218.615C944.319 219.163 944.521 219.799 944.521 220.521H941.01C941.01 220.236 940.962 219.993 940.865 219.792C940.774 219.59 940.625 219.437 940.417 219.333C940.208 219.222 939.931 219.167 939.583 219.167C939.34 219.167 939.118 219.212 938.917 219.302C938.722 219.392 938.566 219.517 938.448 219.677C938.33 219.837 938.271 220.024 938.271 220.24C938.271 220.392 938.306 220.531 938.375 220.656C938.451 220.774 938.566 220.885 938.719 220.99C938.872 221.087 939.066 221.177 939.302 221.26C939.538 221.337 939.823 221.406 940.156 221.469C940.913 221.608 941.622 221.806 942.281 222.062C942.941 222.319 943.476 222.684 943.885 223.156C944.302 223.628 944.51 224.264 944.51 225.062C944.51 225.562 944.396 226.024 944.167 226.448C943.937 226.865 943.608 227.233 943.177 227.552C942.747 227.865 942.229 228.108 941.625 228.281C941.021 228.455 940.34 228.542 939.583 228.542C938.507 228.542 937.597 228.351 936.854 227.969C936.111 227.58 935.549 227.094 935.167 226.51C934.792 225.92 934.604 225.323 934.604 224.719H937.875C937.889 225.066 937.972 225.351 938.125 225.573C938.285 225.795 938.497 225.958 938.76 226.062C939.024 226.167 939.33 226.219 939.677 226.219C939.997 226.219 940.26 226.174 940.469 226.083C940.684 225.993 940.847 225.872 940.958 225.719C941.069 225.559 941.125 225.375 941.125 225.167Z" fill="white"/>
<rect x="1035" y="196.333" width="208" height="49.3333" rx="4.66667" fill="#888888" stroke="#888888" stroke-width="4"/>
<path d="M1094.66 213.167H1097.64L1101.02 223.719L1104.41 213.167H1107.39L1102.23 228.333H1099.81L1094.66 213.167ZM1092.84 213.167H1095.93L1096.5 224.792V228.333H1092.84V213.167ZM1106.11 213.167H1109.21V228.333H1105.54V224.792L1106.11 213.167ZM1110.95 222.812V222.594C1110.95 221.767 1111.07 221.007 1111.3 220.312C1111.54 219.611 1111.89 219.003 1112.34 218.49C1112.8 217.976 1113.37 217.576 1114.04 217.292C1114.72 217 1115.49 216.854 1116.38 216.854C1117.26 216.854 1118.05 217 1118.72 217.292C1119.4 217.576 1119.97 217.976 1120.43 218.49C1120.89 219.003 1121.23 219.611 1121.47 220.312C1121.7 221.007 1121.82 221.767 1121.82 222.594V222.812C1121.82 223.632 1121.7 224.392 1121.47 225.094C1121.23 225.788 1120.89 226.396 1120.43 226.917C1119.97 227.431 1119.4 227.83 1118.73 228.115C1118.06 228.399 1117.28 228.542 1116.4 228.542C1115.51 228.542 1114.73 228.399 1114.05 228.115C1113.37 227.83 1112.8 227.431 1112.34 226.917C1111.89 226.396 1111.54 225.788 1111.3 225.094C1111.07 224.392 1110.95 223.632 1110.95 222.812ZM1114.46 222.594V222.812C1114.46 223.236 1114.49 223.632 1114.55 224C1114.61 224.368 1114.72 224.691 1114.86 224.969C1115.01 225.24 1115.21 225.451 1115.46 225.604C1115.71 225.757 1116.02 225.833 1116.4 225.833C1116.76 225.833 1117.07 225.757 1117.31 225.604C1117.56 225.451 1117.76 225.24 1117.91 224.969C1118.05 224.691 1118.16 224.368 1118.22 224C1118.28 223.632 1118.31 223.236 1118.31 222.812V222.594C1118.31 222.184 1118.28 221.799 1118.22 221.437C1118.16 221.069 1118.05 220.747 1117.91 220.469C1117.76 220.184 1117.56 219.962 1117.31 219.802C1117.06 219.642 1116.75 219.562 1116.38 219.562C1116.01 219.562 1115.7 219.642 1115.45 219.802C1115.2 219.962 1115.01 220.184 1114.86 220.469C1114.72 220.747 1114.61 221.069 1114.55 221.437C1114.49 221.799 1114.46 222.184 1114.46 222.594ZM1126.83 219.469V228.333H1123.32V217.062H1126.61L1126.83 219.469ZM1126.42 222.312L1125.59 222.333C1125.59 221.472 1125.7 220.705 1125.91 220.031C1126.11 219.351 1126.41 218.774 1126.79 218.302C1127.17 217.83 1127.63 217.472 1128.16 217.229C1128.69 216.979 1129.28 216.854 1129.94 216.854C1130.46 216.854 1130.93 216.931 1131.36 217.083C1131.8 217.236 1132.18 217.483 1132.49 217.823C1132.81 218.163 1133.05 218.615 1133.22 219.177C1133.39 219.733 1133.48 220.42 1133.48 221.24V228.333H1129.95V221.229C1129.95 220.778 1129.89 220.434 1129.76 220.198C1129.64 219.955 1129.45 219.788 1129.22 219.698C1128.98 219.608 1128.69 219.562 1128.35 219.562C1127.99 219.562 1127.69 219.632 1127.44 219.771C1127.19 219.91 1126.99 220.104 1126.83 220.354C1126.69 220.597 1126.58 220.885 1126.51 221.219C1126.45 221.552 1126.42 221.917 1126.42 222.312ZM1142.51 217.062H1145.7V227.896C1145.7 228.937 1145.46 229.819 1144.98 230.542C1144.5 231.271 1143.83 231.823 1142.97 232.198C1142.11 232.58 1141.11 232.771 1139.97 232.771C1139.46 232.771 1138.94 232.705 1138.42 232.573C1137.89 232.448 1137.4 232.26 1136.94 232.01C1136.48 231.76 1136.09 231.451 1135.78 231.083L1137.25 229.021C1137.53 229.34 1137.89 229.611 1138.32 229.833C1138.75 230.062 1139.26 230.177 1139.84 230.177C1140.35 230.177 1140.77 230.087 1141.11 229.906C1141.46 229.726 1141.73 229.462 1141.91 229.115C1142.09 228.774 1142.18 228.361 1142.18 227.875V219.729L1142.51 217.062ZM1135.02 222.833V222.615C1135.02 221.76 1135.13 220.983 1135.33 220.281C1135.55 219.573 1135.85 218.965 1136.25 218.458C1136.65 217.944 1137.14 217.549 1137.71 217.271C1138.28 216.993 1138.92 216.854 1139.64 216.854C1140.41 216.854 1141.04 217.003 1141.53 217.302C1142.03 217.594 1142.43 218.003 1142.73 218.531C1143.03 219.059 1143.27 219.677 1143.44 220.385C1143.61 221.087 1143.76 221.844 1143.88 222.656V222.917C1143.76 223.681 1143.59 224.403 1143.39 225.083C1143.18 225.757 1142.92 226.354 1142.59 226.875C1142.27 227.396 1141.86 227.806 1141.36 228.104C1140.88 228.396 1140.3 228.542 1139.61 228.542C1138.91 228.542 1138.27 228.399 1137.7 228.115C1137.14 227.83 1136.65 227.431 1136.25 226.917C1135.85 226.403 1135.55 225.799 1135.33 225.104C1135.13 224.41 1135.02 223.653 1135.02 222.833ZM1138.53 222.615V222.833C1138.53 223.257 1138.57 223.649 1138.65 224.01C1138.73 224.372 1138.85 224.691 1139.02 224.969C1139.19 225.24 1139.39 225.451 1139.64 225.604C1139.89 225.757 1140.18 225.833 1140.51 225.833C1141.02 225.833 1141.43 225.726 1141.74 225.51C1142.05 225.295 1142.28 224.99 1142.42 224.594C1142.56 224.198 1142.61 223.733 1142.59 223.198V222.375C1142.61 221.917 1142.58 221.514 1142.5 221.167C1142.42 220.812 1142.3 220.517 1142.14 220.281C1141.98 220.045 1141.76 219.868 1141.49 219.75C1141.23 219.625 1140.91 219.562 1140.53 219.562C1140.2 219.562 1139.92 219.639 1139.67 219.792C1139.42 219.944 1139.21 220.16 1139.04 220.437C1138.88 220.708 1138.75 221.031 1138.66 221.406C1138.57 221.774 1138.53 222.177 1138.53 222.615ZM1147.28 222.812V222.594C1147.28 221.767 1147.4 221.007 1147.64 220.312C1147.87 219.611 1148.22 219.003 1148.68 218.49C1149.14 217.976 1149.7 217.576 1150.38 217.292C1151.05 217 1151.83 216.854 1152.71 216.854C1153.6 216.854 1154.38 217 1155.05 217.292C1155.73 217.576 1156.3 217.976 1156.76 218.49C1157.22 219.003 1157.57 219.611 1157.8 220.312C1158.04 221.007 1158.16 221.767 1158.16 222.594V222.812C1158.16 223.632 1158.04 224.392 1157.8 225.094C1157.57 225.788 1157.22 226.396 1156.76 226.917C1156.3 227.431 1155.74 227.83 1155.06 228.115C1154.39 228.399 1153.61 228.542 1152.73 228.542C1151.85 228.542 1151.07 228.399 1150.39 228.115C1149.7 227.83 1149.14 227.431 1148.68 226.917C1148.22 226.396 1147.87 225.788 1147.64 225.094C1147.4 224.392 1147.28 223.632 1147.28 222.812ZM1150.79 222.594V222.812C1150.79 223.236 1150.82 223.632 1150.89 224C1150.95 224.368 1151.05 224.691 1151.2 224.969C1151.34 225.24 1151.54 225.451 1151.79 225.604C1152.04 225.757 1152.35 225.833 1152.73 225.833C1153.1 225.833 1153.4 225.757 1153.65 225.604C1153.9 225.451 1154.09 225.24 1154.24 224.969C1154.39 224.691 1154.49 224.368 1154.55 224C1154.61 223.632 1154.65 223.236 1154.65 222.812V222.594C1154.65 222.184 1154.61 221.799 1154.55 221.437C1154.49 221.069 1154.39 220.747 1154.24 220.469C1154.09 220.184 1153.9 219.962 1153.65 219.802C1153.4 219.642 1153.08 219.562 1152.71 219.562C1152.34 219.562 1152.03 219.642 1151.78 219.802C1151.54 219.962 1151.34 220.184 1151.2 220.469C1151.05 220.747 1150.95 221.069 1150.89 221.437C1150.82 221.799 1150.79 222.184 1150.79 222.594ZM1164.81 228.333H1161.45L1161.47 225.521H1164.81C1165.51 225.521 1166.09 225.354 1166.57 225.021C1167.06 224.687 1167.43 224.191 1167.68 223.531C1167.93 222.865 1168.06 222.045 1168.06 221.073V220.417C1168.06 219.687 1167.99 219.049 1167.84 218.5C1167.7 217.944 1167.5 217.483 1167.22 217.115C1166.94 216.74 1166.59 216.458 1166.18 216.271C1165.77 216.083 1165.3 215.99 1164.76 215.99H1161.39V213.167H1164.76C1165.79 213.167 1166.73 213.344 1167.58 213.698C1168.44 214.045 1169.19 214.545 1169.81 215.198C1170.44 215.844 1170.93 216.611 1171.27 217.5C1171.62 218.382 1171.79 219.361 1171.79 220.437V221.073C1171.79 222.142 1171.62 223.122 1171.27 224.01C1170.93 224.899 1170.45 225.667 1169.82 226.312C1169.2 226.958 1168.46 227.458 1167.6 227.812C1166.76 228.16 1165.83 228.333 1164.81 228.333ZM1163.54 213.167V228.333H1159.89V213.167H1163.54ZM1179.89 221.885H1175.98L1175.96 219.49H1179.13C1179.69 219.49 1180.15 219.427 1180.49 219.302C1180.83 219.17 1181.08 218.979 1181.23 218.729C1181.39 218.479 1181.47 218.167 1181.47 217.792C1181.47 217.361 1181.39 217.014 1181.23 216.75C1181.07 216.486 1180.82 216.295 1180.47 216.177C1180.13 216.052 1179.69 215.99 1179.15 215.99H1177.35V228.333H1173.7V213.167H1179.15C1180.08 213.167 1180.92 213.253 1181.66 213.427C1182.39 213.594 1183.02 213.851 1183.53 214.198C1184.05 214.545 1184.45 214.983 1184.72 215.51C1184.99 216.031 1185.13 216.646 1185.13 217.354C1185.13 217.972 1184.99 218.552 1184.73 219.094C1184.47 219.635 1184.02 220.076 1183.41 220.417C1182.8 220.75 1181.96 220.924 1180.9 220.937L1179.89 221.885ZM1179.74 228.333H1175.09L1176.34 225.521H1179.74C1180.24 225.521 1180.64 225.444 1180.94 225.292C1181.24 225.132 1181.46 224.924 1181.59 224.667C1181.73 224.403 1181.8 224.111 1181.8 223.792C1181.8 223.403 1181.74 223.066 1181.6 222.781C1181.48 222.497 1181.28 222.278 1181 222.125C1180.72 221.965 1180.35 221.885 1179.89 221.885H1176.81L1176.83 219.49H1180.51L1181.36 220.448C1182.38 220.406 1183.18 220.549 1183.77 220.875C1184.37 221.201 1184.8 221.632 1185.05 222.167C1185.31 222.701 1185.44 223.26 1185.44 223.844C1185.44 224.837 1185.22 225.667 1184.79 226.333C1184.37 227 1183.73 227.5 1182.89 227.833C1182.04 228.167 1180.99 228.333 1179.74 228.333Z" fill="white"/>
</svg>
