<svg width="1363" height="167" viewBox="0 0 1363 167" fill="none" xmlns="http://www.w3.org/2000/svg">
<rect width="1363" height="167" rx="15" fill="#F0F0F0"/>
<path d="M0 15C0 6.71573 6.71573 0 15 0H37V167H15C6.71573 167 0 160.284 0 152V15Z" fill="#424241"/>
<path d="M100.906 50.9219L93.3945 48.2383V45.0859L103.602 49.375V51.6367L100.906 50.9219ZM93.3945 53.1719L100.918 50.4297L103.602 49.7852V52.0352L93.3945 56.3242V53.1719ZM118.543 51.918H114.195V49.1758H118.543C119.215 49.1758 119.762 49.0664 120.184 48.8477C120.605 48.6211 120.914 48.3086 121.109 47.9102C121.305 47.5117 121.402 47.0625 121.402 46.5625C121.402 46.0547 121.305 45.582 121.109 45.1445C120.914 44.707 120.605 44.3555 120.184 44.0898C119.762 43.8242 119.215 43.6914 118.543 43.6914H115.414V58H111.898V40.9375H118.543C119.879 40.9375 121.023 41.1797 121.977 41.6641C122.938 42.1406 123.672 42.8008 124.18 43.6445C124.688 44.4883 124.941 45.4531 124.941 46.5391C124.941 47.6406 124.688 48.5938 124.18 49.3984C123.672 50.2031 122.938 50.8242 121.977 51.2617C121.023 51.6992 119.879 51.918 118.543 51.918ZM130.449 40V58H127.074V40H130.449ZM129.969 51.2148H129.043C129.051 50.332 129.168 49.5195 129.395 48.7773C129.621 48.0273 129.945 47.3789 130.367 46.832C130.789 46.2773 131.293 45.8477 131.879 45.543C132.473 45.2383 133.129 45.0859 133.848 45.0859C134.473 45.0859 135.039 45.1758 135.547 45.3555C136.062 45.5273 136.504 45.8086 136.871 46.1992C137.246 46.582 137.535 47.0859 137.738 47.7109C137.941 48.3359 138.043 49.0938 138.043 49.9844V58H134.645V49.9609C134.645 49.3984 134.562 48.957 134.398 48.6367C134.242 48.3086 134.012 48.0781 133.707 47.9453C133.41 47.8047 133.043 47.7344 132.605 47.7344C132.121 47.7344 131.707 47.8242 131.363 48.0039C131.027 48.1836 130.758 48.4336 130.555 48.7539C130.352 49.0664 130.203 49.4336 130.109 49.8555C130.016 50.2773 129.969 50.7305 129.969 51.2148ZM147.453 55.1406V49.4922C147.453 49.0859 147.387 48.7383 147.254 48.4492C147.121 48.1523 146.914 47.9219 146.633 47.7578C146.359 47.5938 146.004 47.5117 145.566 47.5117C145.191 47.5117 144.867 47.5781 144.594 47.7109C144.32 47.8359 144.109 48.0195 143.961 48.2617C143.812 48.4961 143.738 48.7734 143.738 49.0938H140.363C140.363 48.5547 140.488 48.043 140.738 47.5586C140.988 47.0742 141.352 46.6484 141.828 46.2812C142.305 45.9062 142.871 45.6133 143.527 45.4023C144.191 45.1914 144.934 45.0859 145.754 45.0859C146.738 45.0859 147.613 45.25 148.379 45.5781C149.145 45.9062 149.746 46.3984 150.184 47.0547C150.629 47.7109 150.852 48.5312 150.852 49.5156V54.9414C150.852 55.6367 150.895 56.207 150.98 56.6523C151.066 57.0898 151.191 57.4727 151.355 57.8008V58H147.945C147.781 57.6562 147.656 57.2266 147.57 56.7109C147.492 56.1875 147.453 55.6641 147.453 55.1406ZM147.898 50.2773L147.922 52.1875H146.035C145.59 52.1875 145.203 52.2383 144.875 52.3398C144.547 52.4414 144.277 52.5859 144.066 52.7734C143.855 52.9531 143.699 53.1641 143.598 53.4062C143.504 53.6484 143.457 53.9141 143.457 54.2031C143.457 54.4922 143.523 54.7539 143.656 54.9883C143.789 55.2148 143.98 55.3945 144.23 55.5273C144.48 55.6523 144.773 55.7148 145.109 55.7148C145.617 55.7148 146.059 55.6133 146.434 55.4102C146.809 55.207 147.098 54.957 147.301 54.6602C147.512 54.3633 147.621 54.082 147.629 53.8164L148.52 55.2461C148.395 55.5664 148.223 55.8984 148.004 56.2422C147.793 56.5859 147.523 56.9102 147.195 57.2148C146.867 57.5117 146.473 57.7578 146.012 57.9531C145.551 58.1406 145.004 58.2344 144.371 58.2344C143.566 58.2344 142.836 58.0742 142.18 57.7539C141.531 57.4258 141.016 56.9766 140.633 56.4062C140.258 55.8281 140.07 55.1719 140.07 54.4375C140.07 53.7734 140.195 53.1836 140.445 52.668C140.695 52.1523 141.062 51.7188 141.547 51.3672C142.039 51.0078 142.652 50.7383 143.387 50.5586C144.121 50.3711 144.973 50.2773 145.941 50.2773H147.898ZM156.828 48.0859V58H153.453V45.3203H156.629L156.828 48.0859ZM160.648 45.2383L160.59 48.3672C160.426 48.3438 160.227 48.3242 159.992 48.3086C159.766 48.2852 159.559 48.2734 159.371 48.2734C158.895 48.2734 158.48 48.3359 158.129 48.4609C157.785 48.5781 157.496 48.7539 157.262 48.9883C157.035 49.2227 156.863 49.5078 156.746 49.8438C156.637 50.1797 156.574 50.5625 156.559 50.9922L155.879 50.7812C155.879 49.9609 155.961 49.207 156.125 48.5195C156.289 47.8242 156.527 47.2188 156.84 46.7031C157.16 46.1875 157.551 45.7891 158.012 45.5078C158.473 45.2266 159 45.0859 159.594 45.0859C159.781 45.0859 159.973 45.1016 160.168 45.1328C160.363 45.1562 160.523 45.1914 160.648 45.2383ZM165.617 47.9453V58H162.23V45.3203H165.406L165.617 47.9453ZM165.148 51.2148H164.211C164.211 50.332 164.316 49.5195 164.527 48.7773C164.746 48.0273 165.062 47.3789 165.477 46.832C165.898 46.2773 166.418 45.8477 167.035 45.543C167.652 45.2383 168.367 45.0859 169.18 45.0859C169.742 45.0859 170.258 45.1719 170.727 45.3438C171.195 45.5078 171.598 45.7695 171.934 46.1289C172.277 46.4805 172.543 46.9414 172.73 47.5117C172.918 48.0742 173.012 48.75 173.012 49.5391V58H169.637V49.9141C169.637 49.3359 169.559 48.8906 169.402 48.5781C169.246 48.2656 169.023 48.0469 168.734 47.9219C168.453 47.7969 168.113 47.7344 167.715 47.7344C167.277 47.7344 166.895 47.8242 166.566 48.0039C166.246 48.1836 165.98 48.4336 165.77 48.7539C165.559 49.0664 165.402 49.4336 165.301 49.8555C165.199 50.2773 165.148 50.7305 165.148 51.2148ZM172.695 50.8281L171.488 50.9805C171.488 50.1523 171.59 49.3828 171.793 48.6719C172.004 47.9609 172.312 47.3359 172.719 46.7969C173.133 46.2578 173.645 45.8398 174.254 45.543C174.863 45.2383 175.566 45.0859 176.363 45.0859C176.973 45.0859 177.527 45.1758 178.027 45.3555C178.527 45.5273 178.953 45.8047 179.305 46.1875C179.664 46.5625 179.938 47.0547 180.125 47.6641C180.32 48.2734 180.418 49.0195 180.418 49.9023V58H177.031V49.9023C177.031 49.3164 176.953 48.8711 176.797 48.5664C176.648 48.2539 176.43 48.0391 176.141 47.9219C175.859 47.7969 175.523 47.7344 175.133 47.7344C174.727 47.7344 174.371 47.8164 174.066 47.9805C173.762 48.1367 173.508 48.3555 173.305 48.6367C173.102 48.918 172.949 49.2461 172.848 49.6211C172.746 49.9883 172.695 50.3906 172.695 50.8281ZM189.875 55.1406V49.4922C189.875 49.0859 189.809 48.7383 189.676 48.4492C189.543 48.1523 189.336 47.9219 189.055 47.7578C188.781 47.5938 188.426 47.5117 187.988 47.5117C187.613 47.5117 187.289 47.5781 187.016 47.7109C186.742 47.8359 186.531 48.0195 186.383 48.2617C186.234 48.4961 186.16 48.7734 186.16 49.0938H182.785C182.785 48.5547 182.91 48.043 183.16 47.5586C183.41 47.0742 183.773 46.6484 184.25 46.2812C184.727 45.9062 185.293 45.6133 185.949 45.4023C186.613 45.1914 187.355 45.0859 188.176 45.0859C189.16 45.0859 190.035 45.25 190.801 45.5781C191.566 45.9062 192.168 46.3984 192.605 47.0547C193.051 47.7109 193.273 48.5312 193.273 49.5156V54.9414C193.273 55.6367 193.316 56.207 193.402 56.6523C193.488 57.0898 193.613 57.4727 193.777 57.8008V58H190.367C190.203 57.6562 190.078 57.2266 189.992 56.7109C189.914 56.1875 189.875 55.6641 189.875 55.1406ZM190.32 50.2773L190.344 52.1875H188.457C188.012 52.1875 187.625 52.2383 187.297 52.3398C186.969 52.4414 186.699 52.5859 186.488 52.7734C186.277 52.9531 186.121 53.1641 186.02 53.4062C185.926 53.6484 185.879 53.9141 185.879 54.2031C185.879 54.4922 185.945 54.7539 186.078 54.9883C186.211 55.2148 186.402 55.3945 186.652 55.5273C186.902 55.6523 187.195 55.7148 187.531 55.7148C188.039 55.7148 188.48 55.6133 188.855 55.4102C189.23 55.207 189.52 54.957 189.723 54.6602C189.934 54.3633 190.043 54.082 190.051 53.8164L190.941 55.2461C190.816 55.5664 190.645 55.8984 190.426 56.2422C190.215 56.5859 189.945 56.9102 189.617 57.2148C189.289 57.5117 188.895 57.7578 188.434 57.9531C187.973 58.1406 187.426 58.2344 186.793 58.2344C185.988 58.2344 185.258 58.0742 184.602 57.7539C183.953 57.4258 183.438 56.9766 183.055 56.4062C182.68 55.8281 182.492 55.1719 182.492 54.4375C182.492 53.7734 182.617 53.1836 182.867 52.668C183.117 52.1523 183.484 51.7188 183.969 51.3672C184.461 51.0078 185.074 50.7383 185.809 50.5586C186.543 50.3711 187.395 50.2773 188.363 50.2773H190.32ZM207.055 55.2578V58H198.465V55.2578H207.055ZM199.602 40.9375V58H196.086V40.9375H199.602ZM214.695 58.2344C213.711 58.2344 212.828 58.0781 212.047 57.7656C211.266 57.4453 210.602 57.0039 210.055 56.4414C209.516 55.8789 209.102 55.2266 208.812 54.4844C208.523 53.7344 208.379 52.9375 208.379 52.0938V51.625C208.379 50.6641 208.516 49.7852 208.789 48.9883C209.062 48.1914 209.453 47.5 209.961 46.9141C210.477 46.3281 211.102 45.8789 211.836 45.5664C212.57 45.2461 213.398 45.0859 214.32 45.0859C215.219 45.0859 216.016 45.2344 216.711 45.5312C217.406 45.8281 217.988 46.25 218.457 46.7969C218.934 47.3438 219.293 48 219.535 48.7656C219.777 49.5234 219.898 50.3672 219.898 51.2969V52.7031H209.82V50.4531H216.582V50.1953C216.582 49.7266 216.496 49.3086 216.324 48.9414C216.16 48.5664 215.91 48.2695 215.574 48.0508C215.238 47.832 214.809 47.7227 214.285 47.7227C213.84 47.7227 213.457 47.8203 213.137 48.0156C212.816 48.2109 212.555 48.4844 212.352 48.8359C212.156 49.1875 212.008 49.6016 211.906 50.0781C211.812 50.5469 211.766 51.0625 211.766 51.625V52.0938C211.766 52.6016 211.836 53.0703 211.977 53.5C212.125 53.9297 212.332 54.3008 212.598 54.6133C212.871 54.9258 213.199 55.168 213.582 55.3398C213.973 55.5117 214.414 55.5977 214.906 55.5977C215.516 55.5977 216.082 55.4805 216.605 55.2461C217.137 55.0039 217.594 54.6406 217.977 54.1562L219.617 55.9375C219.352 56.3203 218.988 56.6875 218.527 57.0391C218.074 57.3906 217.527 57.6797 216.887 57.9062C216.246 58.125 215.516 58.2344 214.695 58.2344ZM221.82 40H225.195V55.0938L224.855 58H221.82V40ZM233.223 51.5312V51.7773C233.223 52.7227 233.121 53.5898 232.918 54.3789C232.723 55.168 232.418 55.8516 232.004 56.4297C231.59 57 231.074 57.4453 230.457 57.7656C229.848 58.0781 229.129 58.2344 228.301 58.2344C227.527 58.2344 226.855 58.0781 226.285 57.7656C225.723 57.4531 225.25 57.0117 224.867 56.4414C224.484 55.8711 224.176 55.2031 223.941 54.4375C223.707 53.6719 223.531 52.8359 223.414 51.9297V51.3906C223.531 50.4844 223.707 49.6484 223.941 48.8828C224.176 48.1172 224.484 47.4492 224.867 46.8789C225.25 46.3086 225.723 45.8672 226.285 45.5547C226.848 45.2422 227.512 45.0859 228.277 45.0859C229.113 45.0859 229.84 45.2461 230.457 45.5664C231.082 45.8789 231.598 46.3242 232.004 46.9023C232.418 47.4727 232.723 48.1523 232.918 48.9414C233.121 49.7227 233.223 50.5859 233.223 51.5312ZM229.848 51.7773V51.5312C229.848 51.0156 229.809 50.5312 229.73 50.0781C229.66 49.6172 229.535 49.2148 229.355 48.8711C229.176 48.5195 228.93 48.2422 228.617 48.0391C228.312 47.8359 227.918 47.7344 227.434 47.7344C226.973 47.7344 226.582 47.8125 226.262 47.9688C225.941 48.125 225.676 48.3438 225.465 48.625C225.262 48.9062 225.109 49.2422 225.008 49.6328C224.906 50.0156 224.844 50.4375 224.82 50.8984V52.4336C224.844 53.0508 224.945 53.5977 225.125 54.0742C225.312 54.543 225.594 54.9141 225.969 55.1875C226.352 55.4531 226.848 55.5859 227.457 55.5859C227.934 55.5859 228.328 55.4922 228.641 55.3047C228.953 55.1172 229.195 54.8516 229.367 54.5078C229.547 54.1641 229.672 53.7617 229.742 53.3008C229.812 52.832 229.848 52.3242 229.848 51.7773Z" fill="#888888"/>
<path d="M101.822 115.1L108.194 86.0078H111.995L114.061 88.4907L107.271 118H103.074L101.822 115.1ZM100.13 86.0078L105.513 115.319L104.129 118H99.2729L92.4834 86.0078H100.13ZM117.554 115.166L122.894 86.0078H130.518L123.729 118H118.895L117.554 115.166ZM114.742 86.0078L121.268 115.275L119.949 118H115.752L108.809 88.4468L110.962 86.0078H114.742ZM141.021 94.2256V118H133.594V94.2256H141.021ZM133.155 88.0952C133.155 87.0405 133.536 86.1763 134.297 85.5024C135.059 84.8286 136.048 84.4917 137.264 84.4917C138.479 84.4917 139.468 84.8286 140.23 85.5024C140.992 86.1763 141.373 87.0405 141.373 88.0952C141.373 89.1499 140.992 90.0142 140.23 90.688C139.468 91.3618 138.479 91.6987 137.264 91.6987C136.048 91.6987 135.059 91.3618 134.297 90.688C133.536 90.0142 133.155 89.1499 133.155 88.0952ZM153.062 100.114V118H145.657V94.2256H152.579L153.062 100.114ZM160.093 94.0498L159.961 100.927C159.668 100.898 159.273 100.861 158.775 100.817C158.277 100.773 157.859 100.751 157.522 100.751C156.658 100.751 155.911 100.854 155.281 101.059C154.666 101.25 154.153 101.542 153.743 101.938C153.348 102.319 153.055 102.802 152.864 103.388C152.688 103.974 152.608 104.655 152.623 105.432L151.282 104.553C151.282 102.956 151.436 101.506 151.744 100.202C152.066 98.8838 152.52 97.7485 153.106 96.7964C153.692 95.8296 154.402 95.0898 155.237 94.5771C156.072 94.0498 157.01 93.7861 158.05 93.7861C158.416 93.7861 158.775 93.8081 159.126 93.8521C159.493 93.896 159.815 93.9619 160.093 94.0498ZM173.716 118.439C171.783 118.439 170.054 118.139 168.531 117.539C167.007 116.923 165.718 116.081 164.664 115.012C163.624 113.942 162.825 112.712 162.269 111.32C161.727 109.929 161.456 108.457 161.456 106.904V106.069C161.456 104.326 161.697 102.714 162.181 101.235C162.664 99.7407 163.382 98.437 164.334 97.3237C165.286 96.2104 166.48 95.3462 167.916 94.731C169.351 94.1011 171.021 93.7861 172.925 93.7861C174.61 93.7861 176.119 94.0571 177.452 94.5991C178.785 95.1411 179.913 95.9175 180.835 96.9282C181.773 97.939 182.483 99.1621 182.967 100.598C183.465 102.033 183.714 103.645 183.714 105.432V108.442H164.29V103.806H176.485V103.234C176.5 102.443 176.36 101.77 176.067 101.213C175.789 100.656 175.379 100.231 174.837 99.9385C174.295 99.6455 173.636 99.499 172.859 99.499C172.054 99.499 171.387 99.6748 170.86 100.026C170.347 100.378 169.944 100.861 169.651 101.477C169.373 102.077 169.175 102.773 169.058 103.564C168.941 104.355 168.882 105.19 168.882 106.069V106.904C168.882 107.783 169 108.581 169.234 109.299C169.483 110.017 169.834 110.632 170.289 111.145C170.757 111.643 171.314 112.031 171.958 112.309C172.618 112.587 173.365 112.727 174.2 112.727C175.21 112.727 176.207 112.536 177.188 112.155C178.169 111.774 179.012 111.145 179.715 110.266L183.077 114.265C182.593 114.953 181.905 115.62 181.011 116.264C180.132 116.909 179.078 117.436 177.847 117.846C176.617 118.242 175.24 118.439 173.716 118.439ZM195.799 118H188.35V92.292C188.35 90.4463 188.724 88.8936 189.471 87.6338C190.218 86.374 191.272 85.4219 192.635 84.7773C193.997 84.1182 195.608 83.7886 197.469 83.7886C198.113 83.7886 198.721 83.8325 199.292 83.9204C199.864 84.0083 200.42 84.1182 200.962 84.25L200.984 89.6992C200.721 89.626 200.45 89.5747 200.171 89.5454C199.893 89.5161 199.549 89.5015 199.139 89.5015C198.421 89.5015 197.813 89.6113 197.315 89.8311C196.817 90.0361 196.436 90.3511 196.172 90.7759C195.923 91.186 195.799 91.6914 195.799 92.292V118ZM200.413 94.2256V99.3672H184.922V94.2256H200.413ZM210.542 100.114V118H203.138V94.2256H210.059L210.542 100.114ZM217.574 94.0498L217.442 100.927C217.149 100.898 216.753 100.861 216.255 100.817C215.757 100.773 215.34 100.751 215.003 100.751C214.139 100.751 213.392 100.854 212.762 101.059C212.146 101.25 211.634 101.542 211.224 101.938C210.828 102.319 210.535 102.802 210.345 103.388C210.169 103.974 210.088 104.655 210.103 105.432L208.763 104.553C208.763 102.956 208.917 101.506 209.224 100.202C209.546 98.8838 210 97.7485 210.586 96.7964C211.172 95.8296 211.883 95.0898 212.718 94.5771C213.553 94.0498 214.49 93.7861 215.53 93.7861C215.896 93.7861 216.255 93.8081 216.607 93.8521C216.973 93.896 217.295 93.9619 217.574 94.0498ZM231.812 112.023V102.224C231.812 101.55 231.717 100.971 231.526 100.488C231.336 100.004 231.036 99.6309 230.625 99.3672C230.215 99.0889 229.666 98.9497 228.978 98.9497C228.421 98.9497 227.945 99.0449 227.549 99.2354C227.154 99.4258 226.854 99.7114 226.648 100.092C226.443 100.473 226.341 100.957 226.341 101.542H218.936C218.936 100.444 219.178 99.4258 219.661 98.4883C220.159 97.5361 220.862 96.7085 221.771 96.0054C222.693 95.3022 223.792 94.7603 225.066 94.3794C226.355 93.9839 227.791 93.7861 229.373 93.7861C231.263 93.7861 232.947 94.1011 234.427 94.731C235.921 95.3608 237.1 96.3057 237.964 97.5654C238.829 98.8105 239.261 100.378 239.261 102.268V112.001C239.261 113.554 239.349 114.733 239.524 115.539C239.7 116.33 239.949 117.026 240.271 117.626V118H232.845C232.493 117.268 232.229 116.374 232.054 115.319C231.893 114.25 231.812 113.151 231.812 112.023ZM232.713 103.476L232.757 107.431H229.483C228.794 107.431 228.208 107.526 227.725 107.717C227.256 107.907 226.875 108.171 226.583 108.508C226.304 108.83 226.099 109.196 225.967 109.606C225.85 110.017 225.792 110.449 225.792 110.903C225.792 111.342 225.894 111.738 226.099 112.089C226.319 112.426 226.612 112.69 226.978 112.88C227.344 113.071 227.754 113.166 228.208 113.166C229.029 113.166 229.725 113.012 230.296 112.705C230.882 112.382 231.329 111.994 231.636 111.54C231.944 111.086 232.098 110.661 232.098 110.266L233.724 113.298C233.431 113.884 233.094 114.477 232.713 115.078C232.347 115.678 231.885 116.235 231.329 116.748C230.787 117.246 230.12 117.656 229.329 117.978C228.538 118.286 227.579 118.439 226.451 118.439C224.986 118.439 223.638 118.139 222.408 117.539C221.192 116.938 220.218 116.103 219.485 115.034C218.753 113.95 218.387 112.705 218.387 111.298C218.387 110.068 218.606 108.969 219.046 108.002C219.5 107.036 220.181 106.215 221.089 105.542C221.998 104.868 223.155 104.355 224.561 104.003C225.967 103.652 227.623 103.476 229.527 103.476H232.713ZM250.84 99.2573V118H243.436V94.2256H250.379L250.84 99.2573ZM249.939 105.3L248.248 105.344C248.248 103.674 248.445 102.136 248.841 100.729C249.236 99.3232 249.822 98.1001 250.599 97.0601C251.375 96.02 252.327 95.2144 253.455 94.6431C254.598 94.0718 255.916 93.7861 257.41 93.7861C258.45 93.7861 259.395 93.9473 260.245 94.2695C261.094 94.5771 261.827 95.0679 262.442 95.7417C263.057 96.4009 263.526 97.2651 263.848 98.3345C264.185 99.3892 264.354 100.656 264.354 102.136V118H256.949V103.081C256.949 102.07 256.832 101.308 256.597 100.795C256.377 100.283 256.055 99.9385 255.63 99.7627C255.206 99.5869 254.686 99.499 254.07 99.499C253.426 99.499 252.847 99.6455 252.334 99.9385C251.822 100.231 251.382 100.642 251.016 101.169C250.665 101.682 250.394 102.29 250.203 102.993C250.027 103.696 249.939 104.465 249.939 105.3ZM263.519 105.3L261.453 105.344C261.453 103.674 261.636 102.136 262.002 100.729C262.383 99.3232 262.947 98.1001 263.694 97.0601C264.456 96.02 265.401 95.2144 266.529 94.6431C267.657 94.0718 268.968 93.7861 270.462 93.7861C271.546 93.7861 272.542 93.9473 273.45 94.2695C274.358 94.5918 275.142 95.1118 275.801 95.8296C276.46 96.5474 276.973 97.4995 277.339 98.686C277.706 99.8579 277.889 101.308 277.889 103.037V118H270.462V103.037C270.462 102.055 270.345 101.315 270.11 100.817C269.891 100.305 269.568 99.9604 269.144 99.7847C268.719 99.5942 268.213 99.499 267.627 99.499C266.924 99.499 266.316 99.6455 265.804 99.9385C265.291 100.231 264.859 100.642 264.507 101.169C264.17 101.682 263.921 102.29 263.76 102.993C263.599 103.696 263.519 104.465 263.519 105.3ZM293.643 118.439C291.709 118.439 289.981 118.139 288.458 117.539C286.934 116.923 285.645 116.081 284.59 115.012C283.55 113.942 282.752 112.712 282.195 111.32C281.653 109.929 281.382 108.457 281.382 106.904V106.069C281.382 104.326 281.624 102.714 282.107 101.235C282.591 99.7407 283.309 98.437 284.261 97.3237C285.213 96.2104 286.407 95.3462 287.842 94.731C289.278 94.1011 290.948 93.7861 292.852 93.7861C294.537 93.7861 296.045 94.0571 297.378 94.5991C298.711 95.1411 299.839 95.9175 300.762 96.9282C301.7 97.939 302.41 99.1621 302.894 100.598C303.392 102.033 303.641 103.645 303.641 105.432V108.442H284.217V103.806H296.412V103.234C296.426 102.443 296.287 101.77 295.994 101.213C295.716 100.656 295.306 100.231 294.764 99.9385C294.222 99.6455 293.562 99.499 292.786 99.499C291.98 99.499 291.314 99.6748 290.787 100.026C290.274 100.378 289.871 100.861 289.578 101.477C289.3 102.077 289.102 102.773 288.985 103.564C288.868 104.355 288.809 105.19 288.809 106.069V106.904C288.809 107.783 288.926 108.581 289.161 109.299C289.41 110.017 289.761 110.632 290.215 111.145C290.684 111.643 291.241 112.031 291.885 112.309C292.544 112.587 293.292 112.727 294.126 112.727C295.137 112.727 296.133 112.536 297.115 112.155C298.096 111.774 298.938 111.145 299.642 110.266L303.003 114.265C302.52 114.953 301.832 115.62 300.938 116.264C300.059 116.909 299.004 117.436 297.774 117.846C296.543 118.242 295.167 118.439 293.643 118.439ZM319.109 111.32C319.109 110.91 318.97 110.559 318.692 110.266C318.428 109.958 317.959 109.68 317.286 109.431C316.612 109.167 315.667 108.903 314.451 108.64C313.294 108.391 312.203 108.061 311.177 107.651C310.167 107.241 309.28 106.743 308.519 106.157C307.757 105.571 307.156 104.875 306.717 104.069C306.292 103.264 306.08 102.341 306.08 101.301C306.08 100.29 306.292 99.3379 306.717 98.4443C307.156 97.5361 307.793 96.7378 308.628 96.0493C309.478 95.3462 310.511 94.7969 311.727 94.4014C312.942 93.9912 314.327 93.7861 315.879 93.7861C318.018 93.7861 319.864 94.1157 321.417 94.7749C322.969 95.4194 324.163 96.3276 324.998 97.4995C325.848 98.6567 326.272 99.9971 326.272 101.521H318.868C318.868 100.92 318.765 100.407 318.56 99.9824C318.37 99.5576 318.055 99.2354 317.615 99.0156C317.176 98.7812 316.59 98.6641 315.857 98.6641C315.345 98.6641 314.876 98.7593 314.451 98.9497C314.041 99.1401 313.711 99.4038 313.462 99.7407C313.213 100.078 313.089 100.473 313.089 100.927C313.089 101.25 313.162 101.542 313.309 101.806C313.47 102.055 313.711 102.29 314.034 102.509C314.356 102.714 314.766 102.905 315.264 103.081C315.762 103.242 316.363 103.388 317.066 103.52C318.663 103.813 320.157 104.23 321.548 104.772C322.94 105.314 324.068 106.083 324.932 107.08C325.811 108.076 326.25 109.416 326.25 111.101C326.25 112.155 326.009 113.129 325.525 114.023C325.042 114.902 324.346 115.678 323.438 116.352C322.53 117.011 321.438 117.524 320.164 117.89C318.89 118.256 317.454 118.439 315.857 118.439C313.587 118.439 311.668 118.037 310.101 117.231C308.533 116.411 307.347 115.385 306.541 114.155C305.75 112.91 305.354 111.65 305.354 110.375H312.254C312.283 111.108 312.459 111.708 312.781 112.177C313.118 112.646 313.565 112.99 314.122 113.21C314.678 113.43 315.323 113.54 316.055 113.54C316.729 113.54 317.286 113.444 317.725 113.254C318.179 113.063 318.523 112.807 318.758 112.485C318.992 112.148 319.109 111.76 319.109 111.32Z" fill="#424241"/>
<path d="M1363 15C1363 6.71573 1356.28 0 1348 0H1134V167H1348C1356.28 167 1363 160.284 1363 152V15Z" fill="#009FFF"/>
<path fill-rule="evenodd" clip-rule="evenodd" d="M1203 49C1203 47.8954 1203.9 47 1205 47H1292.5C1293.6 47 1294.5 47.8954 1294.5 49V118.996C1294.5 120.101 1293.6 120.996 1292.5 120.996H1205C1203.9 120.996 1203 120.101 1203 118.996V49ZM1207 51V55.4945H1290.5V51H1207ZM1290.5 59.4945H1235.44V116.996H1290.5V59.4945ZM1231.44 116.996V59.4945H1207V116.996H1231.44Z" fill="white"/>
<path fill-rule="evenodd" clip-rule="evenodd" d="M1209.97 64.8004C1209.97 63.6958 1210.87 62.8004 1211.97 62.8004H1225.97C1227.08 62.8004 1227.97 63.6958 1227.97 64.8004V84.1956C1227.97 85.3001 1227.08 86.1956 1225.97 86.1956H1211.97C1210.87 86.1956 1209.97 85.3001 1209.97 84.1956V64.8004ZM1213.97 66.8004V82.1956H1223.97V66.8004H1213.97ZM1239.58 65.6964C1239.58 64.5918 1240.47 63.6964 1241.58 63.6964H1284.5C1285.61 63.6964 1286.5 64.5918 1286.5 65.6964V111.905C1286.5 113.01 1285.61 113.905 1284.5 113.905H1241.58C1240.47 113.905 1239.58 113.01 1239.58 111.905V65.6964ZM1243.58 67.6964V109.905H1282.5V67.6964H1243.58ZM1209.81 95.9363C1209.81 94.8317 1210.71 93.9363 1211.81 93.9363H1220.73C1221.84 93.9363 1222.73 94.8317 1222.73 95.9363C1222.73 97.0409 1221.84 97.9363 1220.73 97.9363H1211.81C1210.71 97.9363 1209.81 97.0409 1209.81 95.9363ZM1209.81 102.936C1209.81 101.832 1210.71 100.936 1211.81 100.936H1226.35C1227.46 100.936 1228.35 101.832 1228.35 102.936C1228.35 104.041 1227.46 104.936 1226.35 104.936H1211.81C1210.71 104.936 1209.81 104.041 1209.81 102.936ZM1209.81 109.936C1209.81 108.832 1210.71 107.936 1211.81 107.936H1220.73C1221.84 107.936 1222.73 108.832 1222.73 109.936C1222.73 111.041 1221.84 111.936 1220.73 111.936H1211.81C1210.71 111.936 1209.81 111.041 1209.81 109.936Z" fill="white"/>
</svg>
