<svg width="1363" height="167" viewBox="0 0 1363 167" fill="none" xmlns="http://www.w3.org/2000/svg">
<rect width="1363" height="167" rx="15" fill="#F0F0F0"/>
<path d="M0 15C0 6.71573 6.71573 0 15 0H37V167H15C6.71573 167 0 160.284 0 152V15Z" fill="#424241"/>
<path d="M100.906 50.9219L93.3945 48.2383V45.0859L103.602 49.375V51.6367L100.906 50.9219ZM93.3945 53.1719L100.918 50.4297L103.602 49.7852V52.0352L93.3945 56.3242V53.1719ZM118.543 51.918H114.195V49.1758H118.543C119.215 49.1758 119.762 49.0664 120.184 48.8477C120.605 48.6211 120.914 48.3086 121.109 47.9102C121.305 47.5117 121.402 47.0625 121.402 46.5625C121.402 46.0547 121.305 45.582 121.109 45.1445C120.914 44.707 120.605 44.3555 120.184 44.0898C119.762 43.8242 119.215 43.6914 118.543 43.6914H115.414V58H111.898V40.9375H118.543C119.879 40.9375 121.023 41.1797 121.977 41.6641C122.938 42.1406 123.672 42.8008 124.18 43.6445C124.688 44.4883 124.941 45.4531 124.941 46.5391C124.941 47.6406 124.688 48.5938 124.18 49.3984C123.672 50.2031 122.938 50.8242 121.977 51.2617C121.023 51.6992 119.879 51.918 118.543 51.918ZM130.449 40V58H127.074V40H130.449ZM129.969 51.2148H129.043C129.051 50.332 129.168 49.5195 129.395 48.7773C129.621 48.0273 129.945 47.3789 130.367 46.832C130.789 46.2773 131.293 45.8477 131.879 45.543C132.473 45.2383 133.129 45.0859 133.848 45.0859C134.473 45.0859 135.039 45.1758 135.547 45.3555C136.062 45.5273 136.504 45.8086 136.871 46.1992C137.246 46.582 137.535 47.0859 137.738 47.7109C137.941 48.3359 138.043 49.0938 138.043 49.9844V58H134.645V49.9609C134.645 49.3984 134.562 48.957 134.398 48.6367C134.242 48.3086 134.012 48.0781 133.707 47.9453C133.41 47.8047 133.043 47.7344 132.605 47.7344C132.121 47.7344 131.707 47.8242 131.363 48.0039C131.027 48.1836 130.758 48.4336 130.555 48.7539C130.352 49.0664 130.203 49.4336 130.109 49.8555C130.016 50.2773 129.969 50.7305 129.969 51.2148ZM147.453 55.1406V49.4922C147.453 49.0859 147.387 48.7383 147.254 48.4492C147.121 48.1523 146.914 47.9219 146.633 47.7578C146.359 47.5938 146.004 47.5117 145.566 47.5117C145.191 47.5117 144.867 47.5781 144.594 47.7109C144.32 47.8359 144.109 48.0195 143.961 48.2617C143.812 48.4961 143.738 48.7734 143.738 49.0938H140.363C140.363 48.5547 140.488 48.043 140.738 47.5586C140.988 47.0742 141.352 46.6484 141.828 46.2812C142.305 45.9062 142.871 45.6133 143.527 45.4023C144.191 45.1914 144.934 45.0859 145.754 45.0859C146.738 45.0859 147.613 45.25 148.379 45.5781C149.145 45.9062 149.746 46.3984 150.184 47.0547C150.629 47.7109 150.852 48.5312 150.852 49.5156V54.9414C150.852 55.6367 150.895 56.207 150.98 56.6523C151.066 57.0898 151.191 57.4727 151.355 57.8008V58H147.945C147.781 57.6562 147.656 57.2266 147.57 56.7109C147.492 56.1875 147.453 55.6641 147.453 55.1406ZM147.898 50.2773L147.922 52.1875H146.035C145.59 52.1875 145.203 52.2383 144.875 52.3398C144.547 52.4414 144.277 52.5859 144.066 52.7734C143.855 52.9531 143.699 53.1641 143.598 53.4062C143.504 53.6484 143.457 53.9141 143.457 54.2031C143.457 54.4922 143.523 54.7539 143.656 54.9883C143.789 55.2148 143.98 55.3945 144.23 55.5273C144.48 55.6523 144.773 55.7148 145.109 55.7148C145.617 55.7148 146.059 55.6133 146.434 55.4102C146.809 55.207 147.098 54.957 147.301 54.6602C147.512 54.3633 147.621 54.082 147.629 53.8164L148.52 55.2461C148.395 55.5664 148.223 55.8984 148.004 56.2422C147.793 56.5859 147.523 56.9102 147.195 57.2148C146.867 57.5117 146.473 57.7578 146.012 57.9531C145.551 58.1406 145.004 58.2344 144.371 58.2344C143.566 58.2344 142.836 58.0742 142.18 57.7539C141.531 57.4258 141.016 56.9766 140.633 56.4062C140.258 55.8281 140.07 55.1719 140.07 54.4375C140.07 53.7734 140.195 53.1836 140.445 52.668C140.695 52.1523 141.062 51.7188 141.547 51.3672C142.039 51.0078 142.652 50.7383 143.387 50.5586C144.121 50.3711 144.973 50.2773 145.941 50.2773H147.898ZM156.828 48.0859V58H153.453V45.3203H156.629L156.828 48.0859ZM160.648 45.2383L160.59 48.3672C160.426 48.3438 160.227 48.3242 159.992 48.3086C159.766 48.2852 159.559 48.2734 159.371 48.2734C158.895 48.2734 158.48 48.3359 158.129 48.4609C157.785 48.5781 157.496 48.7539 157.262 48.9883C157.035 49.2227 156.863 49.5078 156.746 49.8438C156.637 50.1797 156.574 50.5625 156.559 50.9922L155.879 50.7812C155.879 49.9609 155.961 49.207 156.125 48.5195C156.289 47.8242 156.527 47.2188 156.84 46.7031C157.16 46.1875 157.551 45.7891 158.012 45.5078C158.473 45.2266 159 45.0859 159.594 45.0859C159.781 45.0859 159.973 45.1016 160.168 45.1328C160.363 45.1562 160.523 45.1914 160.648 45.2383ZM165.617 47.9453V58H162.23V45.3203H165.406L165.617 47.9453ZM165.148 51.2148H164.211C164.211 50.332 164.316 49.5195 164.527 48.7773C164.746 48.0273 165.062 47.3789 165.477 46.832C165.898 46.2773 166.418 45.8477 167.035 45.543C167.652 45.2383 168.367 45.0859 169.18 45.0859C169.742 45.0859 170.258 45.1719 170.727 45.3438C171.195 45.5078 171.598 45.7695 171.934 46.1289C172.277 46.4805 172.543 46.9414 172.73 47.5117C172.918 48.0742 173.012 48.75 173.012 49.5391V58H169.637V49.9141C169.637 49.3359 169.559 48.8906 169.402 48.5781C169.246 48.2656 169.023 48.0469 168.734 47.9219C168.453 47.7969 168.113 47.7344 167.715 47.7344C167.277 47.7344 166.895 47.8242 166.566 48.0039C166.246 48.1836 165.98 48.4336 165.77 48.7539C165.559 49.0664 165.402 49.4336 165.301 49.8555C165.199 50.2773 165.148 50.7305 165.148 51.2148ZM172.695 50.8281L171.488 50.9805C171.488 50.1523 171.59 49.3828 171.793 48.6719C172.004 47.9609 172.312 47.3359 172.719 46.7969C173.133 46.2578 173.645 45.8398 174.254 45.543C174.863 45.2383 175.566 45.0859 176.363 45.0859C176.973 45.0859 177.527 45.1758 178.027 45.3555C178.527 45.5273 178.953 45.8047 179.305 46.1875C179.664 46.5625 179.938 47.0547 180.125 47.6641C180.32 48.2734 180.418 49.0195 180.418 49.9023V58H177.031V49.9023C177.031 49.3164 176.953 48.8711 176.797 48.5664C176.648 48.2539 176.43 48.0391 176.141 47.9219C175.859 47.7969 175.523 47.7344 175.133 47.7344C174.727 47.7344 174.371 47.8164 174.066 47.9805C173.762 48.1367 173.508 48.3555 173.305 48.6367C173.102 48.918 172.949 49.2461 172.848 49.6211C172.746 49.9883 172.695 50.3906 172.695 50.8281ZM189.875 55.1406V49.4922C189.875 49.0859 189.809 48.7383 189.676 48.4492C189.543 48.1523 189.336 47.9219 189.055 47.7578C188.781 47.5938 188.426 47.5117 187.988 47.5117C187.613 47.5117 187.289 47.5781 187.016 47.7109C186.742 47.8359 186.531 48.0195 186.383 48.2617C186.234 48.4961 186.16 48.7734 186.16 49.0938H182.785C182.785 48.5547 182.91 48.043 183.16 47.5586C183.41 47.0742 183.773 46.6484 184.25 46.2812C184.727 45.9062 185.293 45.6133 185.949 45.4023C186.613 45.1914 187.355 45.0859 188.176 45.0859C189.16 45.0859 190.035 45.25 190.801 45.5781C191.566 45.9062 192.168 46.3984 192.605 47.0547C193.051 47.7109 193.273 48.5312 193.273 49.5156V54.9414C193.273 55.6367 193.316 56.207 193.402 56.6523C193.488 57.0898 193.613 57.4727 193.777 57.8008V58H190.367C190.203 57.6562 190.078 57.2266 189.992 56.7109C189.914 56.1875 189.875 55.6641 189.875 55.1406ZM190.32 50.2773L190.344 52.1875H188.457C188.012 52.1875 187.625 52.2383 187.297 52.3398C186.969 52.4414 186.699 52.5859 186.488 52.7734C186.277 52.9531 186.121 53.1641 186.02 53.4062C185.926 53.6484 185.879 53.9141 185.879 54.2031C185.879 54.4922 185.945 54.7539 186.078 54.9883C186.211 55.2148 186.402 55.3945 186.652 55.5273C186.902 55.6523 187.195 55.7148 187.531 55.7148C188.039 55.7148 188.48 55.6133 188.855 55.4102C189.23 55.207 189.52 54.957 189.723 54.6602C189.934 54.3633 190.043 54.082 190.051 53.8164L190.941 55.2461C190.816 55.5664 190.645 55.8984 190.426 56.2422C190.215 56.5859 189.945 56.9102 189.617 57.2148C189.289 57.5117 188.895 57.7578 188.434 57.9531C187.973 58.1406 187.426 58.2344 186.793 58.2344C185.988 58.2344 185.258 58.0742 184.602 57.7539C183.953 57.4258 183.438 56.9766 183.055 56.4062C182.68 55.8281 182.492 55.1719 182.492 54.4375C182.492 53.7734 182.617 53.1836 182.867 52.668C183.117 52.1523 183.484 51.7188 183.969 51.3672C184.461 51.0078 185.074 50.7383 185.809 50.5586C186.543 50.3711 187.395 50.2773 188.363 50.2773H190.32ZM207.055 55.2578V58H198.465V55.2578H207.055ZM199.602 40.9375V58H196.086V40.9375H199.602ZM214.695 58.2344C213.711 58.2344 212.828 58.0781 212.047 57.7656C211.266 57.4453 210.602 57.0039 210.055 56.4414C209.516 55.8789 209.102 55.2266 208.812 54.4844C208.523 53.7344 208.379 52.9375 208.379 52.0938V51.625C208.379 50.6641 208.516 49.7852 208.789 48.9883C209.062 48.1914 209.453 47.5 209.961 46.9141C210.477 46.3281 211.102 45.8789 211.836 45.5664C212.57 45.2461 213.398 45.0859 214.32 45.0859C215.219 45.0859 216.016 45.2344 216.711 45.5312C217.406 45.8281 217.988 46.25 218.457 46.7969C218.934 47.3438 219.293 48 219.535 48.7656C219.777 49.5234 219.898 50.3672 219.898 51.2969V52.7031H209.82V50.4531H216.582V50.1953C216.582 49.7266 216.496 49.3086 216.324 48.9414C216.16 48.5664 215.91 48.2695 215.574 48.0508C215.238 47.832 214.809 47.7227 214.285 47.7227C213.84 47.7227 213.457 47.8203 213.137 48.0156C212.816 48.2109 212.555 48.4844 212.352 48.8359C212.156 49.1875 212.008 49.6016 211.906 50.0781C211.812 50.5469 211.766 51.0625 211.766 51.625V52.0938C211.766 52.6016 211.836 53.0703 211.977 53.5C212.125 53.9297 212.332 54.3008 212.598 54.6133C212.871 54.9258 213.199 55.168 213.582 55.3398C213.973 55.5117 214.414 55.5977 214.906 55.5977C215.516 55.5977 216.082 55.4805 216.605 55.2461C217.137 55.0039 217.594 54.6406 217.977 54.1562L219.617 55.9375C219.352 56.3203 218.988 56.6875 218.527 57.0391C218.074 57.3906 217.527 57.6797 216.887 57.9062C216.246 58.125 215.516 58.2344 214.695 58.2344ZM221.82 40H225.195V55.0938L224.855 58H221.82V40ZM233.223 51.5312V51.7773C233.223 52.7227 233.121 53.5898 232.918 54.3789C232.723 55.168 232.418 55.8516 232.004 56.4297C231.59 57 231.074 57.4453 230.457 57.7656C229.848 58.0781 229.129 58.2344 228.301 58.2344C227.527 58.2344 226.855 58.0781 226.285 57.7656C225.723 57.4531 225.25 57.0117 224.867 56.4414C224.484 55.8711 224.176 55.2031 223.941 54.4375C223.707 53.6719 223.531 52.8359 223.414 51.9297V51.3906C223.531 50.4844 223.707 49.6484 223.941 48.8828C224.176 48.1172 224.484 47.4492 224.867 46.8789C225.25 46.3086 225.723 45.8672 226.285 45.5547C226.848 45.2422 227.512 45.0859 228.277 45.0859C229.113 45.0859 229.84 45.2461 230.457 45.5664C231.082 45.8789 231.598 46.3242 232.004 46.9023C232.418 47.4727 232.723 48.1523 232.918 48.9414C233.121 49.7227 233.223 50.5859 233.223 51.5312ZM229.848 51.7773V51.5312C229.848 51.0156 229.809 50.5312 229.73 50.0781C229.66 49.6172 229.535 49.2148 229.355 48.8711C229.176 48.5195 228.93 48.2422 228.617 48.0391C228.312 47.8359 227.918 47.7344 227.434 47.7344C226.973 47.7344 226.582 47.8125 226.262 47.9688C225.941 48.125 225.676 48.3438 225.465 48.625C225.262 48.9062 225.109 49.2422 225.008 49.6328C224.906 50.0156 224.844 50.4375 224.82 50.8984V52.4336C224.844 53.0508 224.945 53.5977 225.125 54.0742C225.312 54.543 225.594 54.9141 225.969 55.1875C226.352 55.4531 226.848 55.5859 227.457 55.5859C227.934 55.5859 228.328 55.4922 228.641 55.3047C228.953 55.1172 229.195 54.8516 229.367 54.5078C229.547 54.1641 229.672 53.7617 229.742 53.3008C229.812 52.832 229.848 52.3242 229.848 51.7773Z" fill="#888888"/>
<path d="M102.635 86.0078V118H94.9443V86.0078H102.635ZM115.181 99.2573V118H107.776V94.2256H114.72L115.181 99.2573ZM114.28 105.3L112.588 105.344C112.588 103.674 112.786 102.136 113.182 100.729C113.577 99.3232 114.163 98.1001 114.939 97.0601C115.716 96.02 116.668 95.2144 117.796 94.6431C118.938 94.0718 120.257 93.7861 121.751 93.7861C122.791 93.7861 123.736 93.9473 124.585 94.2695C125.435 94.5771 126.167 95.0679 126.783 95.7417C127.398 96.4009 127.867 97.2651 128.189 98.3345C128.526 99.3892 128.694 100.656 128.694 102.136V118H121.29V103.081C121.29 102.07 121.172 101.308 120.938 100.795C120.718 100.283 120.396 99.9385 119.971 99.7627C119.546 99.5869 119.026 99.499 118.411 99.499C117.767 99.499 117.188 99.6455 116.675 99.9385C116.163 100.231 115.723 100.642 115.357 101.169C115.005 101.682 114.734 102.29 114.544 102.993C114.368 103.696 114.28 104.465 114.28 105.3ZM127.859 105.3L125.794 105.344C125.794 103.674 125.977 102.136 126.343 100.729C126.724 99.3232 127.288 98.1001 128.035 97.0601C128.797 96.02 129.742 95.2144 130.87 94.6431C131.998 94.0718 133.309 93.7861 134.803 93.7861C135.887 93.7861 136.883 93.9473 137.791 94.2695C138.699 94.5918 139.483 95.1118 140.142 95.8296C140.801 96.5474 141.314 97.4995 141.68 98.686C142.046 99.8579 142.229 101.308 142.229 103.037V118H134.803V103.037C134.803 102.055 134.686 101.315 134.451 100.817C134.231 100.305 133.909 99.9604 133.484 99.7847C133.06 99.5942 132.554 99.499 131.968 99.499C131.265 99.499 130.657 99.6455 130.145 99.9385C129.632 100.231 129.2 100.642 128.848 101.169C128.511 101.682 128.262 102.29 128.101 102.993C127.94 103.696 127.859 104.465 127.859 105.3ZM153.941 98.7959V127.141H146.536V94.2256H153.436L153.941 98.7959ZM168.531 105.827V106.289C168.531 108.017 168.333 109.621 167.938 111.101C167.542 112.58 166.956 113.869 166.18 114.968C165.403 116.066 164.437 116.923 163.279 117.539C162.137 118.139 160.811 118.439 159.302 118.439C157.881 118.439 156.658 118.125 155.633 117.495C154.607 116.865 153.75 115.993 153.062 114.88C152.374 113.767 151.817 112.492 151.392 111.057C150.967 109.621 150.63 108.105 150.381 106.508V105.915C150.63 104.201 150.967 102.612 151.392 101.147C151.817 99.6675 152.374 98.3784 153.062 97.2798C153.75 96.1812 154.6 95.3242 155.611 94.709C156.636 94.0938 157.859 93.7861 159.28 93.7861C160.789 93.7861 162.115 94.0718 163.257 94.6431C164.415 95.2144 165.381 96.0347 166.158 97.104C166.949 98.1587 167.542 99.4258 167.938 100.905C168.333 102.385 168.531 104.025 168.531 105.827ZM161.126 106.289V105.827C161.126 104.904 161.06 104.062 160.928 103.3C160.796 102.524 160.584 101.85 160.291 101.279C160.013 100.708 159.639 100.268 159.17 99.9604C158.702 99.6528 158.123 99.499 157.435 99.499C156.644 99.499 155.977 99.6235 155.435 99.8726C154.908 100.107 154.483 100.473 154.161 100.971C153.853 101.455 153.633 102.062 153.501 102.795C153.384 103.513 153.333 104.355 153.348 105.322V107.124C153.318 108.237 153.428 109.218 153.677 110.068C153.926 110.903 154.358 111.555 154.974 112.023C155.589 112.492 156.424 112.727 157.479 112.727C158.182 112.727 158.768 112.565 159.236 112.243C159.705 111.906 160.079 111.445 160.357 110.859C160.635 110.258 160.833 109.57 160.95 108.793C161.067 108.017 161.126 107.182 161.126 106.289ZM179.649 84.25V118H172.222V84.25H179.649ZM195.733 118.439C193.799 118.439 192.071 118.139 190.547 117.539C189.024 116.923 187.735 116.081 186.68 115.012C185.64 113.942 184.842 112.712 184.285 111.32C183.743 109.929 183.472 108.457 183.472 106.904V106.069C183.472 104.326 183.714 102.714 184.197 101.235C184.681 99.7407 185.398 98.437 186.351 97.3237C187.303 96.2104 188.497 95.3462 189.932 94.731C191.368 94.1011 193.038 93.7861 194.942 93.7861C196.626 93.7861 198.135 94.0571 199.468 94.5991C200.801 95.1411 201.929 95.9175 202.852 96.9282C203.79 97.939 204.5 99.1621 204.983 100.598C205.481 102.033 205.73 103.645 205.73 105.432V108.442H186.307V103.806H198.501V103.234C198.516 102.443 198.377 101.77 198.084 101.213C197.806 100.656 197.396 100.231 196.854 99.9385C196.312 99.6455 195.652 99.499 194.876 99.499C194.07 99.499 193.404 99.6748 192.876 100.026C192.364 100.378 191.961 100.861 191.668 101.477C191.39 102.077 191.192 102.773 191.075 103.564C190.958 104.355 190.899 105.19 190.899 106.069V106.904C190.899 107.783 191.016 108.581 191.25 109.299C191.5 110.017 191.851 110.632 192.305 111.145C192.774 111.643 193.331 112.031 193.975 112.309C194.634 112.587 195.381 112.727 196.216 112.727C197.227 112.727 198.223 112.536 199.205 112.155C200.186 111.774 201.028 111.145 201.731 110.266L205.093 114.265C204.61 114.953 203.921 115.62 203.028 116.264C202.149 116.909 201.094 117.436 199.864 117.846C198.633 118.242 197.256 118.439 195.733 118.439ZM216.211 99.2573V118H208.807V94.2256H215.75L216.211 99.2573ZM215.311 105.3L213.619 105.344C213.619 103.674 213.816 102.136 214.212 100.729C214.607 99.3232 215.193 98.1001 215.97 97.0601C216.746 96.02 217.698 95.2144 218.826 94.6431C219.969 94.0718 221.287 93.7861 222.781 93.7861C223.821 93.7861 224.766 93.9473 225.616 94.2695C226.465 94.5771 227.198 95.0679 227.813 95.7417C228.428 96.4009 228.897 97.2651 229.219 98.3345C229.556 99.3892 229.725 100.656 229.725 102.136V118H222.32V103.081C222.32 102.07 222.203 101.308 221.968 100.795C221.749 100.283 221.426 99.9385 221.001 99.7627C220.577 99.5869 220.057 99.499 219.441 99.499C218.797 99.499 218.218 99.6455 217.706 99.9385C217.193 100.231 216.753 100.642 216.387 101.169C216.036 101.682 215.765 102.29 215.574 102.993C215.398 103.696 215.311 104.465 215.311 105.3ZM228.89 105.3L226.824 105.344C226.824 103.674 227.007 102.136 227.374 100.729C227.754 99.3232 228.318 98.1001 229.065 97.0601C229.827 96.02 230.772 95.2144 231.9 94.6431C233.028 94.0718 234.339 93.7861 235.833 93.7861C236.917 93.7861 237.913 93.9473 238.821 94.2695C239.729 94.5918 240.513 95.1118 241.172 95.8296C241.832 96.5474 242.344 97.4995 242.71 98.686C243.077 99.8579 243.26 101.308 243.26 103.037V118H235.833V103.037C235.833 102.055 235.716 101.315 235.481 100.817C235.262 100.305 234.939 99.9604 234.515 99.7847C234.09 99.5942 233.584 99.499 232.999 99.499C232.295 99.499 231.688 99.6455 231.175 99.9385C230.662 100.231 230.23 100.642 229.878 101.169C229.542 101.682 229.292 102.29 229.131 102.993C228.97 103.696 228.89 104.465 228.89 105.3ZM259.014 118.439C257.081 118.439 255.352 118.139 253.829 117.539C252.305 116.923 251.016 116.081 249.961 115.012C248.921 113.942 248.123 112.712 247.566 111.32C247.024 109.929 246.753 108.457 246.753 106.904V106.069C246.753 104.326 246.995 102.714 247.479 101.235C247.962 99.7407 248.68 98.437 249.632 97.3237C250.584 96.2104 251.778 95.3462 253.213 94.731C254.649 94.1011 256.319 93.7861 258.223 93.7861C259.908 93.7861 261.417 94.0571 262.75 94.5991C264.083 95.1411 265.21 95.9175 266.133 96.9282C267.071 97.939 267.781 99.1621 268.265 100.598C268.763 102.033 269.012 103.645 269.012 105.432V108.442H249.588V103.806H261.783V103.234C261.797 102.443 261.658 101.77 261.365 101.213C261.087 100.656 260.677 100.231 260.135 99.9385C259.593 99.6455 258.934 99.499 258.157 99.499C257.352 99.499 256.685 99.6748 256.158 100.026C255.645 100.378 255.242 100.861 254.949 101.477C254.671 102.077 254.473 102.773 254.356 103.564C254.239 104.355 254.18 105.19 254.18 106.069V106.904C254.18 107.783 254.297 108.581 254.532 109.299C254.781 110.017 255.132 110.632 255.586 111.145C256.055 111.643 256.612 112.031 257.256 112.309C257.916 112.587 258.663 112.727 259.498 112.727C260.508 112.727 261.504 112.536 262.486 112.155C263.467 111.774 264.31 111.145 265.013 110.266L268.375 114.265C267.891 114.953 267.203 115.62 266.309 116.264C265.43 116.909 264.375 117.436 263.145 117.846C261.915 118.242 260.538 118.439 259.014 118.439ZM279.295 99.3013V118H271.89V94.2256H278.833L279.295 99.3013ZM278.416 105.3L276.68 105.344C276.68 103.527 276.9 101.909 277.339 100.488C277.779 99.0522 278.401 97.8364 279.207 96.8403C280.013 95.8442 280.972 95.0898 282.085 94.5771C283.213 94.0498 284.466 93.7861 285.843 93.7861C286.941 93.7861 287.945 93.9473 288.853 94.2695C289.776 94.5918 290.567 95.1118 291.226 95.8296C291.9 96.5474 292.413 97.4995 292.764 98.686C293.13 99.8579 293.313 101.308 293.313 103.037V118H285.865V103.015C285.865 102.062 285.733 101.337 285.469 100.839C285.206 100.327 284.825 99.9751 284.327 99.7847C283.829 99.5942 283.221 99.499 282.503 99.499C281.741 99.499 281.097 99.6455 280.569 99.9385C280.042 100.231 279.617 100.642 279.295 101.169C278.987 101.682 278.76 102.29 278.614 102.993C278.482 103.696 278.416 104.465 278.416 105.3ZM309.947 94.2256V99.3672H295.621V94.2256H309.947ZM298.631 88.3149H306.036V110.244C306.036 110.874 306.109 111.364 306.255 111.716C306.402 112.053 306.651 112.294 307.002 112.441C307.369 112.573 307.852 112.639 308.453 112.639C308.877 112.639 309.229 112.631 309.507 112.617C309.786 112.587 310.049 112.551 310.298 112.507V117.802C309.668 118.007 309.009 118.161 308.321 118.264C307.632 118.381 306.9 118.439 306.124 118.439C304.542 118.439 303.187 118.19 302.059 117.692C300.945 117.194 300.096 116.411 299.51 115.341C298.924 114.272 298.631 112.88 298.631 111.167V88.3149ZM325.24 112.023V102.224C325.24 101.55 325.145 100.971 324.954 100.488C324.764 100.004 324.463 99.6309 324.053 99.3672C323.643 99.0889 323.094 98.9497 322.405 98.9497C321.849 98.9497 321.373 99.0449 320.977 99.2354C320.582 99.4258 320.281 99.7114 320.076 100.092C319.871 100.473 319.769 100.957 319.769 101.542H312.364C312.364 100.444 312.605 99.4258 313.089 98.4883C313.587 97.5361 314.29 96.7085 315.198 96.0054C316.121 95.3022 317.22 94.7603 318.494 94.3794C319.783 93.9839 321.219 93.7861 322.801 93.7861C324.69 93.7861 326.375 94.1011 327.854 94.731C329.349 95.3608 330.528 96.3057 331.392 97.5654C332.256 98.8105 332.688 100.378 332.688 102.268V112.001C332.688 113.554 332.776 114.733 332.952 115.539C333.128 116.33 333.377 117.026 333.699 117.626V118H326.272C325.921 117.268 325.657 116.374 325.481 115.319C325.32 114.25 325.24 113.151 325.24 112.023ZM326.141 103.476L326.185 107.431H322.911C322.222 107.431 321.636 107.526 321.153 107.717C320.684 107.907 320.303 108.171 320.01 108.508C319.732 108.83 319.527 109.196 319.395 109.606C319.278 110.017 319.219 110.449 319.219 110.903C319.219 111.342 319.322 111.738 319.527 112.089C319.747 112.426 320.04 112.69 320.406 112.88C320.772 113.071 321.182 113.166 321.636 113.166C322.457 113.166 323.152 113.012 323.724 112.705C324.31 112.382 324.756 111.994 325.064 111.54C325.372 111.086 325.525 110.661 325.525 110.266L327.151 113.298C326.858 113.884 326.521 114.477 326.141 115.078C325.774 115.678 325.313 116.235 324.756 116.748C324.214 117.246 323.548 117.656 322.757 117.978C321.966 118.286 321.006 118.439 319.878 118.439C318.414 118.439 317.066 118.139 315.835 117.539C314.62 116.938 313.646 116.103 312.913 115.034C312.181 113.95 311.814 112.705 311.814 111.298C311.814 110.068 312.034 108.969 312.474 108.002C312.928 107.036 313.609 106.215 314.517 105.542C315.425 104.868 316.583 104.355 317.989 104.003C319.395 103.652 321.05 103.476 322.955 103.476H326.141ZM349.322 94.2256V99.3672H334.996V94.2256H349.322ZM338.006 88.3149H345.411V110.244C345.411 110.874 345.484 111.364 345.63 111.716C345.777 112.053 346.026 112.294 346.377 112.441C346.744 112.573 347.227 112.639 347.828 112.639C348.252 112.639 348.604 112.631 348.882 112.617C349.161 112.587 349.424 112.551 349.673 112.507V117.802C349.043 118.007 348.384 118.161 347.696 118.264C347.007 118.381 346.275 118.439 345.499 118.439C343.917 118.439 342.562 118.19 341.434 117.692C340.32 117.194 339.471 116.411 338.885 115.341C338.299 114.272 338.006 112.88 338.006 111.167V88.3149ZM360.088 94.2256V118H352.662V94.2256H360.088ZM352.222 88.0952C352.222 87.0405 352.603 86.1763 353.365 85.5024C354.126 84.8286 355.115 84.4917 356.331 84.4917C357.547 84.4917 358.536 84.8286 359.297 85.5024C360.059 86.1763 360.44 87.0405 360.44 88.0952C360.44 89.1499 360.059 90.0142 359.297 90.688C358.536 91.3618 357.547 91.6987 356.331 91.6987C355.115 91.6987 354.126 91.3618 353.365 90.688C352.603 90.0142 352.222 89.1499 352.222 88.0952ZM363.736 106.354V105.893C363.736 104.15 363.985 102.546 364.483 101.081C364.981 99.6016 365.713 98.3198 366.68 97.2358C367.647 96.1519 368.841 95.3096 370.262 94.709C371.683 94.0938 373.323 93.7861 375.184 93.7861C377.059 93.7861 378.707 94.0938 380.127 94.709C381.563 95.3096 382.764 96.1519 383.731 97.2358C384.698 98.3198 385.43 99.6016 385.928 101.081C386.426 102.546 386.675 104.15 386.675 105.893V106.354C386.675 108.083 386.426 109.687 385.928 111.167C385.43 112.631 384.698 113.913 383.731 115.012C382.764 116.096 381.57 116.938 380.149 117.539C378.729 118.139 377.088 118.439 375.228 118.439C373.367 118.439 371.719 118.139 370.284 117.539C368.848 116.938 367.647 116.096 366.68 115.012C365.713 113.913 364.981 112.631 364.483 111.167C363.985 109.687 363.736 108.083 363.736 106.354ZM371.141 105.893V106.354C371.141 107.248 371.207 108.083 371.338 108.859C371.47 109.636 371.69 110.317 371.998 110.903C372.305 111.474 372.723 111.921 373.25 112.243C373.777 112.565 374.437 112.727 375.228 112.727C376.004 112.727 376.648 112.565 377.161 112.243C377.688 111.921 378.106 111.474 378.414 110.903C378.721 110.317 378.941 109.636 379.073 108.859C379.205 108.083 379.271 107.248 379.271 106.354V105.893C379.271 105.029 379.205 104.216 379.073 103.454C378.941 102.678 378.721 101.997 378.414 101.411C378.106 100.81 377.688 100.341 377.161 100.004C376.634 99.6675 375.975 99.499 375.184 99.499C374.407 99.499 373.755 99.6675 373.228 100.004C372.715 100.341 372.305 100.81 371.998 101.411C371.69 101.997 371.47 102.678 371.338 103.454C371.207 104.216 371.141 105.029 371.141 105.893ZM397.244 99.3013V118H389.839V94.2256H396.783L397.244 99.3013ZM396.365 105.3L394.629 105.344C394.629 103.527 394.849 101.909 395.289 100.488C395.728 99.0522 396.351 97.8364 397.156 96.8403C397.962 95.8442 398.921 95.0898 400.035 94.5771C401.163 94.0498 402.415 93.7861 403.792 93.7861C404.891 93.7861 405.894 93.9473 406.802 94.2695C407.725 94.5918 408.516 95.1118 409.175 95.8296C409.849 96.5474 410.362 97.4995 410.713 98.686C411.08 99.8579 411.263 101.308 411.263 103.037V118H403.814V103.015C403.814 102.062 403.682 101.337 403.418 100.839C403.155 100.327 402.774 99.9751 402.276 99.7847C401.778 99.5942 401.17 99.499 400.452 99.499C399.69 99.499 399.046 99.6455 398.519 99.9385C397.991 100.231 397.566 100.642 397.244 101.169C396.937 101.682 396.709 102.29 396.563 102.993C396.431 103.696 396.365 104.465 396.365 105.3Z" fill="#424241"/>
<path d="M1363 15C1363 6.71573 1356.28 0 1348 0H1134V167H1348C1356.28 167 1363 160.284 1363 152V15Z" fill="#009FFF"/>
<path d="M1281.5 49H1216.5L1214 51.5V116.5L1216.5 119H1281.5L1284 116.5V51.5L1281.5 49ZM1279 114H1234V104H1245.5C1247 107 1250.5 109 1254 109C1259.5 109 1264 104.5 1264 99C1264 93.5 1259.5 89 1254 89C1248.5 89 1244 93.5 1244 99H1229V114H1219V54H1229V65.5C1226 67 1224 70.5 1224 74C1224 79.5 1228.5 84 1234 84C1239.5 84 1244 79.5 1244 74H1254C1254 79.5 1258.5 84 1264 84C1269.5 84 1274 79.5 1274 74C1274 68.5 1269.5 64 1264 64C1260.5 64 1257 66 1255.5 69H1242.5C1241 66 1237.5 64 1234 64V54H1279V114ZM1249 99C1249 96 1251 94 1254 94C1257 94 1259 96 1259 99C1259 102 1257 104 1254 104C1251 104 1249 102 1249 99ZM1234 69C1237 69 1239 71 1239 74C1239 77 1237 79 1234 79C1231 79 1229 77 1229 74C1229 71 1231 69 1234 69ZM1264 69C1267 69 1269 71 1269 74C1269 77 1267 79 1264 79C1261 79 1259 77 1259 74C1259 71 1261 69 1264 69Z" fill="white"/>
</svg>
